<svg id="Group_26" data-name="Group 26" xmlns="http://www.w3.org/2000/svg" width="218.555" height="47.247" viewBox="0 0 218.555 47.247">
  <path id="Path_64" data-name="Path 64" d="M1056.314,95.955l-2.5,5.293.016.021a29.352,29.352,0,0,1,2.388,5.088l.094.335.094-.335a29.337,29.337,0,0,1,2.388-5.088l.016-.021Z" transform="translate(-947.674 -59.445)"/>
  <g id="Group_24" data-name="Group 24" transform="translate(44.816)">
    <g id="Group_22" data-name="Group 22" transform="translate(51.07)">
      <g id="Group_20" data-name="Group 20" transform="translate(16.01 7.182)">
        <path id="Path_65" data-name="Path 65" d="M1074.466,40.129a.918.918,0,0,0,.513-.639,1.94,1.94,0,0,0-.169-1.268,3.265,3.265,0,0,0-1.349-1.42,4.1,4.1,0,0,0-2.332-.518,4.766,4.766,0,0,0-1.5.359,5.881,5.881,0,0,0-1.642,1.012,6.847,6.847,0,0,0-1.34,1.575,7.615,7.615,0,0,0-.82,1.835,8.451,8.451,0,0,0-.3,1.768c-.011.273-.012.533,0,.774s.031.465.059.668.066.386.1.545a3.672,3.672,0,0,0,.12.407c.079.222.151.343.212.343s.127-.12.215-.329l.333-.853c.07-.174.156-.358.236-.553s.19-.394.294-.6a8.875,8.875,0,0,1,.774-1.2,6.255,6.255,0,0,1,.99-.991,4.666,4.666,0,0,1,1.047-.631,3.488,3.488,0,0,1,.894-.26,1.651,1.651,0,0,1,.177-.023,1.012,1.012,0,0,1,.156-.014c.048,0,.093-.006.135-.012a.935.935,0,0,0,.113,0c.278-.019.5-.036.723-.045a4.154,4.154,0,0,1,.733.018A3.361,3.361,0,0,0,1074.466,40.129Z" transform="translate(-1065.523 -36.273)"/>
      </g>
      <path id="Path_66" data-name="Path 66" d="M1058.961,28.254a30.955,30.955,0,0,0-1.932,8.729c0,.04-.026.069-.054.069l-1.45,1.642a.483.483,0,0,1-.723,0l-1.45-1.642c-.027,0-.051-.029-.054-.069a31.061,31.061,0,0,0-1.933-8.729c-.012-.029,2.988-5.391,3.663-6.511a.149.149,0,0,1,.269,0C1055.973,22.864,1058.974,28.226,1058.961,28.254Z" transform="translate(-1042.312 -21.659)"/>
      <g id="Group_21" data-name="Group 21" transform="translate(0 7.182)">
        <path id="Path_67" data-name="Path 67" d="M1033.5,40.129a.917.917,0,0,1-.513-.639,1.94,1.94,0,0,1,.169-1.268,3.261,3.261,0,0,1,1.348-1.42,4.1,4.1,0,0,1,2.332-.518,4.766,4.766,0,0,1,1.5.359,5.876,5.876,0,0,1,1.642,1.012,6.844,6.844,0,0,1,1.34,1.575,7.606,7.606,0,0,1,.82,1.835,8.435,8.435,0,0,1,.3,1.768c.011.273.012.533,0,.774s-.031.465-.059.668-.065.386-.1.545a3.674,3.674,0,0,1-.12.407c-.079.222-.151.343-.212.343s-.127-.12-.215-.329l-.333-.853c-.069-.174-.156-.358-.236-.553s-.19-.394-.294-.6a8.874,8.874,0,0,0-.774-1.2,6.255,6.255,0,0,0-.99-.991,4.666,4.666,0,0,0-1.047-.631,3.487,3.487,0,0,0-.894-.26,1.655,1.655,0,0,0-.177-.023,1.015,1.015,0,0,0-.156-.014c-.048,0-.093-.006-.135-.012a.93.93,0,0,1-.113,0c-.278-.019-.5-.036-.724-.045a4.154,4.154,0,0,0-.733.018A3.36,3.36,0,0,1,1033.5,40.129Z" transform="translate(-1032.943 -36.273)"/>
      </g>
    </g>
    <path id="Path_68" data-name="Path 68" d="M1057.176,57.545l-1.853,1.757h0c.334.448,1.853,3.027,1.853,3.027h0s1.447-2.579,1.781-3.027h0Z" transform="translate(-993.255 -39.91)"/>
    <path id="Path_69" data-name="Path 69" d="M985.142,44.9l.375.1,1.385.4,1.053.29.766.183.007-.017-.738-.28-.6-.238-.108-.084-.125-.1c.05.012.1.021.151.034a5.052,5.052,0,0,1,1.442.6c0-.013.011-.025.016-.038a1.2,1.2,0,0,1,.1-.22,5.353,5.353,0,0,0-1.478-.665,8.849,8.849,0,0,0-.954-.214,15.125,15.125,0,0,0-1.866-1.014l-.367-.167-.389-.16c-.263-.114-.545-.21-.834-.318a19.711,19.711,0,0,0-1.891-.559,16.122,16.122,0,0,0-2.157-.367c-.379-.036-.771-.055-1.166-.054l-.593.014c-.2.007-.4.026-.6.038a24.23,24.23,0,0,0-5.795,1.274,38.891,38.891,0,0,0-3.842,1.564c-.464.161-1.038.348-1.684.61s-1.379.56-2.178.893c-.783.367-1.629.775-2.522,1.213-.873.473-1.8.964-2.736,1.51-.685.407-1.35.81-1.99,1.2a20.932,20.932,0,0,0-1.785,1.273l-1.537,1.215c-.48.377-.934.715-1.356,1.014a11.688,11.688,0,0,1-2.119,1.2c-.134.053-.253.1-.357.143l-.268.086-.222.072.229-.04.28-.05c.109-.025.233-.06.375-.1a10.364,10.364,0,0,0,2.277-.99c.455-.263.945-.568,1.456-.914s1.047-.724,1.609-1.118,1.15-.8,1.782-1.168,1.314-.763,1.994-1.169l2.687-1.549c.868-.465,1.684-.915,2.436-1.332.767-.382,1.467-.739,2.086-1.057s1.167-.567,1.609-.779c.929-.312,2.284-.753,3.932-1.2a32.521,32.521,0,0,1,5.7-1.048c.193-.012.385-.031.575-.039l.568-.019c.374-.007.739,0,1.1.027a19.014,19.014,0,0,1,2.086.269c.663.119,1.287.274,1.869.427.289.085.571.158.836.247l.393.124.372.131c.556.2,1.041.395,1.453.579-.2-.024-.393-.043-.594-.058a14.9,14.9,0,0,0-3.35-.827c-.179-.031-.36-.035-.543-.052s-.369-.03-.557-.038c-.375,0-.76-.028-1.15-.008a18.725,18.725,0,0,0-2.406.215,30,30,0,0,0-5.889,1.63c-.835.312-1.588.618-2.252.891-.331.138-.641.263-.924.389l-.772.349-.8.266-.937.361c-.676.25-1.419.587-2.235.947-1.62.746-3.473,1.711-5.423,2.776-1.434.789-2.8,1.535-4.048,2.154a28.7,28.7,0,0,1-3.463,1.355c-.509.15-.963.315-1.374.4a5.036,5.036,0,0,0-1.055.33,1.666,1.666,0,0,0-.239.141l-.347.03-.794.051-.4.025-.394.014c-.262.007-.524.024-.784.024a23.06,23.06,0,0,1-3.063-.143l-.372-.048c-.124-.017-.248-.029-.37-.055l-.73-.135-.714-.174c-.119-.026-.235-.062-.351-.1l-.348-.107c-.115-.037-.232-.067-.345-.11l-.338-.127c-.225-.084-.451-.163-.667-.265s-.438-.188-.651-.291l-.632-.321c-.106-.051-.207-.111-.309-.169l-.305-.175-.3-.173c-.1-.058-.2-.124-.3-.185l-.585-.372c-.094-.063-.182-.127-.273-.19s-.181-.125-.265-.195l-.258-.2c-.085-.068-.165-.142-.248-.211-.168-.138-.318-.291-.474-.438a9.97,9.97,0,0,1-.84-.946,10.142,10.142,0,0,1-.7-1.011,9.632,9.632,0,0,1-.541-1.057,9.217,9.217,0,0,1-.392-1.073c-.045-.18-.1-.358-.134-.536s-.077-.354-.1-.531a7.461,7.461,0,0,1-.029-2.021A6.677,6.677,0,0,1,931,42.83a7.219,7.219,0,0,1,.78-1.391,7.842,7.842,0,0,1,.976-1.119l.274-.251c.045-.043.092-.081.138-.117l.139-.111c.089-.077.19-.142.287-.21l.146-.1.153-.093a7.167,7.167,0,0,1,1.286-.623,9.3,9.3,0,0,1,1.372-.394,11.041,11.041,0,0,1,2.8-.2,10.852,10.852,0,0,1,1.359.154c.223.034.441.087.659.134.109.024.215.057.322.084s.214.056.318.09a7.98,7.98,0,0,1,4.069,2.658l.165.233.082.115.072.12.145.239.124.247.062.122c.019.041.034.084.052.126l.1.251c.029.085.054.171.082.255l.041.127c.011.043.02.086.03.129l.059.256c.013.086.026.172.039.258l.02.128.009.128c.006.086.012.171.018.255s0,.169,0,.253c0,.042,0,.084,0,.125l-.01.124-.021.248c-.013.081-.026.162-.039.242-.006.04-.012.081-.019.12l-.028.117L947,45.79c-.023.076-.048.151-.071.226l-.035.112c-.013.037-.029.073-.043.109l-.086.216c-.03.07-.066.137-.1.206-.061.139-.142.264-.215.393a4.59,4.59,0,0,1-1.1,1.234,4.3,4.3,0,0,1-1.261.687,4.148,4.148,0,0,1-1.2.228c-.047,0-.092.007-.138.009l-.134,0-.257,0-.143-.014A1.985,1.985,0,0,0,943.3,47.2a1.939,1.939,0,0,0-2.116-1.757,1.979,1.979,0,0,0,.074,3.933l.134.063.413.148c.152.046.32.084.5.127l.283.042.149.021c.051,0,.1.006.155.009a4.446,4.446,0,0,0,1.4-.123,4.808,4.808,0,0,0,1.546-.689,5.413,5.413,0,0,0,1.685-1.847c.044-.08.09-.16.132-.242l.117-.255c.019-.043.04-.086.058-.129l.05-.134.1-.271.082-.281.04-.143c.011-.048.021-.1.031-.145l.06-.295c.015-.1.027-.2.04-.3l.019-.153c0-.052.006-.1.009-.155l.015-.313c0-.1-.006-.21-.008-.316l-.005-.16-.017-.16c-.012-.107-.024-.214-.036-.321l-.061-.321c-.011-.054-.02-.108-.032-.161l-.043-.159c-.03-.107-.058-.214-.09-.321l-.115-.315c-.02-.053-.038-.106-.06-.158l-.07-.154-.143-.309-.167-.3-.085-.15-.094-.144-.192-.287a7.743,7.743,0,0,0-.916-1.056c-.165-.171-.35-.316-.53-.474-.092-.075-.188-.145-.283-.218s-.191-.145-.292-.209l-.3-.2-.312-.185-.157-.092-.161-.084-.325-.168-.334-.151-.168-.076L943.1,37.6c-.115-.045-.229-.091-.344-.134l-.352-.12c-.117-.042-.237-.075-.357-.11s-.24-.071-.362-.1c-.244-.058-.488-.121-.738-.165a12.445,12.445,0,0,0-4.68-.008,10.5,10.5,0,0,0-1.59.442,8.519,8.519,0,0,0-1.54.735l-.186.113-.181.124c-.121.084-.243.165-.358.26l-.174.139c-.059.046-.116.093-.168.142l-.322.293a9.25,9.25,0,0,0-1.163,1.333,8.606,8.606,0,0,0-.946,1.7,8.127,8.127,0,0,0-.56,2.146,9.382,9.382,0,0,0,.8,4.958,11.125,11.125,0,0,0,.639,1.217,11.6,11.6,0,0,0,1.784,2.222c.179.165.354.338.546.492.095.079.188.161.285.237l.3.226c.1.077.2.147.305.218s.207.143.311.21l.624.386c.105.063.208.132.316.192l.326.181.328.182c.109.061.219.123.333.177l.684.336c.231.109.471.2.707.306s.481.19.727.278l.369.132c.123.045.251.076.376.115l.379.111c.126.038.253.075.383.1l.776.177.789.134c.132.025.264.037.4.053l.4.045a24.014,24.014,0,0,0,3.227.1c.271,0,.54-.026.811-.037l.406-.021.405-.031.812-.065.811-.083c.272-.026.542-.057.812-.09l.813-.1.822-.122.412-.062c.137-.021.273-.051.409-.076l.818-.159c.272-.056.542-.124.813-.186.543-.118,1.077-.275,1.615-.419.269-.072.532-.16.8-.239s.533-.158.8-.25c.525-.178,1.053-.35,1.571-.546,1.043-.373,2.065-.792,3.078-1.211s2.009-.865,2.992-1.313,1.956-.893,2.918-1.335,1.909-.87,2.853-1.3c1.882-.857,3.69-1.71,5.456-2.435.882-.366,1.754-.691,2.61-.984s1.705-.528,2.532-.73A17.885,17.885,0,0,1,985.142,44.9Zm1.839.213c.115.064.212.12.286.165l.037.021-.328-.131-.268-.109C986.8,45.072,986.891,45.09,986.981,45.11Zm-6.531-.227c-.849.185-1.718.406-2.6.682s-1.769.588-2.667.938c-1.8.693-3.635,1.512-5.526,2.325-.945.4-1.913.816-2.881,1.239s-1.949.852-2.938,1.275-1.987.84-2.994,1.246-2.025.79-3.056,1.138c-.513.183-1.032.343-1.55.508-.258.086-.521.153-.781.23s-.52.155-.783.22c-.525.131-1.048.274-1.576.38-.264.055-.526.117-.791.167l-.793.14c-.132.022-.263.049-.4.067l-.4.053-.793.1-.8.083c-.268.029-.535.056-.8.077l-.187.016.02-.008a5.189,5.189,0,0,1,1.052-.2c.428-.045.9-.165,1.427-.271a22.522,22.522,0,0,0,3.618-1.133c1.319-.572,2.714-1.282,4.148-2.071,1.954-1.068,3.754-2.1,5.312-2.948.784-.409,1.5-.8,2.141-1.11l.894-.447.766-.347.8-.263c.291-.1.613-.19.954-.3.684-.211,1.457-.456,2.3-.71a43.153,43.153,0,0,1,5.829-1.405,22.859,22.859,0,0,1,2.321-.239c.376-.03.745-.019,1.108-.029.181,0,.36.01.537.014s.354,0,.524.024a14.122,14.122,0,0,1,1.468.175A20.44,20.44,0,0,0,980.449,44.883Z" transform="translate(-929.019 -29.33)"/>
    <path id="Path_70" data-name="Path 70" d="M998.98,39.213l-.5.16c-.147.05-.3.087-.447.132s-.3.088-.449.126c-.3.075-.6.157-.9.218-.151.031-.3.067-.453.1l-.455.08c-.076.013-.151.029-.227.038l-.228.03-.454.06-.461.048c-.154.016-.307.031-.459.044l-.108.009.011,0a2.522,2.522,0,0,1,.492-.1c-.17.018-.344.032-.518.039a.921.921,0,0,0-.136.08l-.2.017-.455.029-.227.014-.226.008c-.15,0-.3.013-.449.014a13.173,13.173,0,0,1-1.756-.082l-.213-.028c-.071-.01-.142-.017-.212-.031l-.418-.077-.409-.1c-.068-.015-.135-.035-.2-.057l-.2-.061c-.066-.021-.133-.038-.2-.063l-.194-.073c-.129-.048-.258-.093-.382-.152s-.251-.108-.373-.167l-.362-.184c-.06-.029-.119-.063-.177-.1l-.175-.1-.173-.1c-.058-.033-.114-.071-.17-.106l-.336-.213c-.054-.036-.1-.073-.156-.109s-.1-.072-.152-.112l-.148-.115c-.049-.039-.094-.081-.142-.121-.1-.079-.182-.167-.272-.251a5.878,5.878,0,0,1-.881-1.121,5.542,5.542,0,0,1-.31-.606,5.254,5.254,0,0,1-.225-.614c-.026-.1-.056-.2-.077-.307s-.044-.2-.055-.3a4.257,4.257,0,0,1-.017-1.158,3.823,3.823,0,0,1,.266-1,4.157,4.157,0,0,1,.447-.8,4.487,4.487,0,0,1,.56-.641l.157-.144a.956.956,0,0,1,.079-.067l.08-.063A2.032,2.032,0,0,1,985.5,31l.083-.058.088-.053a4.108,4.108,0,0,1,.737-.357,5.306,5.306,0,0,1,.786-.226,6.464,6.464,0,0,1,2.382-.028c.128.02.252.05.377.077.063.014.123.032.185.048s.122.032.182.052a4.572,4.572,0,0,1,2.332,1.523l.095.134.047.066.041.069.083.137.071.142.035.07c.011.024.02.048.03.072l.058.144c.017.049.031.1.047.146l.024.073c.006.025.011.049.017.074.011.049.023.1.034.147l.022.147.011.073.005.074.01.146c0,.049,0,.1,0,.145,0,.024,0,.048,0,.072l-.006.071-.012.142-.022.139c0,.023-.007.046-.011.069l-.016.067-.031.134-.041.13-.02.064c-.008.021-.017.042-.025.062l-.049.123c-.018.04-.038.079-.057.118a2.511,2.511,0,0,1-.123.225,2.631,2.631,0,0,1-.628.708,2.467,2.467,0,0,1-.723.393,2.391,2.391,0,0,1-.687.131l-.079,0h-.077l-.147,0-.082-.008a1.137,1.137,0,0,0,.616-1.136,1.11,1.11,0,0,0-1.213-1.007,1.134,1.134,0,0,0,.043,2.254l.076.036.237.085c.087.027.183.048.286.073l.163.024.085.012c.029,0,.058,0,.089.005a2.536,2.536,0,0,0,.8-.07,2.749,2.749,0,0,0,.886-.4,3.023,3.023,0,0,0,.8-.8,2.959,2.959,0,0,0,.163-.262c.025-.046.052-.091.075-.139l.067-.145c.011-.025.023-.049.033-.074l.029-.077.057-.155.046-.162.023-.081c.006-.028.012-.056.018-.084l.034-.169c.009-.057.015-.115.023-.173l.011-.088c0-.029,0-.059.005-.088l.008-.179-.005-.181,0-.091-.01-.091-.021-.184-.035-.184c-.006-.03-.011-.062-.018-.092l-.025-.091c-.017-.061-.033-.122-.052-.183l-.066-.181c-.011-.03-.022-.061-.034-.09l-.04-.088-.082-.177-.1-.172-.048-.086-.054-.082-.11-.165a4.445,4.445,0,0,0-.525-.605c-.094-.1-.2-.181-.3-.271-.053-.043-.108-.083-.163-.125s-.109-.083-.167-.12l-.172-.115-.178-.106-.09-.053-.092-.048-.186-.1-.191-.087-.1-.043-.1-.039c-.066-.026-.131-.053-.2-.077l-.2-.069c-.067-.024-.136-.043-.2-.063s-.137-.041-.207-.058c-.14-.033-.28-.069-.423-.094a7.142,7.142,0,0,0-2.682,0,6.077,6.077,0,0,0-.911.254,4.873,4.873,0,0,0-.882.421l-.107.065-.1.071c-.069.048-.14.094-.2.149l-.1.079c-.034.027-.066.054-.1.082l-.184.168a5.334,5.334,0,0,0-.667.764,4.933,4.933,0,0,0-.542.973,4.65,4.65,0,0,0-.321,1.23,5.376,5.376,0,0,0,.461,2.842,6.343,6.343,0,0,0,.366.7,6.664,6.664,0,0,0,1.022,1.273c.1.094.2.193.313.282.055.045.108.092.163.136l.17.129c.056.045.115.085.174.125s.119.083.178.121l.358.221c.06.036.119.075.181.11l.187.1.188.1c.062.035.125.071.191.1l.392.193c.132.062.27.116.406.175s.276.109.416.159l.212.076c.07.026.143.044.215.066l.217.063c.073.022.146.043.22.058l.445.1.452.077c.075.015.151.021.228.03L990.3,41a13.809,13.809,0,0,0,1.85.058c.155,0,.309-.014.464-.021l.233-.012.232-.018.465-.038.465-.047c.155-.015.311-.033.465-.052l.466-.056.471-.07.236-.035c.079-.012.156-.029.234-.044l.469-.09c.156-.032.311-.072.466-.107.312-.068.618-.158.925-.24.154-.041.305-.092.458-.137s.306-.09.456-.143c.3-.1.6-.2.9-.313.209-.075.414-.155.62-.235.013-.13.028-.261.043-.391C999.806,39.086,999.394,39.155,998.98,39.213Z" transform="translate(-956.411 -25.57)"/>
    <path id="Path_71" data-name="Path 71" d="M1021.046,60.025a11.08,11.08,0,0,0-7.188-4.094,13.8,13.8,0,0,0-8.091,1.78c-2.865,1.455-5.446,3.315-8.167,4.974-2.578,1.571-5.418,3.033-8.57,3.153-.354.013-.682.192-.688.437-.164.212-.023.559.263.761,2.166,1.525,5.27,1.522,7.837.8,2.65-.744,4.112-3.081,5.417-5.186a4.27,4.27,0,0,0,1.552,3.239c.479.358,2.022,1,.948-.632-1.123-1.71.462-3.959,1.8-5.427,1.592-1.75,4.218-2.551,6.6-2.832a.682.682,0,0,0,.181-.048c.235.011.471.028.709.057a9.073,9.073,0,0,1,7.971,7.842c.46,3.014-.054,7.226-3.219,9.043a6.018,6.018,0,0,1-4.649.2,4.4,4.4,0,0,1-.618-.24c.04-.217-.059-.359-.3-.585a2.9,2.9,0,0,1-.592-2.772,5.821,5.821,0,0,0,4.168-.329c1.653-.717,2.812-2.569,2.006-3.883a.9.9,0,0,0-.131-.266.614.614,0,0,0-.343-.4,5.575,5.575,0,0,0-7.928,3.742c-1.006,3.706,2.322,6.187,6.156,6.187,3.624,0,5.706-3.041,6.438-5.889A12.025,12.025,0,0,0,1021.046,60.025Zm-4.318,8.029c.014,0,.028-.006.041-.009l-.058.057C1016.717,68.086,1016.722,68.07,1016.728,68.054Z" transform="translate(-959.155 -39.039)"/>
    <g id="Group_23" data-name="Group 23" transform="translate(63.825 3.779)">
      <path id="Path_72" data-name="Path 72" d="M1075.315,45.384c.828.2,1.675.438,2.532.73s1.729.619,2.61.984c1.765.725,3.574,1.578,5.456,2.435.943.426,1.891.854,2.853,1.3s1.932.89,2.917,1.335,1.983.883,2.992,1.313,2.035.837,3.078,1.211c.518.2,1.046.368,1.571.546.262.092.53.166.8.25s.53.168.8.239c.538.143,1.071.3,1.615.419.271.062.54.131.813.186l.818.159c.137.025.272.055.409.076l.412.062.822.122.813.1c.27.033.541.065.812.09l.811.083.812.065.405.031.406.021c.271.012.539.032.81.037a24.024,24.024,0,0,0,3.228-.1l.4-.045c.133-.016.265-.028.4-.053l.789-.134.777-.177c.129-.027.256-.064.382-.1l.379-.111c.125-.039.253-.07.376-.115l.369-.132c.246-.087.491-.172.727-.278s.476-.2.707-.306l.684-.336c.115-.054.224-.115.333-.177l.328-.182.326-.181c.108-.06.211-.129.316-.192l.624-.386c.1-.067.207-.141.311-.21s.207-.141.305-.218l.3-.226c.1-.076.19-.158.285-.237.192-.155.367-.327.546-.492a11.592,11.592,0,0,0,1.784-2.222,11.094,11.094,0,0,0,.639-1.217,9.384,9.384,0,0,0,.8-4.958,8.132,8.132,0,0,0-.56-2.146,8.624,8.624,0,0,0-.946-1.7,9.242,9.242,0,0,0-1.164-1.333l-.321-.293c-.052-.049-.109-.1-.169-.142l-.174-.139c-.115-.1-.237-.176-.358-.26l-.181-.124-.186-.113a8.5,8.5,0,0,0-1.54-.735,10.5,10.5,0,0,0-1.59-.442,12.445,12.445,0,0,0-4.68.008c-.25.044-.494.107-.738.165-.122.029-.241.067-.361.1s-.24.068-.357.11l-.352.12c-.116.043-.23.089-.345.134l-.172.068-.168.076-.334.151-.325.168-.161.084-.157.092-.312.185-.3.2c-.1.064-.2.136-.291.209s-.191.143-.284.218c-.18.157-.366.3-.53.474a7.78,7.78,0,0,0-.916,1.056l-.192.287-.094.144-.084.15-.166.3-.143.309-.07.154c-.022.052-.039.106-.059.158l-.115.315c-.032.107-.06.214-.09.321l-.043.159c-.012.054-.022.108-.033.161l-.061.321c-.012.108-.025.215-.036.321l-.017.16-.005.16-.009.316q.008.157.015.313c0,.052,0,.1.009.155l.019.153c.013.1.025.2.039.3l.06.295c.01.049.02.1.031.145l.041.143.081.281.1.271.05.134c.018.043.039.086.058.129l.118.255c.041.083.088.162.132.242a5.415,5.415,0,0,0,1.685,1.847,4.808,4.808,0,0,0,1.546.689,4.441,4.441,0,0,0,1.4.123c.053,0,.1,0,.155-.009l.149-.021.283-.042c.179-.044.347-.081.5-.127l.413-.148.133-.063a1.971,1.971,0,1,0-2.042-2.176,1.985,1.985,0,0,0,1.076,1.983l-.144.014-.257,0-.134,0c-.045,0-.091-.006-.138-.009a4.151,4.151,0,0,1-1.2-.228,4.3,4.3,0,0,1-1.261-.687,4.589,4.589,0,0,1-1.1-1.234c-.073-.128-.153-.254-.215-.393-.032-.069-.068-.136-.1-.206l-.085-.216c-.015-.036-.03-.072-.043-.109l-.035-.112-.071-.226c-.018-.078-.036-.156-.055-.234l-.028-.117c-.007-.04-.013-.081-.019-.12l-.039-.242c-.007-.082-.013-.165-.02-.248l-.011-.124c0-.042,0-.084,0-.125,0-.084,0-.169,0-.253s.012-.17.018-.255l.009-.128.02-.128c.013-.086.026-.172.039-.258l.06-.256c.01-.043.019-.086.03-.129l.041-.127c.027-.085.052-.17.081-.255l.1-.251c.018-.042.033-.085.052-.126l.062-.122.124-.247.145-.239.072-.12.082-.115.166-.233a7.976,7.976,0,0,1,4.068-2.658c.1-.035.211-.062.318-.09s.213-.06.322-.084c.218-.047.435-.1.658-.134a10.851,10.851,0,0,1,1.359-.154,11.04,11.04,0,0,1,2.8.2,9.333,9.333,0,0,1,1.372.394,7.191,7.191,0,0,1,1.286.623l.153.093.146.1c.1.068.2.134.287.21l.139.111a1.75,1.75,0,0,1,.138.117l.274.251a7.846,7.846,0,0,1,.976,1.119,7.216,7.216,0,0,1,.78,1.391,6.66,6.66,0,0,1,.464,1.746,7.439,7.439,0,0,1-.029,2.021c-.02.177-.063.352-.1.531s-.089.356-.134.536a9.217,9.217,0,0,1-.392,1.073,9.611,9.611,0,0,1-.541,1.057,10.248,10.248,0,0,1-1.538,1.957c-.156.146-.307.3-.475.438-.083.07-.163.143-.248.211l-.258.2c-.085.069-.176.132-.266.195s-.178.127-.273.19l-.585.372c-.1.061-.2.127-.3.185l-.3.173-.305.175c-.1.058-.2.118-.31.169l-.632.321c-.213.1-.433.193-.651.291s-.442.181-.667.265l-.338.127c-.113.043-.23.073-.345.11l-.348.107c-.116.036-.232.073-.351.1l-.714.174-.729.135c-.122.026-.246.038-.37.055l-.372.048a23.052,23.052,0,0,1-3.063.143c-.26,0-.522-.017-.784-.024l-.394-.014-.4-.025-.794-.051-.347-.03a1.674,1.674,0,0,0-.239-.141,5.032,5.032,0,0,0-1.055-.33c-.411-.087-.865-.252-1.374-.4a28.72,28.72,0,0,1-3.463-1.355c-1.252-.619-2.614-1.365-4.048-2.154-1.949-1.066-3.8-2.03-5.423-2.776-.817-.361-1.559-.7-2.235-.947l-.937-.361-.8-.266-.772-.349c-.283-.126-.593-.251-.924-.389-.664-.273-1.417-.579-2.252-.891a29.985,29.985,0,0,0-5.889-1.63,18.712,18.712,0,0,0-2.405-.215c-.39-.02-.775,0-1.15.008-.188.008-.373.026-.557.038s-.364.021-.544.052a14.89,14.89,0,0,0-3.349.827q-.3.022-.595.058c.412-.185.9-.384,1.454-.579l.372-.131.393-.124c.265-.089.548-.162.836-.247.582-.153,1.206-.308,1.869-.427a19.034,19.034,0,0,1,2.086-.269c.363-.024.727-.034,1.1-.027l.568.019c.19.008.382.027.575.039a32.525,32.525,0,0,1,5.7,1.048c1.648.447,3,.888,3.932,1.2.442.213.992.459,1.609.779s1.318.674,2.086,1.057c.752.416,1.569.866,2.436,1.332l2.688,1.549c.68.405,1.347.8,1.994,1.169.632.37,1.219.775,1.782,1.168s1.1.773,1.609,1.118,1,.65,1.456.914a10.35,10.35,0,0,0,2.276.99c.142.037.266.073.375.1l.28.05.229.04-.222-.072-.268-.086c-.1-.038-.223-.089-.356-.143a11.666,11.666,0,0,1-2.119-1.2c-.422-.3-.876-.636-1.356-1.014l-1.537-1.215a20.932,20.932,0,0,0-1.785-1.273c-.64-.394-1.305-.8-1.99-1.2-.935-.545-1.863-1.036-2.736-1.51-.893-.438-1.739-.846-2.522-1.213-.8-.333-1.532-.632-2.179-.893s-1.22-.449-1.684-.61a38.878,38.878,0,0,0-3.842-1.564,24.232,24.232,0,0,0-5.795-1.274c-.2-.013-.4-.031-.6-.038l-.593-.014c-.394,0-.787.018-1.166.054a16.119,16.119,0,0,0-2.157.367,19.7,19.7,0,0,0-1.891.559c-.289.108-.571.2-.834.318l-.389.16-.367.167a15.108,15.108,0,0,0-1.866,1.014,8.854,8.854,0,0,0-.954.214,5.357,5.357,0,0,0-1.478.665,1.2,1.2,0,0,1,.1.22c0,.014.011.025.016.038a5.05,5.05,0,0,1,1.442-.6c.049-.013.1-.022.151-.034l-.125.1-.108.084-.6.238-.738.28.007.017.766-.183,1.052-.29,1.385-.4.374-.1A17.885,17.885,0,0,1,1075.315,45.384Zm-6.154-.328-.268.109-.328.131.037-.021c.075-.044.172-.1.286-.165C1068.978,45.09,1069.069,45.072,1069.161,45.056Zm3.348-.554a14.154,14.154,0,0,1,1.469-.175c.17-.021.347-.016.524-.024s.356-.014.537-.014c.363.01.732,0,1.108.029a22.842,22.842,0,0,1,2.322.239,43.153,43.153,0,0,1,5.829,1.405c.846.254,1.619.5,2.3.71.341.108.663.2.954.3l.8.263.766.347.894.447c.645.307,1.356.7,2.141,1.11,1.558.845,3.358,1.88,5.313,2.948,1.434.789,2.829,1.5,4.147,2.071a22.528,22.528,0,0,0,3.618,1.133c.527.106,1,.226,1.427.271a5.187,5.187,0,0,1,1.052.2l.02.008-.187-.016c-.266-.021-.533-.048-.8-.077l-.8-.083-.793-.1-.4-.053c-.133-.018-.264-.045-.4-.067l-.793-.14c-.264-.05-.527-.112-.791-.167-.528-.106-1.051-.249-1.576-.38-.262-.064-.521-.147-.783-.22s-.523-.144-.781-.23c-.517-.165-1.037-.324-1.55-.508-1.03-.348-2.046-.742-3.056-1.138s-2.006-.82-2.994-1.246-1.967-.853-2.937-1.275-1.937-.836-2.882-1.239c-1.89-.813-3.726-1.632-5.525-2.325-.9-.35-1.79-.66-2.667-.938s-1.747-.5-2.6-.682A20.44,20.44,0,0,0,1072.51,44.5Z" transform="translate(-1063.017 -33.109)"/>
      <path id="Path_73" data-name="Path 73" d="M1100.891,39.213l.5.16c.148.05.3.087.447.132s.3.088.449.126c.3.075.6.157.9.218.151.031.3.067.453.1l.455.08c.076.013.151.029.227.038l.227.03.455.06.461.048c.153.016.306.031.459.044l.107.009-.011,0a2.515,2.515,0,0,0-.492-.1c.171.018.344.032.519.039a.9.9,0,0,1,.135.08l.2.017.455.029.226.014.226.008c.15,0,.3.013.45.014a13.17,13.17,0,0,0,1.755-.082l.213-.028c.071-.01.142-.017.212-.031l.418-.077.409-.1c.068-.015.135-.035.2-.057l.2-.061c.066-.021.133-.038.2-.063l.194-.073c.129-.048.258-.093.382-.152s.251-.108.373-.167l.362-.184c.06-.029.119-.063.177-.1l.175-.1.174-.1c.057-.033.113-.071.169-.106l.336-.213c.054-.036.1-.073.156-.109s.1-.072.152-.112l.148-.115c.049-.039.094-.081.142-.121.1-.079.182-.167.272-.251a5.878,5.878,0,0,0,.881-1.121,5.542,5.542,0,0,0,.31-.606,5.166,5.166,0,0,0,.225-.614c.026-.1.057-.2.077-.307s.044-.2.055-.3a4.271,4.271,0,0,0,.016-1.158,3.818,3.818,0,0,0-.266-1,4.157,4.157,0,0,0-.447-.8,4.515,4.515,0,0,0-.559-.641l-.157-.144a.978.978,0,0,0-.079-.067l-.08-.063c-.051-.044-.109-.082-.164-.121l-.084-.058-.088-.053a4.1,4.1,0,0,0-.737-.357,5.307,5.307,0,0,0-.786-.226,6.318,6.318,0,0,0-1.6-.116,6.251,6.251,0,0,0-.778.088c-.128.02-.253.05-.378.077-.062.014-.123.032-.185.048s-.122.032-.182.052a4.575,4.575,0,0,0-2.332,1.523l-.095.134-.047.066-.041.069-.083.137-.071.142-.035.07c-.011.024-.02.048-.029.072-.02.048-.039.1-.059.144s-.031.1-.047.146l-.023.073c-.007.025-.012.049-.018.074l-.034.147-.023.147-.011.073,0,.074-.01.146v.145c0,.024,0,.048,0,.072l.006.071.012.142.022.139c0,.023.007.046.011.069l.016.067.032.134.041.13.02.064c.007.021.016.042.025.062l.049.123c.018.04.038.079.057.118a2.479,2.479,0,0,0,.123.225,2.633,2.633,0,0,0,.628.708,2.467,2.467,0,0,0,.723.393,2.393,2.393,0,0,0,.688.131l.079,0h.077l.147,0,.082-.008a1.137,1.137,0,0,1-.616-1.136,1.11,1.11,0,0,1,1.213-1.007,1.134,1.134,0,0,1-.043,2.254l-.076.036-.237.085c-.087.027-.183.048-.286.073l-.162.024-.085.012c-.029,0-.059,0-.089.005a2.537,2.537,0,0,1-.8-.07,2.754,2.754,0,0,1-.886-.4,3.037,3.037,0,0,1-.8-.8,2.931,2.931,0,0,1-.163-.262c-.025-.046-.052-.091-.075-.139l-.067-.145-.033-.074-.028-.077-.057-.155c-.015-.054-.031-.107-.046-.162l-.023-.081c-.007-.028-.012-.056-.018-.084l-.034-.169c-.008-.057-.015-.115-.023-.173l-.011-.088c0-.029,0-.059-.005-.088,0-.059-.005-.119-.008-.179l0-.181,0-.091.01-.091.021-.184.035-.184c.006-.03.011-.062.018-.092l.025-.091c.017-.061.033-.122.052-.183l.066-.181c.011-.03.022-.061.034-.09l.04-.088.082-.177.1-.172.048-.086.054-.082.11-.165a4.5,4.5,0,0,1,.525-.605c.095-.1.2-.181.3-.271.053-.043.108-.083.162-.125s.11-.083.167-.12l.172-.115.178-.106.089-.053.093-.048.186-.1.191-.087.1-.043.1-.039c.066-.026.131-.053.2-.077l.2-.069c.067-.024.136-.043.2-.063s.137-.041.207-.058c.14-.033.28-.069.422-.094a7.142,7.142,0,0,1,2.682,0,6.054,6.054,0,0,1,.912.254,4.893,4.893,0,0,1,.883.421l.107.065.1.071c.069.048.14.094.205.149l.1.079c.034.027.067.054.1.082l.184.168a5.275,5.275,0,0,1,.667.764,4.933,4.933,0,0,1,.542.973,4.65,4.65,0,0,1,.321,1.23,5.375,5.375,0,0,1-.46,2.842,6.368,6.368,0,0,1-.367.7,6.622,6.622,0,0,1-.465.66,6.553,6.553,0,0,1-.557.613c-.1.094-.2.193-.313.282-.054.045-.107.092-.163.136l-.17.129c-.056.045-.115.085-.174.125s-.119.083-.178.121l-.357.221c-.06.036-.119.075-.181.11l-.187.1-.188.1c-.062.035-.125.071-.191.1l-.392.193c-.132.062-.27.116-.405.175s-.276.109-.416.159l-.211.076c-.071.026-.144.044-.216.066l-.217.063c-.073.022-.146.043-.22.058l-.445.1-.452.077c-.076.015-.152.021-.228.03l-.229.026a13.8,13.8,0,0,1-1.85.058c-.155,0-.309-.014-.464-.021l-.233-.012-.232-.018-.466-.038-.465-.047c-.155-.015-.311-.033-.465-.052l-.466-.056-.471-.07-.236-.035c-.079-.012-.156-.029-.234-.044l-.469-.09c-.156-.032-.311-.072-.466-.107-.312-.068-.618-.158-.925-.24-.154-.041-.305-.092-.458-.137s-.305-.09-.456-.143c-.3-.1-.6-.2-.9-.313-.209-.075-.414-.155-.62-.235-.013-.13-.028-.261-.043-.391C1100.065,39.086,1100.477,39.155,1100.891,39.213Z" transform="translate(-1079.626 -29.349)"/>
      <path id="Path_74" data-name="Path 74" d="M1059.284,69.66c.732,2.848,2.814,5.889,6.438,5.889,3.834,0,7.162-2.481,6.156-6.187a5.575,5.575,0,0,0-7.928-3.742.612.612,0,0,0-.342.4.9.9,0,0,0-.132.266c-.805,1.314.354,3.165,2.006,3.883a5.821,5.821,0,0,0,4.168.329,2.9,2.9,0,0,1-.592,2.772c-.246.226-.344.369-.3.585a4.412,4.412,0,0,1-.619.24,6.018,6.018,0,0,1-4.649-.2c-3.165-1.817-3.68-6.029-3.219-9.043a9.073,9.073,0,0,1,7.971-7.842c.237-.028.474-.046.708-.057a.684.684,0,0,0,.181.048c2.382.281,5.009,1.082,6.6,2.832,1.335,1.468,2.921,3.717,1.8,5.427-1.074,1.633.47.99.948.632a4.27,4.27,0,0,0,1.552-3.239c1.306,2.105,2.767,4.442,5.417,5.186,2.567.721,5.671.723,7.837-.8.287-.2.427-.549.263-.761-.006-.245-.334-.424-.688-.437-3.151-.12-5.991-1.582-8.569-3.153-2.722-1.659-5.3-3.519-8.168-4.974a13.8,13.8,0,0,0-8.091-1.78,11.082,11.082,0,0,0-7.188,4.094A12.026,12.026,0,0,0,1059.284,69.66Zm5.892-1.558-.058-.057c.014,0,.027.007.041.009Z" transform="translate(-1058.899 -42.818)"/>
    </g>
  </g>
  <path id="Path_75" data-name="Path 75" d="M1202.078,35.233s1.429,4.025,0,5.934c0,0,23.193-5.473,39.555-5.934Z" transform="translate(-1023.077 -28.562)"/>
  <path id="Path_76" data-name="Path 76" d="M877.376,35.233s-1.43,4.025,0,5.934c0,0-23.193-5.473-39.555-5.934Z" transform="translate(-837.821 -28.562)"/>
</svg>
