<svg xmlns="http://www.w3.org/2000/svg" width="53.093" height="173.849" viewBox="0 0 53.093 173.849">
  <g id="Group_87" data-name="Group 87" transform="translate(-8 -95.742)">
    <g id="Group_34" data-name="Group 34" transform="translate(14.406 223.978)">
      <g id="Group_31" data-name="Group 31" transform="translate(0 0)">
        <g id="Group_28" data-name="Group 28" transform="translate(0.738)">
          <path id="Path_77" data-name="Path 77" d="M1107.469,287.894a2.631,2.631,0,0,1-.547.693,3,3,0,0,1-1.939.765,1.983,1.983,0,0,1-1.733-.789,1.332,1.332,0,0,1-.051-1.112,1.224,1.224,0,0,1,.535-.541c.443-.231.8-.043,1.24-.137,1.5-.322.707-1.347.206-1.618a2.217,2.217,0,0,0-1.141-.212c-3.973.16-2.788,4.551-1.925,6.6.88,2.091,2.322,4.007,2.9,6.215a3.82,3.82,0,0,1-.738,3.641q-.161-.192-.32-.385c-.06-.148-.127-.294-.193-.44a6.226,6.226,0,0,0,.131-2.374,13.928,13.928,0,0,0-1.656-4.642,20.719,20.719,0,0,1-1.554-3.886,6.721,6.721,0,0,1-.232-3.826,4.127,4.127,0,0,1,4.991-2.354A3.119,3.119,0,0,1,1107.469,287.894Z" transform="translate(-1090.398 -274.166)"/>
          <path id="Path_78" data-name="Path 78" d="M1110.345,299.344c.046.1.093.209.141.313C1110.438,299.553,1110.391,299.448,1110.345,299.344Z" transform="translate(-1098.883 -281.671)"/>
          <path id="Path_79" data-name="Path 79" d="M1104.611,301.86a3.886,3.886,0,0,1,.8-3.631,3.155,3.155,0,0,1,3.767-.706,1.847,1.847,0,0,1-.356,3.148c-.718.3-1.6.194-2.227.645a1.468,1.468,0,0,0-.5,1.639,2.643,2.643,0,0,0,1.173,1.309c3.931,2.47,9.311-.532,10.136-4.7.751-3.79-1.944-6.805-4.7-9.429-1.455-1.385-4.774-2.047-5.888.363-.107.231-.262.532-.529.515a.476.476,0,0,1-.257-.121,2.272,2.272,0,0,1-.812-1.859,3.894,3.894,0,0,1,1.171-2.576c.313-.3,1.42-.663,1.57-.976.167-.348-.645-1.572-.8-1.9-1.521-3.142-3.632-6.5-2.557-10.213.231-.8.977-.407,1.3.044.655.926,1.669,1.634,2.234,2.605.378-.149.709-.5,1.127-.655a3.635,3.635,0,0,1,1.493-.229,3.357,3.357,0,0,1,3.235,2.826c.044.245-.268.419-.513.272-1.484-.9-2.442,1.087-2.507,1.949a12.432,12.432,0,0,0,.215,2.957,10.9,10.9,0,0,0,2.49,5.046c2.488,2.413,4.651,5.212,5.47,8.495a7.48,7.48,0,0,1-1.82,7.2,7.881,7.881,0,0,1-2.73,1.678,9.708,9.708,0,0,1-1.531.429C1109.465,306.688,1105.442,305,1104.611,301.86Z" transform="translate(-1104.307 -272.911)"/>
        </g>
        <g id="Group_29" data-name="Group 29" transform="translate(12.342 28.049)">
          <path id="Path_80" data-name="Path 80" d="M1082.1,269.127a2.625,2.625,0,0,0-.693.547,3,3,0,0,0-.765,1.94,1.983,1.983,0,0,0,.789,1.733,1.332,1.332,0,0,0,1.112.051,1.223,1.223,0,0,0,.541-.535c.232-.443.043-.8.137-1.24.322-1.5,1.347-.707,1.618-.207a2.216,2.216,0,0,1,.212,1.141c-.161,3.973-4.551,2.788-6.6,1.925-2.092-.88-4.007-2.322-6.215-2.9a3.821,3.821,0,0,0-3.642.738l.385.32c.148.06.294.127.44.193a6.226,6.226,0,0,1,2.374-.131,13.92,13.92,0,0,1,4.642,1.656,20.709,20.709,0,0,0,3.887,1.554,6.72,6.72,0,0,0,3.826.232,4.128,4.128,0,0,0,2.355-4.991A3.12,3.12,0,0,0,1082.1,269.127Z" transform="translate(-1062.589 -268.771)"/>
          <path id="Path_81" data-name="Path 81" d="M1083.682,271.7q-.157-.069-.313-.141C1083.473,271.61,1083.577,271.657,1083.682,271.7Z" transform="translate(-1068.119 -265.738)"/>
          <path id="Path_82" data-name="Path 82" d="M1057.021,266.477a3.886,3.886,0,0,0,3.631-.8,3.154,3.154,0,0,0,.706-3.767,1.848,1.848,0,0,0-3.149.356c-.3.718-.193,1.6-.645,2.227a1.468,1.468,0,0,1-1.639.5,2.646,2.646,0,0,1-1.309-1.173c-2.47-3.931.532-9.311,4.7-10.136,3.79-.751,6.806,1.944,9.429,4.7,1.386,1.455,2.047,4.774-.363,5.887-.232.107-.532.262-.514.529a.471.471,0,0,0,.12.257,2.273,2.273,0,0,0,1.859.812,3.893,3.893,0,0,0,2.576-1.171c.3-.313.663-1.42.976-1.57.347-.167,1.572.645,1.9.8,3.142,1.521,6.5,3.632,10.212,2.557.8-.231.407-.977-.043-1.3-.926-.655-1.634-1.669-2.606-2.234.149-.378.5-.709.655-1.127a3.647,3.647,0,0,0,.23-1.493,3.358,3.358,0,0,0-2.826-3.235c-.245-.044-.419.268-.272.513.9,1.484-1.087,2.442-1.949,2.507a12.434,12.434,0,0,1-2.957-.215,10.9,10.9,0,0,1-5.046-2.491c-2.413-2.488-5.213-4.651-8.495-5.47a7.481,7.481,0,0,0-7.2,1.82,7.871,7.871,0,0,0-1.678,2.73,9.584,9.584,0,0,0-.429,1.531C1052.194,261.623,1053.881,265.646,1057.021,266.477Z" transform="translate(-1052.736 -249.354)"/>
        </g>
        <g id="Group_30" data-name="Group 30" transform="translate(0 31.663)">
          <path id="Path_83" data-name="Path 83" d="M1120.414,264.889a12.459,12.459,0,0,0-12.4-12.4h-.075a.518.518,0,1,1,0-1.036h.08a13.493,13.493,0,0,1,13.433,13.432.518.518,0,0,1-1.035,0Z" transform="translate(-1107.421 -251.457)"/>
        </g>
        <path id="Path_84" data-name="Path 84" d="M1124.614,260.666h-8.266l-.172-.171-.05-8.265.172-.174h.05a8.477,8.477,0,0,1,8.439,8.438Z" transform="translate(-1115.781 -215.398)"/>
        <path id="Path_85" data-name="Path 85" d="M1085.187,283.272c1.963,1.161,1.648,4.594,1.1,7.1-.067.3-.138.589-.205.854.251-.1.528-.207.813-.3,2.42-.844,5.8-1.575,7.184.234.5-3.2-2.474-3.941-6.52-1.6C1089.4,285.255,1088.3,282.393,1085.187,283.272Z" transform="translate(-1067.278 -263.874)"/>
      </g>
    </g>
    <g id="Group_34-2" data-name="Group 34" transform="translate(15.516 95.742)">
      <g id="Group_31-2" data-name="Group 31" transform="translate(0 0)">
        <g id="Group_28-2" data-name="Group 28" transform="translate(0.738 12.377)">
          <path id="Path_77-2" data-name="Path 77" d="M1107.469,296.82a2.632,2.632,0,0,0-.547-.693,3,3,0,0,0-1.939-.765,1.983,1.983,0,0,0-1.733.789,1.332,1.332,0,0,0-.051,1.112,1.224,1.224,0,0,0,.535.541c.443.231.8.043,1.24.137,1.5.322.707,1.347.206,1.618a2.217,2.217,0,0,1-1.141.212c-3.973-.16-2.788-4.551-1.925-6.6.88-2.091,2.322-4.007,2.9-6.215a3.82,3.82,0,0,0-.738-3.641q-.161.192-.32.385c-.06.148-.127.294-.193.44a6.226,6.226,0,0,1,.131,2.374,13.928,13.928,0,0,1-1.656,4.642,20.719,20.719,0,0,0-1.554,3.886,6.721,6.721,0,0,0-.232,3.826,4.127,4.127,0,0,0,4.991,2.354A3.119,3.119,0,0,0,1107.469,296.82Z" transform="translate(-1090.398 -277.312)"/>
          <path id="Path_78-2" data-name="Path 78" d="M1110.345,299.657c.046-.1.093-.209.141-.313C1110.438,299.448,1110.391,299.552,1110.345,299.657Z" transform="translate(-1098.883 -284.094)"/>
          <path id="Path_79-2" data-name="Path 79" d="M1104.611,277.2a3.886,3.886,0,0,0,.8,3.631,3.155,3.155,0,0,0,3.767.706,1.847,1.847,0,0,0-.356-3.148c-.718-.3-1.6-.194-2.227-.645a1.468,1.468,0,0,1-.5-1.639,2.643,2.643,0,0,1,1.173-1.309c3.931-2.47,9.311.532,10.136,4.7.751,3.79-1.944,6.805-4.7,9.429-1.455,1.385-4.774,2.047-5.888-.363-.107-.231-.262-.532-.529-.515a.477.477,0,0,0-.257.121,2.272,2.272,0,0,0-.812,1.859,3.894,3.894,0,0,0,1.171,2.576c.313.3,1.42.663,1.57.976.167.348-.645,1.572-.8,1.9-1.521,3.142-3.632,6.5-2.557,10.213.231.8.977.407,1.3-.044.655-.926,1.669-1.634,2.234-2.605.378.149.709.5,1.127.655a3.635,3.635,0,0,0,1.493.229,3.357,3.357,0,0,0,3.235-2.826c.044-.245-.268-.419-.513-.272-1.484.9-2.442-1.087-2.507-1.949a12.432,12.432,0,0,1,.215-2.957,10.9,10.9,0,0,1,2.49-5.046c2.488-2.413,4.651-5.212,5.47-8.495a7.48,7.48,0,0,0-1.82-7.2,7.881,7.881,0,0,0-2.73-1.678,9.711,9.711,0,0,0-1.531-.429C1109.465,272.369,1105.442,274.057,1104.611,277.2Z" transform="translate(-1104.307 -272.911)"/>
        </g>
        <g id="Group_29-2" data-name="Group 29" transform="translate(12.342 0.137)">
          <path id="Path_80-2" data-name="Path 80" d="M1082.1,275.99a2.625,2.625,0,0,1-.693-.547,3,3,0,0,1-.765-1.94,1.983,1.983,0,0,1,.789-1.733,1.332,1.332,0,0,1,1.112-.051,1.224,1.224,0,0,1,.541.535c.232.443.043.8.137,1.24.322,1.5,1.347.707,1.618.207a2.216,2.216,0,0,0,.212-1.141c-.161-3.973-4.551-2.788-6.6-1.925-2.092.88-4.007,2.322-6.215,2.9a3.821,3.821,0,0,1-3.642-.738l.385-.32c.148-.06.294-.127.44-.193a6.226,6.226,0,0,0,2.374.131,13.921,13.921,0,0,0,4.642-1.656,20.709,20.709,0,0,1,3.887-1.554,6.719,6.719,0,0,1,3.826-.232,4.128,4.128,0,0,1,2.355,4.991A3.12,3.12,0,0,1,1082.1,275.99Z" transform="translate(-1062.589 -258.919)"/>
          <path id="Path_81-2" data-name="Path 81" d="M1083.682,271.562q-.157.069-.313.141C1083.473,271.655,1083.577,271.609,1083.682,271.562Z" transform="translate(-1068.119 -260.1)"/>
          <path id="Path_82-2" data-name="Path 82" d="M1057.021,252a3.886,3.886,0,0,1,3.631.8,3.154,3.154,0,0,1,.706,3.767,1.848,1.848,0,0,1-3.149-.356c-.3-.718-.193-1.6-.645-2.227a1.468,1.468,0,0,0-1.639-.5,2.646,2.646,0,0,0-1.309,1.173c-2.47,3.931.532,9.311,4.7,10.136,3.79.751,6.806-1.944,9.429-4.7,1.386-1.455,2.047-4.774-.363-5.887-.232-.107-.532-.262-.514-.529a.471.471,0,0,1,.12-.257,2.273,2.273,0,0,1,1.859-.812,3.893,3.893,0,0,1,2.576,1.171c.3.313.663,1.42.976,1.57.347.167,1.572-.645,1.9-.8,3.142-1.521,6.5-3.632,10.212-2.557.8.231.407.977-.043,1.3-.926.655-1.634,1.669-2.606,2.234.149.378.5.709.655,1.127a3.647,3.647,0,0,1,.23,1.493,3.358,3.358,0,0,1-2.826,3.235c-.245.044-.419-.268-.272-.513.9-1.484-1.087-2.442-1.949-2.507a12.432,12.432,0,0,0-2.957.215,10.9,10.9,0,0,0-5.046,2.491c-2.413,2.488-5.213,4.651-8.495,5.47a7.481,7.481,0,0,1-7.2-1.82,7.87,7.87,0,0,1-1.678-2.73,9.582,9.582,0,0,1-.429-1.531C1052.194,256.852,1053.881,252.83,1057.021,252Z" transform="translate(-1052.736 -251.694)"/>
        </g>
        <g id="Group_30-2" data-name="Group 30">
          <path id="Path_83-2" data-name="Path 83" d="M1120.414,251.974a12.459,12.459,0,0,1-12.4,12.4h-.075a.518.518,0,1,0,0,1.036h.08a13.493,13.493,0,0,0,13.433-13.432.518.518,0,0,0-1.035,0Z" transform="translate(-1107.421 -251.457)"/>
        </g>
        <path id="Path_84-2" data-name="Path 84" d="M1124.614,252.055h-8.266l-.172.171-.05,8.265.172.174h.05a8.477,8.477,0,0,0,8.439-8.438Z" transform="translate(-1115.781 -251.71)"/>
        <path id="Path_85-2" data-name="Path 85" d="M1085.187,291.065c1.963-1.161,1.648-4.594,1.1-7.1-.067-.3-.138-.589-.205-.854.251.1.528.207.813.3,2.42.844,5.8,1.575,7.184-.234.5,3.2-2.474,3.941-6.52,1.6C1089.4,289.082,1088.3,291.944,1085.187,291.065Z" transform="translate(-1067.278 -264.85)"/>
      </g>
    </g>
    <g id="Group_49" data-name="Group 49" transform="translate(-1097.935 -191.056)">
      <g id="Group_47" data-name="Group 47" transform="translate(1105.935 355.062)">
        <path id="Path_99" data-name="Path 99" d="M1110.073,387.481l-4.138-2.7,4.138-2.7a2.246,2.246,0,0,1,2.781.263l2.511,2.441-2.511,2.441A2.247,2.247,0,0,1,1110.073,387.481Z" transform="translate(-1105.935 -367.36)" fill="#232221"/>
        <path id="Path_100" data-name="Path 100" d="M1124.356,382.073l4.138,2.7-4.138,2.7a2.247,2.247,0,0,1-2.781-.263l-2.51-2.441,2.51-2.441A2.246,2.246,0,0,1,1124.356,382.073Z" transform="translate(-1109.633 -367.36)" fill="#232221"/>
        <path id="Path_101" data-name="Path 101" d="M1112.5,369.4l3.969-3.858-2.069-2a.937.937,0,0,1,.141-1.508,3.061,3.061,0,0,0,4.866,0h0a.937.937,0,0,1,.141,1.508l-2.069,2,3.969,3.858a2.743,2.743,0,0,1,.259,3.673l-4.733,6.075-4.734-6.075A2.744,2.744,0,0,1,1112.5,369.4Z" transform="translate(-1107.548 -361.732)" fill="#232221"/>
        <path id="Path_102" data-name="Path 102" d="M1116.978,401.9a1.516,1.516,0,0,1-2.574,1.062.936.936,0,0,1,.141-1.507l2.2-1.612-4.237-4.12a2.745,2.745,0,0,1-.259-3.673l4.734-6.075,4.733,6.075a2.744,2.744,0,0,1-.259,3.673l-4.237,4.12,2.2,1.612a.936.936,0,0,1,.141,1.507A1.516,1.516,0,0,1,1116.978,401.9Z" transform="translate(-1107.548 -368.562)" fill="#232221"/>
      </g>
      <path id="Path_103" data-name="Path 103" d="M1118.6,338.056a1.189,1.189,0,0,1,1.188,1.189v66.47a1.188,1.188,0,0,1-2.377,0v-66.47A1.189,1.189,0,0,1,1118.6,338.056Z" transform="translate(-3.232)" fill="#232221"/>
    </g>
  </g>
</svg>
