<svg xmlns="http://www.w3.org/2000/svg" xmlns:xlink="http://www.w3.org/1999/xlink" width="581.72" height="112.307" viewBox="0 0 581.72 112.307">
  <defs>
    <linearGradient id="linear-gradient" y1="0.495" x2="1" y2="0.495" gradientUnits="objectBoundingBox">
      <stop offset="0" stop-color="#fff16c"/>
      <stop offset="1" stop-color="#c7a40f"/>
    </linearGradient>
    <linearGradient id="linear-gradient-2" x1="0" y1="0.5" x2="1" y2="0.5" xlink:href="#linear-gradient"/>
    <linearGradient id="linear-gradient-3" x1="0" y1="0.5" x2="1.001" y2="0.5" xlink:href="#linear-gradient"/>
    <linearGradient id="linear-gradient-4" x1="0.001" y1="0.5" x2="0.995" y2="0.5" xlink:href="#linear-gradient"/>
    <linearGradient id="linear-gradient-5" x1="-0.005" y1="0.5" x2="0.995" y2="0.5" xlink:href="#linear-gradient"/>
    <linearGradient id="linear-gradient-6" x1="0" y1="0.499" x2="1" y2="0.499" xlink:href="#linear-gradient"/>
    <linearGradient id="linear-gradient-8" x1="0" y1="0.499" x2="0.999" y2="0.499" xlink:href="#linear-gradient"/>
    <linearGradient id="linear-gradient-9" x1="-0.001" y1="0.5" x2="1" y2="0.5" xlink:href="#linear-gradient"/>
    <linearGradient id="linear-gradient-10" x1="0" y1="0.5" x2="0.999" y2="0.5" xlink:href="#linear-gradient"/>
    <linearGradient id="linear-gradient-11" x1="0.003" y1="0.5" x2="1.002" y2="0.5" xlink:href="#linear-gradient"/>
    <linearGradient id="linear-gradient-12" x1="0" y1="0.499" x2="1" y2="0.499" xlink:href="#linear-gradient"/>
  </defs>
  <g id="Group_19" data-name="Group 19" transform="translate(-1.29 -413.85)">
    <g id="Group_16" data-name="Group 16">
      <g id="Group_15" data-name="Group 15">
        <path id="Path_38" data-name="Path 38" d="M440.69,1086.59h2.84c1.82,0,4.46,0,7.72.06,6.53.14,15.49.78,25.32.92,2.46.08,4.86,0,7.17,0a63.115,63.115,0,0,0,6.61-.4,107.846,107.846,0,0,0,11.16-1.79c1.58-.33,3-.7,4.24-1s2.31-.64,3.18-.91l2.68-.91-2.52,1.32c-.82.4-1.85.83-3,1.36a43.4,43.4,0,0,1-4.16,1.52,76.3,76.3,0,0,1-11.21,2.79,55.527,55.527,0,0,1-6.83.75c-2.36.08-4.81.2-7.31.12a208.815,208.815,0,0,1-25.39-2.35Z" transform="translate(-257.62 -622.94)" fill="url(#linear-gradient)"/>
        <path id="Path_39" data-name="Path 39" d="M362.08,1136.82a22.21,22.21,0,0,0,3.63,5,24,24,0,0,0,4.2,3.39,25.766,25.766,0,0,0,4.41,2.24l1.14.42a5.839,5.839,0,0,0,.59.19l.6.18c.4.13.8.21,1.21.3l.6.14.61.1a24.332,24.332,0,0,0,4.8.3,30.786,30.786,0,0,0,4.64-.49,36.48,36.48,0,0,0,12.36-4.84c.61-.37,1.19-.78,1.78-1.18.29-.2.57-.42.85-.63s.57-.42.83-.65l.81-.67c.27-.23.52-.47.78-.71l.38-.35.37-.36.73-.74.69-.76.34-.39.32-.4c.22-.26.43-.53.64-.79s.4-.55.59-.83a9.42,9.42,0,0,0,.56-.84c.18-.28.36-.56.53-.85.32-.59.66-1.15.93-1.76a21.99,21.99,0,0,0,1.36-3.67l.21-.93.11-.47.07-.47c.05-.32.09-.63.14-.94a9.805,9.805,0,0,0,.07-1v-1.86c0-.31-.05-.62-.08-.92v-.46a3.107,3.107,0,0,0-.08-.44,5.354,5.354,0,0,0-.16-.89c-.05-.29-.15-.58-.23-.87l-.11-.43-.15-.41c-.1-.28-.2-.55-.29-.83l-.36-.79c-.06-.13-.11-.26-.18-.39l-.2-.37c-.14-.25-.27-.5-.41-.74l-.45-.69-.23-.35-.25-.32-.5-.64-.53-.6-.27-.29-.28-.27-.57-.54c-.19-.17-.39-.32-.59-.48a11.4,11.4,0,0,0-1.21-.89,15,15,0,0,0-5.09-2.14,13.883,13.883,0,0,0-4.77-.18,13,13,0,0,0-3.82,1.12l-.4.19-.37.2-.7.4c-.43.3-.84.57-1.19.84l-.95.81-.29.3a5.45,5.45,0,1,0,2.75-.5l.36-.18.68-.28.35-.14a1.331,1.331,0,0,0,.37-.12,12,12,0,0,1,3.4-.65,12.488,12.488,0,0,1,4,.47,12.862,12.862,0,0,1,4.13,2c.32.26.66.5,1,.79a5.011,5.011,0,0,1,.47.43c.15.15.29.31.44.47l.22.23.21.26c.14.16.28.33.41.5l.38.55.2.27c.06.1.11.2.17.29l.34.59c.1.2.2.41.31.61l.15.31a3.018,3.018,0,0,0,.13.32l.25.65.21.68.11.34.07.35c.06.23.11.47.16.7l.1.72a.9.9,0,0,0,.05.36v2.62l-.08.76a5.194,5.194,0,0,1-.14.77l-.07.38-.11.38-.2.77a22.56,22.56,0,0,1-8.08,11c-.24.2-.49.38-.75.56s-.5.38-.76.55c-.53.34-1.05.7-1.61,1a31.031,31.031,0,0,1-3.43,1.8,32.374,32.374,0,0,1-7.59,2.36,27.085,27.085,0,0,1-4,.39,19.986,19.986,0,0,1-4-.28l-.5-.08-.48-.11a9.848,9.848,0,0,1-1-.25l-.48-.14-.48-.16-1-.37a22.131,22.131,0,0,1-3.7-1.87,20.129,20.129,0,0,1-3.45-2.78,18.259,18.259,0,0,1-3-4,20,20,0,0,1-2-5.23c-.13-.48-.19-1-.28-1.47s-.12-1-.18-1.52a25.246,25.246,0,0,1,1.15-9.76,27.686,27.686,0,0,1,1.27-3.3c.27-.54.51-1.09.82-1.62.14-.26.28-.54.44-.8l.48-.78c.15-.27.33-.52.5-.78s.35-.51.53-.77l1.18-1.56c.2-.26.39-.53.59-.78l.63-.76.63-.76c.21-.26.42-.52.65-.76.45-.49.89-1,1.35-1.47s.95-1,1.42-1.42,1-.93,1.5-1.37l.76-.68c.26-.22.54-.42.8-.64l.81-.63c.27-.21.54-.42.83-.61l1.71-1.19,1.79-1.09c.3-.19.62-.35.93-.52l.93-.51a65.57,65.57,0,0,1,8-3.52c.68-.27,1.39-.5,2.09-.75l1.06-.36,1.06-.35,2.15-.68,2.18-.65q1.08-.33,2.19-.63l2.2-.61,2.2-.55,1.11-.27c.36-.09.74-.16,1.11-.24l2.23-.45c.75-.15,1.51-.26,2.26-.39,1.5-.27,3-.43,4.54-.64.76-.1,1.53-.16,2.29-.24s1.53-.17,2.29-.21c1.54-.11,3.07-.23,4.61-.29,3.07-.16,6.14-.19,9.21-.21s6.12,0,9.15.13,6.05.17,9,.26,5.95.16,8.85.22c5.81.15,11.48.37,16.93.31,2.72,0,5.39-.15,8-.34s5.12-.51,7.54-.91a52.306,52.306,0,0,0,13.14-4,29.786,29.786,0,0,0,5.22-3.08,14.56,14.56,0,0,0,3.76-4,8.64,8.64,0,0,0,1-2.32,8.151,8.151,0,0,0,.24-2.32,2.126,2.126,0,0,0-.05-.56,5.354,5.354,0,0,1-.09-.53,6.9,6.9,0,0,0-.25-1,8.25,8.25,0,0,0-.84-1.74,6.9,6.9,0,0,0-2.3-2.25,4,4,0,0,0-2.3-.57,3.37,3.37,0,0,0-1.39.44,2.091,2.091,0,0,0-.31.2l-.09.08a3.158,3.158,0,0,0,.45-.2,3.722,3.722,0,0,1,1.35-.31,3.781,3.781,0,0,1,2.12.64,6.769,6.769,0,0,1,2.07,2.22,7.86,7.86,0,0,1,.73,1.66,6.634,6.634,0,0,1,.2,1,1.458,1.458,0,0,0,.06.5v.51a7.52,7.52,0,0,1-.29,2.12,8,8,0,0,1-1,2.1,13.76,13.76,0,0,1-3.65,3.65,29.14,29.14,0,0,1-5.13,2.84,51.381,51.381,0,0,1-12.91,3.59c-2.39.33-4.86.6-7.42.73s-5.19.18-7.88.15c-5.39-.05-11-.39-16.85-.66-2.92-.12-5.86-.25-8.84-.4s-6-.3-9-.43-6.12-.24-9.22-.3-6.21-.06-9.34.05c-1.57,0-3.13.12-4.7.21-.79,0-1.57.11-2.35.17s-1.57.11-2.35.21c-1.56.18-3.13.33-4.69.58-.77.12-1.55.22-2.33.36l-2.32.43-1.16.22-1.15.27-2.29.53-2.24.58c-.75.2-1.5.39-2.24.61l-2.23.62-2.21.67-1.1.33-1.09.37c-.73.24-1.46.47-2.18.74a67.987,67.987,0,0,0-8.42,3.58l-1,.53c-.34.17-.67.34-1,.54l-1.95,1.16-1.87,1.25c-.31.2-.61.43-.91.66l-.89.67c-.29.23-.6.44-.88.68l-.84.72c-.56.48-1.12,1-1.64,1.47s-1.06,1-1.56,1.51l-1.47,1.57c-.25.26-.47.53-.7.8s-.46.53-.68.8l-.68.81c-.23.26-.43.54-.65.82l-1.26,1.63c-.2.28-.4.58-.61.86a10.273,10.273,0,0,0-.58.88l-.56.88c-.18.3-.34.61-.51.91-.36.59-.64,1.22-.95,1.83a29.84,29.84,0,0,0-1.49,3.75,33.3,33.3,0,0,0-1,3.8,31.331,31.331,0,0,0-.46,3.79,25.33,25.33,0,0,0,2.83,13.61Z" transform="translate(-257.62 -622.94)" fill="url(#linear-gradient-2)"/>
        <path id="Path_40" data-name="Path 40" d="M475.82,1104.77a1.26,1.26,0,0,1-1-.42,3,3,0,0,1-.72-1.38,6.09,6.09,0,0,1,.95-4.63,10.391,10.391,0,0,1,2.81-2.78,19.45,19.45,0,0,1,4.28-2.19,29.948,29.948,0,0,1,3.84-1.15c1-.22,1.7-.31,1.78-.16s-.4.62-1.17,1.32l-2.9,2.56a26.77,26.77,0,0,0-2.85,3,18.1,18.1,0,0,0-1.5,2.2c-.57.91-1.14,1.65-1.67,2.36a2.84,2.84,0,0,1-1.85,1.27Z" transform="translate(-257.62 -622.94)" fill="url(#linear-gradient-3)"/>
        <path id="Path_41" data-name="Path 41" d="M490.3,1103.48c-.54.19-1.24-.15-1.77-1.06a5.1,5.1,0,0,1-.26-3.93,8.508,8.508,0,0,1,1.64-2.85,16.164,16.164,0,0,1,3-2.71c2.1-1.5,4-2.47,4.21-2.3s-1.11,2-2.41,4a21.919,21.919,0,0,0-1.63,3,13.751,13.751,0,0,0-.72,2.1c-.26.85-.55,1.58-.82,2.26A2.36,2.36,0,0,1,490.3,1103.48Z" transform="translate(-257.62 -622.94)" fill="url(#linear-gradient-4)"/>
        <path id="Path_42" data-name="Path 42" d="M457.27,1106.49a1.41,1.41,0,0,1-1-.54,3.41,3.41,0,0,1-.42-.66,2.85,2.85,0,0,1-.27-.91,6.74,6.74,0,0,1,1.41-5,11.559,11.559,0,0,1,3.32-2.84,21.5,21.5,0,0,1,4.9-2.08,31.741,31.741,0,0,1,4.32-1c1.15-.17,1.9-.21,2,0s-.49.66-1.39,1.37l-3.4,2.6a29.289,29.289,0,0,0-3.37,3,18.585,18.585,0,0,0-1.83,2.31c-.71,1-1.39,1.74-2,2.48A3.17,3.17,0,0,1,457.27,1106.49Z" transform="translate(-257.62 -622.94)" fill="url(#linear-gradient-5)"/>
      </g>
      <path id="Path_43" data-name="Path 43" d="M567.14,1106.25a31.5,31.5,0,0,1-3.25,8.11,37.417,37.417,0,0,1-2.26,3.54c-.41.56-.85,1.09-1.27,1.62a19.972,19.972,0,0,1-1.34,1.54,36.433,36.433,0,0,1-5.88,5.22l-1.57,1.08-1.63,1-.81.47-.83.4-1.66.8-1.69.66-.84.32-.86.25-1.69.5-1.71.35-.84.18-.86.09-1.68.19a11.269,11.269,0,0,0-1.65.08H533.2a34.161,34.161,0,0,1-6.17-.72,26.878,26.878,0,0,1-5.55-1.78A16.67,16.67,0,0,1,517,1127a11.089,11.089,0,0,1-2.77-4.24l-.38-1.14c-.09-.37-.17-.74-.23-1.11a16.68,16.68,0,0,1-.23-2.17,11.9,11.9,0,0,1,1.79-7.17,6.089,6.089,0,0,1,2.25-2,5.932,5.932,0,0,1,2.39-.6,8.445,8.445,0,0,1,1.91.15,4.091,4.091,0,0,1,1.88-.47,4,4,0,1,1-2.19.66,8.257,8.257,0,0,0-1.57,0,5.586,5.586,0,0,0-2.16.73,5.731,5.731,0,0,0-1.86,1.95,11,11,0,0,0-1.13,6.66,10.7,10.7,0,0,0,3.62,7.32,14.645,14.645,0,0,0,4.11,2.39,25.252,25.252,0,0,0,5.12,1.28,32.1,32.1,0,0,0,5.69.3l1.48-.08a10.455,10.455,0,0,0,1.48-.16l1.49-.26.74-.13.74-.2,1.5-.4,1.47-.53.75-.27.73-.33,1.46-.67,1.43-.79.72-.4.7-.46,1.39-.92,1.35-1a32.518,32.518,0,0,0,4.94-4.88,13.669,13.669,0,0,0,1.1-1.41c.34-.48.71-1,1-1.46a32.587,32.587,0,0,0,1.79-3.16,26.661,26.661,0,0,0,2.42-7,23.412,23.412,0,0,0,.37-7.47,24.57,24.57,0,0,0-6.76-13.88,52,52,0,0,0-14-10.38,89.263,89.263,0,0,0-8.44-3.92c-.73-.29-1.47-.59-2.21-.85l-2.24-.77c-.74-.25-1.48-.53-2.24-.75l-2.31-.65a96.726,96.726,0,0,0-19.38-3.16c-13.42-.88-27.52.52-41.85,3-3.59.63-7.13,1.3-10.7,2l-10.64,2.11L431,1072.4l-10.37,1.94c-13.74,2.5-27.12,4.54-40,5.78l-4.79.47-4.75.32c-3.14.19-6.24.44-9.29.53-6.1.24-12,.3-17.78.19a197.5,197.5,0,0,1-31.85-3,111.657,111.657,0,0,1-25.32-7.58,72.127,72.127,0,0,1-9.6-5.09c-1.43-.84-2.71-1.82-4-2.67-.61-.46-1.19-.93-1.76-1.37s-1.13-.87-1.63-1.34a53.819,53.819,0,0,1-5.19-5.06c-.69-.8-1.34-1.51-1.89-2.2l-1.45-1.91a17.683,17.683,0,0,1-1.07-1.55l-.75-1.14-.6-.93.68.87.83,1.08c.33.42.71.92,1.19,1.44s1,1.13,1.59,1.78,1.29,1.29,2,2a57.012,57.012,0,0,0,5.45,4.58c.52.42,1.11.78,1.69,1.18s1.18.81,1.8,1.21c1.29.74,2.58,1.61,4,2.33a73.283,73.283,0,0,0,9.62,4.32,113.327,113.327,0,0,0,25,5.89c1.16.15,2.34.29,3.52.42a77.863,77.863,0,0,0,17.46-2.43,125.721,125.721,0,0,0,16-5.18c5.65-2.2,11.57-4.88,17.78-7.84s12.7-6.21,19.65-9.39c1.75-.78,3.57-1.5,5.37-2.26l2.74-1.14,1.37-.56,1.42-.49,5.7-2,1.44-.5c.48-.16,1-.28,1.47-.42l3-.82,3-.82,1.48-.4c.49-.12,1-.22,1.49-.32l5.92-1.24,1.46-.31,1.48-.21,2.94-.43,2.92-.41,1.44-.2,1.46-.12,5.73-.4,1.42-.1h9.74l5.39.25c.88.06,1.77.06,2.64.16l2.59.27,5.08.56c1.66.23,3.29.53,4.89.8l2.38.4c.79.14,1.57.25,2.33.44l4.51,1c1.47.35,2.93.63,4.32,1.06l4.1,1.18,2,.57,1,.29.95.32,7.14,2.48,6.25,2.52c2,.76,3.72,1.62,5.35,2.37l4.45,2.07c5.24,2.7,8.09,4.24,8.09,4.24l-8.59-3-4.65-1.47c-1.7-.53-3.52-1.16-5.53-1.67l-6.39-1.77-7.22-1.69a170.905,170.905,0,0,0-35.89-4.06h-5.14a22.955,22.955,0,0,0-2.61.1l-2.63.16-2.66.16-1.34.08-1.34.15-5.42.62-1.37.15-1.36.23-2.75.46-2.77.46-1.39.23-1.39.31-5.58,1.24c-.47.11-.94.2-1.41.32l-1.39.39-2.81.78-2.8.77c-.47.13-.94.24-1.4.39l-1.37.46-5.44,1.81-1.35.44-1.32.52-2.63,1c-1.74.69-3.48,1.32-5.19,2-6.87,2.88-13.53,5.86-20,8.5s-12.75,5-18.77,6.79A122.138,122.138,0,0,1,338.4,1076c1.85,0,3.72,0,5.62-.06q8.43-.21,17.43-.89c3-.2,6-.56,9.08-.85l4.63-.46,4.68-.61c12.56-1.61,25.68-3.93,39.27-6.63l20.74-4.24,10.64-2.18c3.58-.73,7.24-1.43,10.92-2.07,14.72-2.54,29.51-3.91,43.87-2.73a101.216,101.216,0,0,1,20.9,3.85l2.5.76c.82.28,1.63.6,2.44.9l2.43.9c.8.31,1.58.65,2.36,1a91.368,91.368,0,0,1,9,4.51,57.848,57.848,0,0,1,15.43,12.32,33.843,33.843,0,0,1,5.28,8.26,28.17,28.17,0,0,1,2.36,9.36A28.91,28.91,0,0,1,567.14,1106.25Z" transform="translate(-257.62 -622.94)" fill="url(#linear-gradient-6)"/>
    </g>
    <g id="Group_18" data-name="Group 18">
      <g id="Group_17" data-name="Group 17">
        <path id="Path_44" data-name="Path 44" d="M658.86,1086.59h-2.83c-1.82,0-4.46,0-7.72.06-6.53.14-15.5.78-25.32.92-2.46.08-4.86,0-7.18,0a62.754,62.754,0,0,1-6.6-.4,107.846,107.846,0,0,1-11.16-1.79c-1.58-.33-3-.7-4.25-1s-2.3-.64-3.17-.91l-2.68-.91,2.51,1.32c.83.4,1.86.83,3.06,1.36s2.6,1,4.15,1.52a77,77,0,0,0,11.21,2.79,55.907,55.907,0,0,0,6.84.75c2.36.08,4.8.2,7.31.12a208.816,208.816,0,0,0,25.39-2.35Z" transform="translate(-257.62 -622.94)" fill="url(#linear-gradient)"/>
        <path id="Path_45" data-name="Path 45" d="M737.48,1136.82a22.531,22.531,0,0,1-3.63,5,24.413,24.413,0,0,1-4.2,3.39,26.127,26.127,0,0,1-4.41,2.24l-1.15.42a4.889,4.889,0,0,1-.58.19l-.6.18c-.4.13-.81.21-1.21.3l-.6.14-.61.1a24.333,24.333,0,0,1-4.8.3,30.934,30.934,0,0,1-4.65-.49,35.371,35.371,0,0,1-8.53-2.77,33.314,33.314,0,0,1-3.82-2.07c-.61-.37-1.2-.78-1.78-1.18-.29-.2-.57-.42-.85-.63s-.57-.42-.84-.65l-.81-.67-.77-.71-.39-.35-.36-.36-.73-.74-.69-.76-.34-.39-.33-.4-.63-.79c-.2-.28-.4-.55-.59-.83a7.652,7.652,0,0,1-.56-.84c-.18-.28-.37-.56-.54-.85-.31-.59-.66-1.15-.92-1.76a21.99,21.99,0,0,1-1.36-3.67c-.07-.31-.14-.62-.22-.93l-.1-.47-.07-.47a7.336,7.336,0,0,0-.14-.94c-.04-.31,0-.63-.07-1v-1.86l.09-.92v-.46a.843.843,0,0,1,.08-.44c.05-.3.11-.6.16-.89s.15-.58.23-.87l.11-.43.15-.41.29-.83c.12-.26.24-.52.35-.79l.18-.39.21-.37.4-.74.46-.69.23-.35.25-.32c.16-.22.33-.43.49-.64l.54-.6.27-.29.28-.27.56-.54.59-.48a13.93,13.93,0,0,1,1.21-.89,15.121,15.121,0,0,1,5.1-2.14,13.877,13.877,0,0,1,4.77-.18,12.94,12.94,0,0,1,3.81,1.12l.4.19.38.2.7.4c.43.3.84.57,1.19.84l.94.81.29.3a5.45,5.45,0,1,1-2.74-.5l-.37-.18-.67-.28-.35-.14a1.331,1.331,0,0,1-.37-.12,12.085,12.085,0,0,0-3.4-.65,12.432,12.432,0,0,0-4,.47,12.761,12.761,0,0,0-4.13,2c-.33.26-.66.5-1,.79l-.46.43-.44.47-.23.23-.2.26-.42.5-.38.55-.19.27c-.06.1-.11.2-.17.29s-.23.39-.35.59l-.3.61-.15.31c0,.11-.09.22-.13.32l-.26.65-.2.68-.11.34-.08.35-.15.7-.1.72v2.98l.08.76c.05.26.09.51.14.77l.07.38.1.38.21.77a22.561,22.561,0,0,0,8.08,11c.23.2.49.38.74.56s.51.38.77.55c.53.34,1.05.7,1.61,1a31.008,31.008,0,0,0,3.43,1.8,32.374,32.374,0,0,0,7.59,2.36,27.035,27.035,0,0,0,4,.39,19.986,19.986,0,0,0,4-.28l.5-.08.48-.11a9.849,9.849,0,0,0,1-.25l.48-.14.48-.16,1-.37a22.519,22.519,0,0,0,3.7-1.87,20.129,20.129,0,0,0,3.45-2.78,18.266,18.266,0,0,0,3-4,20,20,0,0,0,1.95-5.23c.13-.48.19-1,.28-1.47s.12-1,.18-1.52a23.857,23.857,0,0,0,0-3.17,24.8,24.8,0,0,0-.37-3.27,28.717,28.717,0,0,0-.82-3.32,29.5,29.5,0,0,0-1.27-3.3c-.27-.54-.51-1.09-.82-1.62-.15-.26-.28-.54-.44-.8l-.48-.78c-.16-.27-.33-.52-.51-.78s-.34-.51-.53-.77l-1.17-1.56c-.2-.26-.39-.53-.6-.78l-.62-.76-.63-.76c-.21-.26-.42-.52-.65-.76l-1.35-1.47c-.46-.49-.95-1-1.42-1.42s-1-.93-1.5-1.37l-.76-.68c-.26-.22-.54-.42-.81-.64l-.81-.63c-.26-.21-.54-.42-.82-.61l-1.72-1.19-1.79-1.09c-.29-.19-.61-.35-.92-.52l-.93-.51a65.584,65.584,0,0,0-7.95-3.52c-.69-.27-1.39-.5-2.09-.75l-1.06-.36-1.07-.35-2.14-.68-2.18-.65q-1.08-.33-2.19-.63l-2.2-.61-2.21-.55-1.1-.27c-.37-.09-.74-.16-1.11-.24L687,1085c-.74-.15-1.5-.26-2.25-.39-1.5-.27-3-.43-4.54-.64-.76-.1-1.53-.16-2.29-.24s-1.53-.17-2.3-.21c-1.53-.11-3.06-.23-4.6-.29-3.07-.16-6.15-.19-9.21-.21s-6.12,0-9.16.13-6,.17-9,.26-6,.16-8.85.22c-5.81.15-11.48.37-16.93.31-2.72,0-5.39-.15-8-.34s-5.12-.51-7.55-.91a52.358,52.358,0,0,1-13.13-4,29.875,29.875,0,0,1-5.23-3.08,14.521,14.521,0,0,1-3.75-4,8.642,8.642,0,0,1-1-2.32A8.153,8.153,0,0,1,579,1067v-.56a4.882,4.882,0,0,1,.09-.53,5.841,5.841,0,0,1,.25-1,8.248,8.248,0,0,1,.84-1.74,6.81,6.81,0,0,1,2.3-2.25,3.93,3.93,0,0,1,2.3-.57,3.42,3.42,0,0,1,1.39.44,2.113,2.113,0,0,1,.31.2l.09.08a2.659,2.659,0,0,1-.45-.2,3.721,3.721,0,0,0-1.35-.31,3.781,3.781,0,0,0-2.12.64,6.572,6.572,0,0,0-2.07,2.22,7.378,7.378,0,0,0-.73,1.66,5.5,5.5,0,0,0-.2,1,3.992,3.992,0,0,0-.06.5v.51a7.881,7.881,0,0,0,.28,2.12,8,8,0,0,0,1,2.1,13.861,13.861,0,0,0,3.64,3.65,29.5,29.5,0,0,0,5.13,2.84,51.463,51.463,0,0,0,12.92,3.59c2.39.33,4.86.6,7.42.73s5.19.18,7.88.15c5.39-.05,11-.39,16.85-.66,2.92-.12,5.85-.25,8.84-.4s6-.3,9-.43,6.12-.24,9.22-.3,6.21-.06,9.34.05c1.57,0,3.13.12,4.7.21.78,0,1.57.11,2.35.17s1.57.11,2.35.21c1.56.18,3.13.33,4.68.58.78.12,1.56.22,2.34.36l2.32.43,1.15.22,1.15.27,2.3.53,2.24.58c.75.2,1.5.39,2.24.61l2.22.62,2.21.67,1.11.33,1.09.37c.73.24,1.46.47,2.18.74a68,68,0,0,1,8.42,3.58l1,.53c.33.17.67.34,1,.54l2,1.16,1.88,1.25c.31.2.61.43.9.66l.89.67c.3.23.6.44.88.68l.84.72c.57.48,1.13,1,1.65,1.47s1.06,1,1.56,1.51l1.47,1.57c.25.26.47.53.7.8s.46.53.68.8l.68.81c.23.26.43.54.64.82.43.54.85,1.09,1.26,1.63.21.28.41.58.61.86s.41.58.59.88l.56.88c.18.3.34.61.51.91.35.59.64,1.22,1,1.83a30.392,30.392,0,0,1,3,11.34A25.42,25.42,0,0,1,737.48,1136.82Z" transform="translate(-257.62 -622.94)" fill="url(#linear-gradient-8)"/>
        <path id="Path_46" data-name="Path 46" d="M623.73,1104.77a1.241,1.241,0,0,0,1-.42,2.78,2.78,0,0,0,.72-1.38,6,6,0,0,0-.94-4.63,10.392,10.392,0,0,0-2.81-2.78,19.518,19.518,0,0,0-4.29-2.19,28.984,28.984,0,0,0-3.84-1.15c-1-.22-1.69-.31-1.77-.16s.4.62,1.17,1.32l2.9,2.56a26.774,26.774,0,0,1,2.85,3,18.086,18.086,0,0,1,1.5,2.2c.57.91,1.14,1.65,1.67,2.36A2.83,2.83,0,0,0,623.73,1104.77Z" transform="translate(-257.62 -622.94)" fill="url(#linear-gradient-9)"/>
        <path id="Path_47" data-name="Path 47" d="M609.26,1103.48c.54.19,1.24-.15,1.76-1.06a5.09,5.09,0,0,0,.27-3.93,8.391,8.391,0,0,0-1.65-2.85,16.1,16.1,0,0,0-2.95-2.71c-2.1-1.5-4-2.47-4.21-2.3s1.1,2,2.4,4a23.183,23.183,0,0,1,1.64,3,15.014,15.014,0,0,1,.72,2.1c.25.85.54,1.58.81,2.26A2.38,2.38,0,0,0,609.26,1103.48Z" transform="translate(-257.62 -622.94)" fill="url(#linear-gradient-10)"/>
        <path id="Path_48" data-name="Path 48" d="M642.29,1106.49a1.43,1.43,0,0,0,1.05-.54,3,3,0,0,0,.41-.66,2.419,2.419,0,0,0,.27-.91,6.691,6.691,0,0,0-1.41-5,11.421,11.421,0,0,0-3.32-2.84,21.412,21.412,0,0,0-4.89-2.08,32.215,32.215,0,0,0-4.33-1c-1.14-.17-1.89-.21-2,0s.48.66,1.39,1.37l3.4,2.6a30.152,30.152,0,0,1,3.37,3,18.58,18.58,0,0,1,1.83,2.31c.7,1,1.38,1.74,2,2.48A3.13,3.13,0,0,0,642.29,1106.49Z" transform="translate(-257.62 -622.94)" fill="url(#linear-gradient-11)"/>
      </g>
      <path id="Path_49" data-name="Path 49" d="M532.42,1106.25a31.505,31.505,0,0,0,3.25,8.11,37.428,37.428,0,0,0,2.26,3.54c.41.56.85,1.09,1.27,1.62a16.422,16.422,0,0,0,1.34,1.54,36.436,36.436,0,0,0,5.88,5.22l1.57,1.08,1.63,1,.8.47.84.4,1.66.8,1.69.66c.28.1.55.22.84.32l.85.25,1.7.5,1.71.35.84.18.85.09,1.69.19a11.406,11.406,0,0,1,1.65.08h1.62a34.173,34.173,0,0,0,6.17-.72,26.587,26.587,0,0,0,5.54-1.78,16.568,16.568,0,0,0,4.54-3.07,11.2,11.2,0,0,0,2.77-4.24c.13-.39.25-.77.38-1.14a6.26,6.26,0,0,0,.23-1.11,16.673,16.673,0,0,0,.23-2.17,12,12,0,0,0-1.79-7.17,6.25,6.25,0,0,0-2.25-2,5.931,5.931,0,0,0-2.39-.6,8.4,8.4,0,0,0-1.91.15,4.1,4.1,0,0,0-1.89-.47,4,4,0,1,0,2.2.66,8.267,8.267,0,0,1,1.57,0,5.5,5.5,0,0,1,2.15.73,5.658,5.658,0,0,1,1.87,1.95,11,11,0,0,1,1.13,6.66,10.7,10.7,0,0,1-3.62,7.32,14.569,14.569,0,0,1-4.12,2.39,25,25,0,0,1-5.11,1.28,32.174,32.174,0,0,1-5.69.3l-1.48-.08a10.758,10.758,0,0,1-1.49-.16l-1.48-.26-.74-.13-.74-.2-1.5-.4-1.48-.53-.74-.27c-.25-.1-.49-.22-.73-.33l-1.47-.67-1.43-.79-.72-.4-.69-.46-1.4-.92-1.34-1a32.571,32.571,0,0,1-5-4.88,15.116,15.116,0,0,1-1.09-1.41c-.35-.48-.71-1-1-1.46a34.9,34.9,0,0,1-1.8-3.16,27,27,0,0,1-2.41-7,23.711,23.711,0,0,1-.38-7.47,24.651,24.651,0,0,1,6.77-13.88,52.079,52.079,0,0,1,14-10.38,89.4,89.4,0,0,1,8.45-3.92c.73-.29,1.47-.59,2.21-.85l2.23-.77c.75-.25,1.49-.53,2.25-.75l2.31-.65a96.734,96.734,0,0,1,19.37-3.16c13.43-.88,27.53.52,41.86,3,3.59.63,7.13,1.3,10.69,2l10.64,2.11,10.51,2.05,10.38,1.94c13.74,2.5,27.12,4.54,40,5.78l4.79.47,4.74.32c3.14.19,6.24.44,9.29.53q9.16.36,17.79.19a197.5,197.5,0,0,0,31.85-3A111.652,111.652,0,0,0,812.7,1071a71.342,71.342,0,0,0,9.59-5.09c1.44-.84,2.71-1.82,4-2.67.61-.46,1.19-.93,1.76-1.37s1.13-.87,1.63-1.34a53.847,53.847,0,0,0,5.19-5.06c.68-.8,1.34-1.51,1.89-2.2l1.45-1.91a17.676,17.676,0,0,0,1.07-1.55c.3-.45.55-.84.74-1.14l.61-.93-.68.87-.84,1.08c-.33.42-.7.92-1.19,1.44l-1.58,1.78c-.59.64-1.3,1.29-2,2a55.983,55.983,0,0,1-5.46,4.58c-.52.42-1.1.78-1.68,1.18s-1.18.81-1.8,1.21c-1.29.74-2.58,1.61-4,2.33a73.124,73.124,0,0,1-9.61,4.32,113.413,113.413,0,0,1-25,5.89c-1.15.15-2.33.29-3.52.42a77.868,77.868,0,0,1-17.45-2.43,125.186,125.186,0,0,1-16-5.18c-5.65-2.2-11.57-4.88-17.78-7.84s-12.7-6.21-19.65-9.39c-1.75-.78-3.57-1.5-5.38-2.26l-2.73-1.14-1.38-.56-1.41-.49-5.7-2-1.44-.5c-.49-.16-1-.28-1.47-.42l-3-.82-3-.82-1.48-.4c-.49-.12-1-.22-1.49-.32l-5.92-1.24-1.47-.31-1.47-.21-2.94-.43-2.92-.41-1.45-.2-1.45-.12-5.74-.46-1.42-.1h-9.74L644,1037c-.89.06-1.77.06-2.64.16l-2.59.27-5.08.56c-1.66.23-3.29.53-4.89.8l-2.38.4c-.79.14-1.57.25-2.34.44l-4.51,1c-1.47.35-2.92.63-4.31,1.06l-4.11,1.18-2,.57-1,.29-1,.32-7.15,2.48-6.24,2.52c-2,.76-3.72,1.62-5.35,2.37l-4.45,2.07c-5.24,2.7-8.1,4.24-8.1,4.24l8.6-3,4.65-1.47c1.7-.53,3.52-1.16,5.53-1.67l6.39-1.77,7.21-1.69a171.092,171.092,0,0,1,35.9-4.06h5.14a22.694,22.694,0,0,1,2.6.1l2.64.16,2.66.16,1.34.08,1.34.15,5.42.62,1.36.15,1.37.23,2.75.46,2.77.46,1.39.23,1.38.31,5.59,1.24c.47.11.94.2,1.41.32l1.39.39,2.81.78,2.8.77c.47.13.94.24,1.4.39l1.37.46,5.44,1.81,1.35.44,1.32.52,2.62,1c1.75.69,3.48,1.32,5.2,2,6.87,2.88,13.53,5.86,20,8.5s12.75,5,18.76,6.79a122.238,122.238,0,0,0,13.27,3.26c-1.85,0-3.72,0-5.62-.06q-8.44-.21-17.43-.89c-3-.2-6-.56-9.09-.85l-4.62-.46-4.68-.61c-12.56-1.61-25.68-3.93-39.27-6.63l-20.75-4.24L649.06,1060c-3.57-.73-7.23-1.43-10.91-2.07-14.72-2.54-29.51-3.91-43.87-2.73a101.1,101.1,0,0,0-20.9,3.85l-2.5.76c-.82.28-1.63.6-2.44.9l-2.43.9c-.8.31-1.58.65-2.36,1a91.564,91.564,0,0,0-9,4.51,58,58,0,0,0-15.42,12.32,33.841,33.841,0,0,0-5.28,8.26,27.932,27.932,0,0,0-2.36,9.36,28.909,28.909,0,0,0,.83,9.19Z" transform="translate(-257.62 -622.94)" fill="url(#linear-gradient-12)"/>
    </g>
  </g>
</svg>
