<svg xmlns="http://www.w3.org/2000/svg" xmlns:xlink="http://www.w3.org/1999/xlink" width="368.63" height="45.992" viewBox="0 0 368.63 45.992">
  <defs>
    <linearGradient id="linear-gradient" y1="0.5" x2="1" y2="0.5" gradientUnits="objectBoundingBox">
      <stop offset="0" stop-color="#fff16c"/>
      <stop offset="1" stop-color="#c7a40f"/>
    </linearGradient>
    <linearGradient id="linear-gradient-2" x1="-0.016" y1="0.5" x2="0.98" y2="0.5" xlink:href="#linear-gradient"/>
    <linearGradient id="linear-gradient-3" x1="0" y1="0.502" x2="1" y2="0.502" xlink:href="#linear-gradient"/>
    <linearGradient id="linear-gradient-4" x1="0" y1="0.5" x2="1" y2="0.5" xlink:href="#linear-gradient"/>
    <linearGradient id="linear-gradient-5" x1="-0.006" y1="0.498" x2="0.994" y2="0.498" xlink:href="#linear-gradient"/>
    <linearGradient id="linear-gradient-6" x1="0" y1="0.522" x2="1" y2="0.522" xlink:href="#linear-gradient"/>
    <linearGradient id="linear-gradient-7" x1="0" y1="0.494" x2="1" y2="0.494" xlink:href="#linear-gradient"/>
    <linearGradient id="linear-gradient-8" x1="0" y1="0.5" x2="0.998" y2="0.5" xlink:href="#linear-gradient"/>
    <linearGradient id="linear-gradient-9" x1="0" y1="0.5" x2="1" y2="0.5" xlink:href="#linear-gradient"/>
    <linearGradient id="linear-gradient-11" x1="0" y1="0.498" x2="1" y2="0.498" xlink:href="#linear-gradient"/>
  </defs>
  <g id="Group_8" data-name="Group 8" transform="translate(-108.9 -374.068)">
    <g id="Group_4" data-name="Group 4">
      <g id="Group_3" data-name="Group 3">
        <path id="Path_9" data-name="Path 9" d="M735.15,1001.13s-1.71-9.24-13.33.06C721.82,1001.19,732.78,1010.58,735.15,1001.13Zm-2.68.06a.44.44,0,0,1-.44.44.45.45,0,1,1,.44-.44Zm-7.77,0s.75-2.78,6.08,0c0-.01-4.97,2.81-6.08.01Z" transform="translate(-257.62 -622.94)" fill="url(#linear-gradient)"/>
        <path id="Path_10" data-name="Path 10" d="M721,1002.46a1.23,1.23,0,0,1-1.23-1.22h0A1.21,1.21,0,0,1,721,1000h0a1.23,1.23,0,0,1,1.23,1.22h0a1.24,1.24,0,0,1-1.22,1.23Z" transform="translate(-257.62 -622.94)" fill="url(#linear-gradient-2)"/>
        <path id="Path_11" data-name="Path 11" d="M711.55,1002.49a1.21,1.21,0,0,1-1.23-1.22h0a1.23,1.23,0,0,1,1.22-1.23h0a1.24,1.24,0,0,1,1.23,1.22h0a1.23,1.23,0,0,1-1.22,1.23Z" transform="translate(-257.62 -622.94)" fill="url(#linear-gradient-3)"/>
        <path id="Path_12" data-name="Path 12" d="M716.25,1004.5s4.19-3.25,4.15-3.27-4.18-3.23-4.18-3.23c-.49,1.07-4.18,3.26-4.17,3.27S715.75,1003.44,716.25,1004.5Z" transform="translate(-257.62 -622.94)" fill="url(#linear-gradient-4)"/>
        <path id="Path_13" data-name="Path 13" d="M607,1001.22c-7.57-6.06-8.68,0-8.68,0C599.81,1007.34,607,1001.22,607,1001.22Zm-6.65-.29a.29.29,0,0,1,.29.29.28.28,0,0,1-.29.28.29.29,0,1,1,0-.57Zm.81.28c3.47-1.8,4,0,4,0-.81,1.86-4.05,0-4.05,0Z" transform="translate(-257.62 -622.94)" fill="url(#linear-gradient-5)"/>
        <path id="Path_14" data-name="Path 14" d="M607.51,1002a.79.79,0,0,0,.8-.79h0a.8.8,0,0,0-.8-.8h0a.8.8,0,0,0-.8.79h0A.8.8,0,0,0,607.51,1002Z" transform="translate(-257.62 -622.94)" fill="url(#linear-gradient-6)"/>
      </g>
      <rect id="Rectangle_1" data-name="Rectangle 1" width="103.23" height="0.87" transform="translate(350.69 377.9)" fill="url(#linear-gradient-7)"/>
    </g>
    <g id="Group_5" data-name="Group 5">
      <path id="Path_15" data-name="Path 15" d="M551.1,1043l-.25-.15a2.328,2.328,0,0,1-.29-.19,3.2,3.2,0,0,1-.36-.32,3.691,3.691,0,0,1-.75-1.11,5.648,5.648,0,0,1-.45-1.77,13.511,13.511,0,0,1,.56-5,19.284,19.284,0,0,1,1.09-2.94,12.007,12.007,0,0,1,.82-1.48l1-1.55a62.783,62.783,0,0,1,4.74-6.59,29.315,29.315,0,0,1,3.14-3.17,17.527,17.527,0,0,1,1.84-1.4,16.417,16.417,0,0,1,2.05-1.16,14.173,14.173,0,0,1,2.23-.83c.39-.11.79-.19,1.18-.27a9.4,9.4,0,0,1,1.23-.15,17.885,17.885,0,0,1,5.06.14,10.551,10.551,0,0,1,2.42.72,6.588,6.588,0,0,1,2.07,1.34,4.371,4.371,0,0,1,1.24,2,3.21,3.21,0,0,1-.17,2.22,1.66,1.66,0,0,1-.18.35c-.07.11-.13.23-.21.34a4.319,4.319,0,0,1-.54.6,6.09,6.09,0,0,1-1.36,1,10.188,10.188,0,0,1-3.34.94,19,19,0,0,1-3.54,0,15.005,15.005,0,0,1-3.35-.76,38.512,38.512,0,0,1-6.17-2.84c-1.94-1.08-3.77-2.22-5.51-3.34-3.48-2.25-6.61-4.42-9.39-6.3s-5.21-3.5-7.21-4.77-4.33-3-7.24-4.75a49.8,49.8,0,0,0-4.8-2.51,24.486,24.486,0,0,0-5.8-1.85,13.544,13.544,0,0,0-3.33-.18,9.7,9.7,0,0,0-3.43.9c-.27.12-.53.29-.8.43a7.443,7.443,0,0,0-.77.52,6.737,6.737,0,0,0-.72.6,5,5,0,0,0-.67.77,3.881,3.881,0,0,0-.73,2,4.859,4.859,0,0,0,.31,2.08,9,9,0,0,0,2.28,3.24,12.281,12.281,0,0,0,3.28,2.21,17.288,17.288,0,0,0,1.84.75c.32.11.64.18,1,.28l.48.13.49.11,1,.19,1,.14.5.07h.5l1,.07a50.7,50.7,0,0,0,11.29-.94c.9-.16,1.78-.33,2.65-.51l.66-.13.68-.17c.45-.13.88-.27,1.3-.42,1.68-.6,3.24-1.3,4.76-2,3-1.41,5.83-2.83,8.48-4.1s5.14-2.41,7.45-3.35a48.888,48.888,0,0,1,6.36-2.16,17.521,17.521,0,0,1,5-.62,6.861,6.861,0,0,1,3.07.78,2.937,2.937,0,0,1,.41.25,1.992,1.992,0,0,1,.29.2l.22.18-.21-.19c-.07-.07-.16-.14-.27-.23a3.877,3.877,0,0,0-.4-.28,7.21,7.21,0,0,0-3.09-1,17.681,17.681,0,0,0-5.14.36,46.6,46.6,0,0,0-6.54,1.89c-2.38.84-4.93,1.9-7.64,3.09s-5.56,2.51-8.59,3.84c-1.51.65-3.06,1.32-4.66,1.85-.4.14-.8.25-1.2.36l-.6.14-.64.12c-.87.16-1.74.32-2.63.46a51.86,51.86,0,0,1-10.92.85l-.94-.07h-.47l-.47-.06-.92-.12-.9-.18-.45-.09-.44-.12-.87-.25a14.9,14.9,0,0,1-1.65-.66,10.636,10.636,0,0,1-2.88-1.89,7.42,7.42,0,0,1-1.92-2.61,3.351,3.351,0,0,1-.25-1.4,2.39,2.39,0,0,1,.44-1.25,2.929,2.929,0,0,1,.45-.55c.18-.17.4-.34.59-.51a4.891,4.891,0,0,1,.64-.45,6.4,6.4,0,0,1,.67-.38,10,10,0,0,1,5.93-.77,23.82,23.82,0,0,1,5.58,1.58,51.217,51.217,0,0,1,4.8,2.26c3,1.57,5.42,3.11,7.42,4.37s4.27,3.1,7,5.11,5.73,4.29,9.17,6.66c1.72,1.19,3.54,2.39,5.49,3.55a38.9,38.9,0,0,0,6.38,3.09,16.821,16.821,0,0,0,3.7.89,20.08,20.08,0,0,0,3.88,0,11.529,11.529,0,0,0,3.93-1.1,7.4,7.4,0,0,0,1.78-1.24,5.925,5.925,0,0,0,.74-.84c.11-.16.21-.32.31-.49a3.052,3.052,0,0,0,.26-.51,5,5,0,0,0,.25-3.36,6.059,6.059,0,0,0-1.72-2.74,8.309,8.309,0,0,0-2.57-1.64,12,12,0,0,0-2.8-.81,19.688,19.688,0,0,0-5.52-.07,7.9,7.9,0,0,0-1.34.2,9.657,9.657,0,0,0-1.31.33,15.532,15.532,0,0,0-2.46,1,19.875,19.875,0,0,0-2.19,1.32,22.762,22.762,0,0,0-1.92,1.55,28.008,28.008,0,0,0-3.18,3.41,58.983,58.983,0,0,0-4.57,6.9l-.93,1.58a13.293,13.293,0,0,0-.79,1.61,19.806,19.806,0,0,0-1,3.08,13.74,13.74,0,0,0-.3,5.15,6,6,0,0,0,.58,1.8,3.713,3.713,0,0,0,.84,1.09,2.937,2.937,0,0,0,.39.3l.3.18Z" transform="translate(-257.62 -622.94)" fill="url(#linear-gradient-8)"/>
      <path id="Path_16" data-name="Path 16" d="M551.13,1043l.26-.13a1.7,1.7,0,0,0,.3-.18,2.408,2.408,0,0,0,.39-.3,3.708,3.708,0,0,0,.84-1.09,6,6,0,0,0,.58-1.8,13.74,13.74,0,0,0-.3-5.15,19.805,19.805,0,0,0-1-3.08,13.282,13.282,0,0,0-.79-1.61l-.93-1.58a58.993,58.993,0,0,0-4.57-6.9,27.929,27.929,0,0,0-3.17-3.41,24.685,24.685,0,0,0-1.93-1.55,19.861,19.861,0,0,0-2.19-1.32,15.179,15.179,0,0,0-2.46-1,13.2,13.2,0,0,0-1.31-.33c-.44-.08-.89-.16-1.34-.2a19.61,19.61,0,0,0-5.51.07,12,12,0,0,0-2.81.81,8.309,8.309,0,0,0-2.57,1.64,6,6,0,0,0-1.71,2.74,4.94,4.94,0,0,0,.24,3.36,3.062,3.062,0,0,0,.26.51c.1.17.2.33.31.49a6,6,0,0,0,.75.84,7.351,7.351,0,0,0,1.77,1.24,11.531,11.531,0,0,0,3.93,1.1,20.08,20.08,0,0,0,3.88,0,16.823,16.823,0,0,0,3.7-.89,38.913,38.913,0,0,0,6.38-3.09c2-1.16,3.77-2.36,5.49-3.55,3.44-2.37,6.48-4.66,9.17-6.66s5-3.74,7-5.11a79.341,79.341,0,0,1,7.42-4.37,52.466,52.466,0,0,1,4.8-2.26,23.82,23.82,0,0,1,5.58-1.58,9.939,9.939,0,0,1,5.93.77,5.5,5.5,0,0,1,.67.38c.22.14.43.3.64.45a5.849,5.849,0,0,1,.59.51,3.433,3.433,0,0,1,.46.55,2.47,2.47,0,0,1,.43,1.25,3.349,3.349,0,0,1-.25,1.4,7.51,7.51,0,0,1-1.91,2.61,10.8,10.8,0,0,1-2.88,1.89,15.93,15.93,0,0,1-1.66.66l-.87.25-.44.12-.45.09-.9.18-.92.12-.46.06h-.47l-.94.07a52,52,0,0,1-10.93-.85c-.88-.14-1.76-.3-2.62-.46l-.65-.12-.59-.14c-.41-.11-.81-.22-1.21-.36-1.59-.53-3.15-1.2-4.66-1.85-3-1.33-5.88-2.66-8.59-3.84s-5.26-2.25-7.63-3.09a47.092,47.092,0,0,0-6.55-1.89,17.663,17.663,0,0,0-5.14-.36,7.2,7.2,0,0,0-3.08,1c-.16.1-.29.2-.4.28a2.674,2.674,0,0,0-.28.23l-.21.19.23-.18a1.864,1.864,0,0,1,.28-.2,2.944,2.944,0,0,1,.41-.25,6.86,6.86,0,0,1,3.07-.78,17.524,17.524,0,0,1,5,.62,48.373,48.373,0,0,1,6.36,2.16c2.31.94,4.8,2.08,7.45,3.35s5.47,2.69,8.48,4.1c1.52.7,3.08,1.4,4.76,2,.42.15.85.29,1.3.42l.68.17.66.13c.87.18,1.76.35,2.65.51a50.738,50.738,0,0,0,11.3.94l1-.07h.49l.5-.07,1-.14,1-.19.49-.11.48-.13c.32-.1.64-.17,1-.28A18.369,18.369,0,0,0,586,1010a12.39,12.39,0,0,0,3.27-2.21,9,9,0,0,0,2.28-3.24,4.859,4.859,0,0,0,.32-2.08,4,4,0,0,0-.74-2,4.518,4.518,0,0,0-.67-.77c-.24-.22-.48-.4-.72-.6a6.4,6.4,0,0,0-.76-.52,6.277,6.277,0,0,0-.81-.43,9.638,9.638,0,0,0-3.43-.9,13.553,13.553,0,0,0-3.33.18,24.631,24.631,0,0,0-5.8,1.85,48.421,48.421,0,0,0-4.79,2.51c-2.91,1.71-5.31,3.38-7.25,4.75s-4.43,2.88-7.21,4.77-5.9,4.05-9.38,6.3c-1.74,1.12-3.58,2.26-5.52,3.34a38.108,38.108,0,0,1-6.17,2.84,15,15,0,0,1-3.35.76,18.935,18.935,0,0,1-3.53,0,10.238,10.238,0,0,1-3.35-.94,6.086,6.086,0,0,1-1.36-1,4.312,4.312,0,0,1-.54-.6c-.08-.11-.14-.23-.21-.34a1.661,1.661,0,0,1-.18-.35,3.33,3.33,0,0,1-.17-2.22,4.459,4.459,0,0,1,1.24-2,6.711,6.711,0,0,1,2.07-1.34,10.55,10.55,0,0,1,2.42-.72,18,18,0,0,1,5.07-.14,8.135,8.135,0,0,1,1.22.15,9.585,9.585,0,0,1,1.18.27,14.174,14.174,0,0,1,2.23.83,16.419,16.419,0,0,1,2,1.16c.64.44,1.26.91,1.84,1.4a28.435,28.435,0,0,1,3.14,3.17,60.017,60.017,0,0,1,4.74,6.59c.34.53.67,1,1,1.55a11.912,11.912,0,0,1,.81,1.48,17.368,17.368,0,0,1,1.09,2.94,13.3,13.3,0,0,1,.56,5,5.65,5.65,0,0,1-.45,1.77,3.691,3.691,0,0,1-.75,1.11,2.506,2.506,0,0,1-.36.32,2.347,2.347,0,0,1-.29.19Z" transform="translate(-257.62 -622.94)" fill="url(#linear-gradient-9)"/>
    </g>
    <g id="Group_7" data-name="Group 7">
      <g id="Group_6" data-name="Group 6">
        <path id="Path_17" data-name="Path 17" d="M379.85,1001.19c-11.63-9.3-13.33-.06-13.33-.06C368.89,1010.58,379.85,1001.19,379.85,1001.19Zm-10.21-.45a.45.45,0,1,1-.45.45.45.45,0,0,1,.45-.45Zm1.24.44c5.34-2.76,6.09,0,6.09,0C375.86,1004,370.88,1001.18,370.88,1001.18Z" transform="translate(-257.62 -622.94)" fill="url(#linear-gradient)"/>
        <path id="Path_18" data-name="Path 18" d="M380.71,1002.46a1.23,1.23,0,0,0,1.23-1.22h0a1.22,1.22,0,0,0-1.22-1.23h0a1.21,1.21,0,0,0-1.23,1.22h0a1.23,1.23,0,0,0,1.22,1.23Z" transform="translate(-257.62 -622.94)" fill="url(#linear-gradient-11)"/>
        <path id="Path_19" data-name="Path 19" d="M390.12,1002.49a1.21,1.21,0,0,0,1.23-1.22h0a1.23,1.23,0,0,0-1.22-1.23h0a1.23,1.23,0,0,0-1.23,1.22h0a1.22,1.22,0,0,0,1.22,1.23Z" transform="translate(-257.62 -622.94)" fill="url(#linear-gradient-3)"/>
        <path id="Path_20" data-name="Path 20" d="M385.42,1004.5s-4.19-3.25-4.15-3.27,4.18-3.23,4.18-3.23c.48,1.07,4.17,3.26,4.17,3.27S385.92,1003.44,385.42,1004.5Z" transform="translate(-257.62 -622.94)" fill="url(#linear-gradient-4)"/>
        <path id="Path_21" data-name="Path 21" d="M503.4,1001.18s-1.11-6-8.68,0C494.72,1001.22,501.85,1007.34,503.4,1001.18Zm-1.74,0a.29.29,0,0,1-.29.29.28.28,0,0,1-.29-.28.29.29,0,0,1,.58,0Zm-5.07,0s.49-1.82,4,0c-.03.03-3.27,1.89-4,.05Z" transform="translate(-257.62 -622.94)" fill="url(#linear-gradient-4)"/>
        <path id="Path_22" data-name="Path 22" d="M494.16,1002a.79.79,0,0,1-.8-.79h0a.79.79,0,0,1,.79-.8h0a.79.79,0,0,1,.8.79h0a.79.79,0,0,1-.79.8Z" transform="translate(-257.62 -622.94)" fill="url(#linear-gradient-6)"/>
      </g>
      <rect id="Rectangle_2" data-name="Rectangle 2" width="103.23" height="0.87" transform="translate(132.5 377.9)" fill="url(#linear-gradient-7)"/>
    </g>
  </g>
</svg>
