<svg xmlns="http://www.w3.org/2000/svg" xmlns:xlink="http://www.w3.org/1999/xlink" width="40.412" height="32.483" viewBox="0 0 40.412 32.483">
  <defs>
    <linearGradient id="linear-gradient" x1="0.041" y1="0.5" x2="1.007" y2="0.5" gradientUnits="objectBoundingBox">
      <stop offset="0" stop-color="#fff16c"/>
      <stop offset="1" stop-color="#c7a40f"/>
    </linearGradient>
    <linearGradient id="linear-gradient-2" x1="-0.014" y1="0.5" x2="0.953" y2="0.5" xlink:href="#linear-gradient"/>
    <linearGradient id="linear-gradient-3" x1="0.02" y1="0.5" x2="0.98" y2="0.5" xlink:href="#linear-gradient"/>
    <linearGradient id="linear-gradient-4" x1="0.014" y1="0.5" x2="0.98" y2="0.5" xlink:href="#linear-gradient"/>
    <linearGradient id="linear-gradient-5" x1="0.013" y1="0.5" x2="0.98" y2="0.5" xlink:href="#linear-gradient"/>
    <linearGradient id="linear-gradient-6" x1="0.02" y1="0.5" x2="0.986" y2="0.5" xlink:href="#linear-gradient"/>
    <linearGradient id="linear-gradient-7" x1="0.02" y1="0.5" x2="0.986" y2="0.5" xlink:href="#linear-gradient"/>
    <linearGradient id="linear-gradient-11" x1="-0.001" y1="0.499" x2="0.999" y2="0.499" xlink:href="#linear-gradient"/>
    <linearGradient id="linear-gradient-12" x1="-0.001" y1="0.501" x2="1" y2="0.501" xlink:href="#linear-gradient"/>
  </defs>
  <g id="Group_25" data-name="Group 25" transform="translate(-386.94 -168.388)">
    <path id="Path_70" data-name="Path 70" d="M664,808.39a.74.74,0,1,1,.74-.74A.74.74,0,0,1,664,808.39Z" transform="translate(-257.62 -622.94)" fill="url(#linear-gradient)"/>
    <path id="Path_71" data-name="Path 71" d="M662,808.39a.74.74,0,1,1,.74-.74A.74.74,0,0,1,662,808.39Z" transform="translate(-257.62 -622.94)" fill="url(#linear-gradient-2)"/>
    <path id="Path_72" data-name="Path 72" d="M659.87,808.39a.74.74,0,1,1,.74-.74.74.74,0,0,1-.74.74Z" transform="translate(-257.62 -622.94)" fill="url(#linear-gradient-3)"/>
    <path id="Path_73" data-name="Path 73" d="M657.79,808.39a.74.74,0,1,1,.74-.74A.74.74,0,0,1,657.79,808.39Z" transform="translate(-257.62 -622.94)" fill="url(#linear-gradient-4)"/>
    <path id="Path_74" data-name="Path 74" d="M655.71,808.39a.74.74,0,1,1,.74-.74.74.74,0,0,1-.74.74Z" transform="translate(-257.62 -622.94)" fill="url(#linear-gradient-5)"/>
    <path id="Path_75" data-name="Path 75" d="M653.62,808.39a.74.74,0,1,1,.74-.74A.74.74,0,0,1,653.62,808.39Z" transform="translate(-257.62 -622.94)" fill="url(#linear-gradient-6)"/>
    <path id="Path_76" data-name="Path 76" d="M651.54,808.39a.74.74,0,1,1,.74-.74.74.74,0,0,1-.74.74Z" transform="translate(-257.62 -622.94)" fill="url(#linear-gradient-7)"/>
    <path id="Path_77" data-name="Path 77" d="M649.46,808.39a.74.74,0,1,1,.74-.74A.74.74,0,0,1,649.46,808.39Z" transform="translate(-257.62 -622.94)" fill="url(#linear-gradient-3)"/>
    <path id="Path_78" data-name="Path 78" d="M647.38,808.39a.74.74,0,1,1,.74-.74.74.74,0,0,1-.74.74Z" transform="translate(-257.62 -622.94)" fill="url(#linear-gradient-5)"/>
    <path id="Path_79" data-name="Path 79" d="M645.3,808.39a.74.74,0,1,1,.74-.74A.74.74,0,0,1,645.3,808.39Z" transform="translate(-257.62 -622.94)" fill="url(#linear-gradient-5)"/>
    <g id="Group_24" data-name="Group 24">
      <path id="Path_80" data-name="Path 80" d="M666.52,807.15a38.421,38.421,0,0,0,8.7-.53,11.65,11.65,0,0,0,6.52-3.1,8.82,8.82,0,0,0,2.3-5.88,5.37,5.37,0,0,0-3.74-5,6.43,6.43,0,0,0-6.54,1.24,4.15,4.15,0,0,0,.93,6.53c2.26,1.32,6.46-.4,5-3.41a2.46,2.46,0,0,0-3.43-1,1.44,1.44,0,0,0-.32,2.22c.76.92,2.76.19,1.83-1-.35-.47.44-.92.79-.46,1.26,1.65-.83,3.43-2.51,2.65a2.37,2.37,0,0,1,0-4.29,3.36,3.36,0,0,1,4.61,1.75,3.52,3.52,0,0,1-2.16,4.56,5,5,0,0,1-6.36-6.82,6.23,6.23,0,0,1,4.9-3.22,7.66,7.66,0,0,1,5.81,1.66c3.54,2.82,2.13,8.18-.44,11.12-1.6,1.81-4,2.65-6.28,3.2a35.908,35.908,0,0,1-9.59.69c-.59,0-.59-.94,0-.91Z" transform="translate(-257.62 -622.94)" fill="url(#linear-gradient-11)"/>
      <path id="Path_81" data-name="Path 81" d="M666.52,807.12a40.158,40.158,0,0,1,8.62.49,14.07,14.07,0,0,1,6.38,2.57c2.84,2.28,4.4,6.81,2.76,10.19-1.88,3.85-7.48,4.4-10.65,2-3.47-2.6-2-8.48,2.36-9,2.13-.24,4.5.86,4.87,3.15a3.4,3.4,0,0,1-3.73,3.81c-2.14-.3-3.4-2.68-1.63-4.29,1.56-1.43,4.53.39,3.06,2.32-.35.46-1.14,0-.79-.46.84-1.09-.61-1.71-1.5-1.29a1.42,1.42,0,0,0-.34,2.2c1,1.17,2.86.6,3.62-.46a2.47,2.47,0,0,0-.71-3.44,4,4,0,0,0-3.91-.31,4.14,4.14,0,0,0-1.36,6.44c1.62,1.89,4.5,2.19,6.73,1.45,4.88-1.63,4.34-7.42,1.6-10.71-1.58-1.91-4-2.7-6.36-3.22a35.409,35.409,0,0,0-9-.59.455.455,0,0,1,0-.91Z" transform="translate(-257.62 -622.94)" fill="url(#linear-gradient-12)"/>
    </g>
  </g>
</svg>
