<svg xmlns="http://www.w3.org/2000/svg" xmlns:xlink="http://www.w3.org/1999/xlink" width="60.909" height="351.275" viewBox="0 0 60.909 351.275">
  <defs>
    <linearGradient id="linear-gradient" y1="0.5" x2="1" y2="0.5" gradientUnits="objectBoundingBox">
      <stop offset="0" stop-color="#fff16c"/>
      <stop offset="1" stop-color="#c7a40f"/>
    </linearGradient>
    <linearGradient id="linear-gradient-2" x1="-0.001" y1="0.5" x2="0.999" y2="0.5" xlink:href="#linear-gradient"/>
    <linearGradient id="linear-gradient-3" x1="0" y1="0.5" x2="1" y2="0.5" xlink:href="#linear-gradient"/>
    <linearGradient id="linear-gradient-4" x1="-0.001" y1="0.502" x2="1" y2="0.502" xlink:href="#linear-gradient"/>
    <linearGradient id="linear-gradient-5" x1="0" y1="0.5" x2="1" y2="0.5" xlink:href="#linear-gradient"/>
    <linearGradient id="linear-gradient-6" x1="-0.003" y1="0.5" x2="0.998" y2="0.5" xlink:href="#linear-gradient"/>
    <linearGradient id="linear-gradient-7" x1="0" y1="0.5" x2="1" y2="0.5" xlink:href="#linear-gradient"/>
    <linearGradient id="linear-gradient-8" x1="0.001" y1="0.5" x2="0.999" y2="0.5" xlink:href="#linear-gradient"/>
  </defs>
  <g id="Group_21" data-name="Group 21" transform="translate(0.029 -87.67)">
    <g id="Group_20" data-name="Group 20">
      <path id="Path_50" data-name="Path 50" d="M278.83,864.66a1.64,1.64,0,0,0-1.12-.9,3.41,3.41,0,0,0-2.22.28,5.72,5.72,0,0,0-2.5,2.35,7.13,7.13,0,0,0-.93,4.08,8.409,8.409,0,0,0,.61,2.62,10.25,10.25,0,0,0,1.76,2.89,11.769,11.769,0,0,0,2.75,2.36,13.281,13.281,0,0,0,3.2,1.46,15.425,15.425,0,0,0,3.1.54h1.35a10.488,10.488,0,0,0,1.18-.09l.95-.17a5.811,5.811,0,0,0,.72-.21c.38-.13.6-.26.6-.36s-.21-.23-.58-.38l-1.49-.6-1-.41-1-.53a14.921,14.921,0,0,1-2.09-1.36,11.353,11.353,0,0,1-1.72-1.75,8.2,8.2,0,0,1-1.1-1.84,6.087,6.087,0,0,1-.44-1.57,1.649,1.649,0,0,1,0-.31,1.269,1.269,0,0,1,0-.27v-.24a1.339,1.339,0,0,0,0-.2c0-.48-.05-.87-.07-1.26a8.218,8.218,0,0,1,0-1.29C278.83,866.58,279.2,865.53,278.83,864.66Z" transform="translate(-257.62 -622.94)" fill="url(#linear-gradient)"/>
      <path id="Path_51" data-name="Path 51" d="M271,879.17c5.89,2.63,14.17,3.38,15.27,3.47.07,0,.12,0,.12.09l2.86,2.56a.84.84,0,0,1,0,1.26l-2.89,2.53s-.05.09-.12.09a54.48,54.48,0,0,0-15.31,3.3c-.05,0-9.41-5.29-11.37-6.48a.26.26,0,0,1,0-.47C261.49,884.35,270.92,879.14,271,879.17Z" transform="translate(-257.62 -622.94)" fill="url(#linear-gradient-2)"/>
      <path id="Path_52" data-name="Path 52" d="M278.59,907.4a1.62,1.62,0,0,1-1.13.89,3.45,3.45,0,0,1-2.22-.31,5.691,5.691,0,0,1-2.47-2.38,7.15,7.15,0,0,1-.88-4.09,8.218,8.218,0,0,1,.64-2.61,10.19,10.19,0,0,1,1.79-2.87,12,12,0,0,1,2.77-2.33,13.641,13.641,0,0,1,3.22-1.42,15.373,15.373,0,0,1,3.1-.51h1.36a8.312,8.312,0,0,1,1.17.11l.95.18c.28.07.52.15.72.22.38.14.59.26.59.37s-.21.22-.58.37l-1.49.58c-.31.12-.63.27-1,.41a9.2,9.2,0,0,0-1.05.51,15.168,15.168,0,0,0-2.1,1.34,11.418,11.418,0,0,0-1.75,1.72,8.507,8.507,0,0,0-1.12,1.83,6.8,6.8,0,0,0-.46,1.57,1.76,1.76,0,0,0,0,.31c0,.09,0,.19,0,.27a1.926,1.926,0,0,1,0,.24,1.152,1.152,0,0,1,0,.19c0,.49-.06.88-.08,1.27a7.924,7.924,0,0,0,0,1.28C278.61,905.48,279,906.54,278.59,907.4Z" transform="translate(-257.62 -622.94)" fill="url(#linear-gradient-3)"/>
    </g>
    <path id="Path_53" data-name="Path 53" d="M318.5,886.08l-6.68,3.11h0a37.324,37.324,0,0,0-6.39-3L305,886l.42-.12a36.495,36.495,0,0,0,6.42-3h0Z" transform="translate(-257.62 -622.94)" fill="url(#linear-gradient-4)"/>
    <path id="Path_54" data-name="Path 54" d="M292.81,714.94a11.357,11.357,0,0,0-2.72-.61,14,14,0,0,0-3.35,0,15.94,15.94,0,0,0-7.43,3.22,31.882,31.882,0,0,0-6.79,7.33,57.291,57.291,0,0,0-5.36,9.78,67.047,67.047,0,0,0-3.67,10.92,77.651,77.651,0,0,0-1.88,11.16,99.882,99.882,0,0,0,.18,19.59c.42,2.7,1,5.72,1.74,9s1.69,6.64,2.79,10.16a157.081,157.081,0,0,0,8.6,21.38c1.7,3.48,3.5,6.84,5.34,10l1.39,2.34c.45.75.93,1.49,1.4,2.22l2.81,4.29c3.63,5.55,6.6,10.38,8.52,13.77a124.575,124.575,0,0,1,6.69,13.39,49.17,49.17,0,0,1,3.52,11.88,18.558,18.558,0,0,1,.09,4.91,11.549,11.549,0,0,1-.45,2,7.929,7.929,0,0,1-.74,1.6,5.19,5.19,0,0,1-1.64,1.77c-.47.28-.76.35-.83.25s.64-1,1.19-2.62a14.457,14.457,0,0,0-.16-7.47,59.683,59.683,0,0,0-4.07-11c-1.88-4.05-4.21-8.41-6.78-12.93-1.89-3.33-4.73-8.15-8.21-13.75-.87-1.41-1.78-2.87-2.7-4.38-.47-.76-.94-1.53-1.4-2.35l-1.35-2.43c-1.78-3.28-3.5-6.77-5.11-10.36a151.178,151.178,0,0,1-7.93-22c-1-3.61-1.76-7.12-2.39-10.41s-1-6.37-1.32-9.11a96.671,96.671,0,0,1-1.08-19.86,80.752,80.752,0,0,1,1.49-11.53,69.63,69.63,0,0,1,3.41-11.47,59,59,0,0,1,5.32-10.45,40.662,40.662,0,0,1,3.39-4.52,27.757,27.757,0,0,1,3.91-3.77,19.28,19.28,0,0,1,9-4.08,17.439,17.439,0,0,1,4.24-.11,15.406,15.406,0,0,1,3.54.77,16.13,16.13,0,0,1,7,4.81,17,17,0,0,1,2.25,3.36,18.2,18.2,0,0,1,1.35,3.61,14.668,14.668,0,0,1,.47,3.7,11.94,11.94,0,0,1-.57,3.55,9.72,9.72,0,0,1-3.88,5.13,7.6,7.6,0,0,1-2.68,1.11,5.221,5.221,0,0,1-2.72-.14,3.61,3.61,0,0,1-1.94-1.56,4.311,4.311,0,0,1-.43-1l-.08-.46a2.184,2.184,0,0,1,0-.43,5.491,5.491,0,0,1,.11-1.42,6.27,6.27,0,0,1,.29-1c.23-.49.4-.72.53-.69s.18.32.2.82c0,.25.05.55.06.9a7.257,7.257,0,0,0,.21,1.12,1.081,1.081,0,0,0,.11.3l.11.29a3,3,0,0,0,.36.5,1.84,1.84,0,0,0,1.09.6,4.42,4.42,0,0,0,3.34-1.12,7.29,7.29,0,0,0,2.47-3.9,9.37,9.37,0,0,0,.26-2.63,11.809,11.809,0,0,0-.51-2.85,15.5,15.5,0,0,0-1.19-2.88,14.269,14.269,0,0,0-1.86-2.63,13,13,0,0,0-5.55-3.61Z" transform="translate(-257.62 -622.94)" fill="url(#linear-gradient-5)"/>
    <path id="Path_55" data-name="Path 55" d="M261.11,778.33s-.39,1.58-1.06,4.45c-.14.73-.29,1.53-.46,2.41s-.37,1.85-.49,2.89-.3,2.16-.46,3.34-.21,2.45-.33,3.77v2c0,.69-.05,1.4-.07,2.13s0,1.47,0,2.23,0,1.52.06,2.31a6.848,6.848,0,0,0,.07,1.19c.07.4.06.8.1,1.2.06.81.12,1.64.21,2.47s.23,1.68.35,2.53c.06.43.12.86.19,1.29s.16.87.24,1.3c.18.87.36,1.76.54,2.65.08.45.21.89.33,1.33l.36,1.34c.12.45.24.9.37,1.36l.18.68.23.68.92,2.73.24.69.27.67c.19.46.38.91.56,1.37l.57,1.37.29.69.32.68,1.33,2.72.34.68.38.67.75,1.33.77,1.34c.13.22.24.44.38.66l.42.64c.55.84,1.1,1.69,1.65,2.52l.41.63.45.59.88,1.19c.59.79,1.17,1.58,1.76,2.33,2.39,3,4.77,5.73,7,8.38s4.22,5.2,6,7.66a64,64,0,0,1,4.47,7.12,37.43,37.43,0,0,1,4.05,11.47c.22,1.44.32,2.57.36,3.34v1.18a7.763,7.763,0,0,1,.13-1.17,28.524,28.524,0,0,0,.11-3.41,31.858,31.858,0,0,0-.65-5.39c-.21-1.05-.51-2.15-.85-3.31a33.432,33.432,0,0,0-1.3-3.59,57.152,57.152,0,0,0-4-7.81c-1.61-2.69-3.51-5.45-5.59-8.27s-4.34-5.68-6.58-8.66c-.55-.74-1.07-1.51-1.62-2.27l-.82-1.15-.41-.57-.38-.61-1.6-2.32-.39-.61c-.13-.21-.24-.42-.36-.63l-.72-1.27-.72-1.26-.36-.63c-.12-.21-.22-.43-.33-.64l-1.29-2.56-.32-.63-.28-.65-.56-1.29c-.19-.43-.38-.85-.56-1.28l-.28-.63-.24-.65c-.33-.85-.65-1.71-1-2.55l-.24-.63-.21-.64c-.13-.43-.27-.85-.4-1.27s-.27-.84-.4-1.26-.27-.83-.37-1.25c-.22-.84-.43-1.67-.65-2.49a85,85,0,0,1-2.43-17.91c0-1.3-.05-2.53-.07-3.71s.06-2.27.08-3.31.08-2,.13-2.89l.15-2.43C261,780,261.11,778.33,261.11,778.33Z" transform="translate(-257.62 -622.94)" fill="url(#linear-gradient-6)"/>
    <path id="Path_56" data-name="Path 56" d="M292.5,1061.09a14.563,14.563,0,0,1-3.55.73,17.551,17.551,0,0,1-4.24-.15,19.211,19.211,0,0,1-8.93-4.18,28.519,28.519,0,0,1-3.88-3.82,39.827,39.827,0,0,1-3.33-4.56,58.611,58.611,0,0,1-5.19-10.5,69,69,0,0,1-3.28-11.51,79.11,79.11,0,0,1-1.36-11.54,97.158,97.158,0,0,1,1.31-19.85c.31-2.74.78-5.81,1.42-9.09s1.48-6.78,2.5-10.38a150.773,150.773,0,0,1,8.16-21.92c1.65-3.58,3.41-7,5.23-10.31l1.37-2.41c.47-.82.95-1.58,1.42-2.34l2.75-4.34c3.54-5.57,6.43-10.35,8.36-13.67,2.62-4.49,5-8.82,6.93-12.85a60.4,60.4,0,0,0,4.19-10.94c.79-3.19.81-5.82.24-7.47s-1.36-2.41-1.17-2.64.37,0,.84.27a5.33,5.33,0,0,1,1.62,1.78,8,8,0,0,1,.72,1.61,10.749,10.749,0,0,1,.42,2,18.359,18.359,0,0,1-.14,4.92,48.86,48.86,0,0,1-3.66,11.84,122.418,122.418,0,0,1-6.84,13.31c-2,3.36-5,8.17-8.66,13.67L282.9,941c-.49.73-1,1.47-1.43,2.21l-1.41,2.32c-1.87,3.15-3.71,6.5-5.45,10a158.313,158.313,0,0,0-8.83,21.28c-1.14,3.51-2.11,6.93-2.9,10.14s-1.39,6.23-1.84,8.92a100.612,100.612,0,0,0-.4,19.59,78.871,78.871,0,0,0,1.75,11.17,68.46,68.46,0,0,0,3.54,11,58.519,58.519,0,0,0,5.25,9.83,31.359,31.359,0,0,0,6.7,7.4,15.881,15.881,0,0,0,7.39,3.31,13.573,13.573,0,0,0,3.35.08,11.613,11.613,0,0,0,2.73-.58,13,13,0,0,0,5.54-3.64,14,14,0,0,0,1.89-2.61,15.184,15.184,0,0,0,1.22-2.86,11.909,11.909,0,0,0,.54-2.85,9.061,9.061,0,0,0-.23-2.63,7.209,7.209,0,0,0-2.43-3.93,4.411,4.411,0,0,0-3.32-1.15,1.849,1.849,0,0,0-1.1.58,3.509,3.509,0,0,0-.36.5l-.12.29a1.082,1.082,0,0,0-.11.3,7.353,7.353,0,0,0-.22,1.12c0,.34-.07.65-.07.9,0,.49-.09.78-.22.81s-.29-.2-.51-.69a7.062,7.062,0,0,1-.29-1,6.211,6.211,0,0,1-.09-1.43,2.27,2.27,0,0,1,0-.43l.09-.46a4.358,4.358,0,0,1,.44-1,3.65,3.65,0,0,1,2-1.53,5.25,5.25,0,0,1,2.73-.11,7.58,7.58,0,0,1,2.66,1.14,9.67,9.67,0,0,1,3.82,5.17,12,12,0,0,1,.53,3.56,14.591,14.591,0,0,1-.51,3.69,17.473,17.473,0,0,1-1.39,3.6,17,17,0,0,1-2.28,3.33,16.12,16.12,0,0,1-7.06,4.75Z" transform="translate(-257.62 -622.94)" fill="url(#linear-gradient-7)"/>
    <path id="Path_57" data-name="Path 57" d="M260.36,993.88l-.37-4.55c0-.73-.07-1.54-.11-2.43s-.11-1.85-.1-2.89,0-2.15,0-3.32.07-2.41.11-3.71a85.365,85.365,0,0,1,2.63-17.88c.22-.82.45-1.64.67-2.48.11-.42.25-.83.39-1.25s.27-.83.41-1.25l.42-1.27.21-.63.24-.63,1-2.54.25-.65.29-.63.57-1.27c.2-.42.39-.85.58-1.28l.29-.64.33-.63,1.31-2.55c.11-.21.22-.43.34-.64l.36-.62.74-1.26.73-1.26c.12-.2.24-.42.37-.62l.4-.6c.52-.81,1.05-1.61,1.57-2.4l.38-.6.42-.57.83-1.14c.56-.76,1.09-1.52,1.65-2.26,2.27-2.95,4.57-5.79,6.67-8.58s4-5.53,5.69-8.21a56.5,56.5,0,0,0,4.06-7.76,33.266,33.266,0,0,0,1.34-3.58c.34-1.14.66-2.25.88-3.29a31.77,31.77,0,0,0,.72-5.39,33.139,33.139,0,0,0-.07-3.41l-.12-1.17-.06,1.18c-.05.77-.17,1.9-.4,3.33A37.32,37.32,0,0,1,291.75,904a63.043,63.043,0,0,1-4.55,7c-1.79,2.45-3.84,5-6.07,7.6s-4.63,5.34-7.06,8.3c-.6.74-1.18,1.53-1.78,2.31l-.9,1.18-.45.59-.42.62c-.55.83-1.11,1.67-1.68,2.51l-.42.63c-.14.21-.26.44-.4.66-.25.44-.51.88-.77,1.32l-.78,1.33-.38.66c-.12.23-.23.46-.35.68l-1.35,2.71-.34.67-.29.69c-.2.45-.39.91-.58,1.36l-.58,1.36-.28.68-.24.68c-.32.92-.64,1.82-1,2.72l-.23.67-.2.68c-.12.46-.25.91-.38,1.36s-.25.89-.37,1.34a12.345,12.345,0,0,0-.34,1.33c-.2.88-.39,1.76-.57,2.63-.09.44-.2.87-.26,1.3s-.14.86-.2,1.29c-.13.85-.26,1.7-.39,2.53s-.16,1.66-.24,2.46c0,.41-.07.81-.1,1.21s-.08.79-.09,1.18c0,.79-.05,1.56-.08,2.32a16.444,16.444,0,0,0,0,2.22c.07.73,0,1.44.05,2.14v2.01c.1,1.32.19,2.58.28,3.77s.29,2.3.42,3.34.31,2,.46,2.89.3,1.69.44,2.42C260,992.3,260.36,993.88,260.36,993.88Z" transform="translate(-257.62 -622.94)" fill="url(#linear-gradient-8)"/>
  </g>
</svg>
