<svg xmlns="http://www.w3.org/2000/svg" width="136.273" height="57.522" viewBox="0 0 136.273 57.522">
  <g id="Group_79" data-name="Group 79" transform="translate(-1436.576 -1002.001)">
    <g id="Group_65" data-name="Group 65" transform="translate(1477.513 1051.134)">
      <g id="Group_54" data-name="Group 54" transform="translate(24.502 2.615)">
        <g id="Group_52" data-name="Group 52" transform="translate(0 1.447)">
          <g id="Group_50" data-name="Group 50" transform="translate(3.361 0.151)">
            <path id="Path_104" data-name="Path 104" d="M1699.565,1205.6a.192.192,0,0,1,.108.134.406.406,0,0,1-.035.266.684.684,0,0,1-.283.3.857.857,0,0,1-.489.109,1,1,0,0,1-.314-.075,1.234,1.234,0,0,1-.345-.213,1.432,1.432,0,0,1-.281-.33,1.6,1.6,0,0,1-.172-.385,1.8,1.8,0,0,1-.063-.371c0-.057,0-.112,0-.163s.006-.1.012-.141.014-.081.021-.114a.778.778,0,0,1,.025-.085c.017-.047.032-.072.045-.072s.027.025.045.069l.07.179c.014.036.033.075.05.116s.04.083.062.126a1.913,1.913,0,0,0,.162.251,1.32,1.32,0,0,0,.208.208.959.959,0,0,0,.22.132.739.739,0,0,0,.188.055.35.35,0,0,0,.037,0,.216.216,0,0,0,.033,0l.028,0h.024l.152.01a.883.883,0,0,0,.154,0A.7.7,0,0,1,1699.565,1205.6Z" transform="translate(-1697.688 -1204.459)"/>
          </g>
          <path id="Path_105" data-name="Path 105" d="M1693.74,1206.112a6.491,6.491,0,0,1-.406-1.833c0-.008-.005-.015-.011-.015l-.3-.345a.1.1,0,0,0-.152,0l-.3.345c-.006,0-.011.006-.011.015a6.534,6.534,0,0,1-.406,1.833c0,.006.627,1.132.769,1.367a.031.031,0,0,0,.056,0C1693.112,1207.244,1693.742,1206.118,1693.74,1206.112Z" transform="translate(-1690.245 -1203.886)"/>
          <g id="Group_51" data-name="Group 51" transform="translate(0 0.151)">
            <path id="Path_106" data-name="Path 106" d="M1685.049,1205.6a.192.192,0,0,0-.108.134.409.409,0,0,0,.036.266.683.683,0,0,0,.283.3.858.858,0,0,0,.49.109,1,1,0,0,0,.314-.075,1.238,1.238,0,0,0,.345-.213,1.435,1.435,0,0,0,.281-.33,1.615,1.615,0,0,0,.172-.385,1.768,1.768,0,0,0,.063-.371c0-.057,0-.112,0-.163s-.006-.1-.012-.141-.014-.081-.021-.114a.781.781,0,0,0-.025-.085c-.017-.047-.032-.072-.045-.072s-.027.025-.045.069-.043.11-.07.179c-.015.036-.033.075-.05.116s-.04.083-.062.126a1.863,1.863,0,0,1-.162.251,1.313,1.313,0,0,1-.208.208.977.977,0,0,1-.22.132.741.741,0,0,1-.188.055.336.336,0,0,1-.037,0,.219.219,0,0,1-.033,0l-.028,0h-.024l-.152.01a.886.886,0,0,1-.154,0A.7.7,0,0,0,1685.049,1205.6Z" transform="translate(-1684.932 -1204.459)"/>
          </g>
        </g>
        <g id="Group_53" data-name="Group 53" transform="translate(1.601)">
          <path id="Path_107" data-name="Path 107" d="M1694.441,1199.6s-.568-1.2,0-1.207S1694.474,1199.675,1694.441,1199.6Z" transform="translate(-1693.351 -1198.396)"/>
          <path id="Path_108" data-name="Path 108" d="M1696.317,1201.078s.379-.923.667-.61S1696.294,1201.133,1696.317,1201.078Z" transform="translate(-1694.918 -1199.874)"/>
          <path id="Path_109" data-name="Path 109" d="M1691.791,1201.157s-.985-.163-.745-.514S1691.85,1201.167,1691.791,1201.157Z" transform="translate(-1691.009 -1199.988)"/>
        </g>
      </g>
      <g id="Group_59" data-name="Group 59" transform="translate(28.608)">
        <path id="Path_110" data-name="Path 110" d="M1721.632,1197.846a2.712,2.712,0,0,1-.271.706,2.9,2.9,0,0,1-.389.54,3.17,3.17,0,0,1-.451.408l-.122.087c-.02.015-.041.029-.063.042l-.065.041c-.043.028-.089.051-.134.075l-.067.035-.069.031a3.037,3.037,0,0,1-.561.193,3.777,3.777,0,0,1-.568.091,4.37,4.37,0,0,1-1.1-.051,4.261,4.261,0,0,1-.521-.123c-.085-.024-.168-.054-.25-.083-.041-.014-.081-.032-.122-.047s-.081-.032-.12-.05l-.118-.053-.115-.058-.057-.03-.056-.031-.11-.063-.107-.069-.053-.034-.051-.037-.1-.074-.1-.079c-.033-.026-.063-.053-.094-.082s-.061-.055-.091-.084c-.057-.06-.116-.116-.167-.179a2.648,2.648,0,0,1-.28-.391l-.056-.1-.028-.052-.024-.054-.047-.107-.039-.11-.019-.055c-.006-.018-.01-.037-.015-.056l-.029-.111c-.008-.037-.013-.075-.02-.112l-.01-.056c0-.019,0-.037-.006-.056,0-.037-.006-.074-.01-.111s0-.074,0-.11v-.054l0-.054.008-.107.016-.105c0-.018.005-.035.008-.052l.012-.051c.008-.034.016-.068.025-.1l.031-.1.016-.048.019-.047.038-.092.044-.088.022-.044.025-.042.05-.082c.017-.027.036-.052.054-.077a1.775,1.775,0,0,1,.115-.144,1.812,1.812,0,0,1,.535-.419,1.7,1.7,0,0,1,.561-.177,1.588,1.588,0,0,1,.49.01l.053.009.051.012.1.025c.061.021.118.04.169.061l.138.065.044.027a.671.671,0,1,1-.342.03l-.049-.01-.089-.011-.047-.006-.048,0a1.5,1.5,0,0,0-.425.033,1.524,1.524,0,0,0-.462.186,1.576,1.576,0,0,0-.425.378,1.525,1.525,0,0,0-.089.125c-.014.022-.028.043-.042.066l-.037.069c-.006.012-.013.024-.019.035l-.016.037-.033.074-.027.077-.014.039c0,.013-.007.026-.011.04l-.022.081-.016.083-.008.042c0,.014,0,.029,0,.043l-.009.085,0,.087v.044l0,.044,0,.089.012.089c0,.015,0,.03.006.045l.01.044c.006.03.012.06.019.089l.027.089c0,.015.008.03.014.044l.017.044.034.088.042.086.021.043.024.042.049.085a2.785,2.785,0,0,0,1.318,1.048c.035.016.071.029.107.042s.072.028.109.04c.074.024.147.05.224.069a3.894,3.894,0,0,0,.466.1,3.959,3.959,0,0,0,.978.034,3.371,3.371,0,0,0,.49-.083,2.5,2.5,0,0,0,.469-.164l.056-.025.054-.029c.036-.02.073-.038.107-.061l.052-.032a.571.571,0,0,0,.052-.035l.1-.075a2.7,2.7,0,0,0,.379-.343,2.444,2.444,0,0,0,.32-.442,2.226,2.226,0,0,0,.223-.574,2.459,2.459,0,0,0,.062-.685c0-.06-.009-.121-.015-.183s-.018-.124-.027-.187a3.053,3.053,0,0,0-.1-.377,3.323,3.323,0,0,0-.15-.378,3.527,3.527,0,0,0-.206-.367,3.414,3.414,0,0,0-.258-.351c-.049-.055-.1-.113-.149-.166-.026-.027-.051-.054-.078-.081l-.083-.078c-.027-.027-.056-.051-.085-.075s-.057-.05-.088-.074l-.19-.147c-.032-.024-.063-.05-.1-.073l-.1-.07-.1-.07c-.033-.024-.066-.048-.1-.069l-.208-.131c-.07-.043-.143-.081-.215-.123s-.147-.077-.222-.114l-.113-.055c-.038-.019-.077-.033-.116-.05l-.117-.049c-.039-.017-.078-.033-.118-.046l-.242-.085-.248-.072c-.041-.013-.084-.022-.126-.032l-.127-.03a8.311,8.311,0,0,0-1.058-.16c-.09-.009-.182-.013-.273-.021l-.137-.01-.138-.006-.278-.012-.279-.006c-.093,0-.187,0-.28,0h-.282l-.279.007-.14,0c-.047,0-.093.006-.14.008l-.28.018c-.094.007-.187.019-.28.028-.187.016-.374.046-.561.071-.093.012-.186.031-.28.046s-.187.03-.279.049c-.186.037-.372.072-.556.115-.37.08-.737.177-1.1.274s-.726.2-1.083.312-.713.217-1.065.324-.7.212-1.044.314c-.685.206-1.351.416-2,.585-.324.085-.645.157-.959.219s-.624.1-.925.136a6.436,6.436,0,0,1-1.691-.051,3.68,3.68,0,0,1-.721-.2,1.786,1.786,0,0,1-.575-.352,1.06,1.06,0,0,1-.192-.243,1,1,0,0,1-.1-.269l-.012-.067c0-.022,0-.045-.007-.066a.816.816,0,0,1,0-.129.97.97,0,0,1,.043-.234.843.843,0,0,1,.2-.343.486.486,0,0,1,.255-.141.411.411,0,0,1,.179.006.265.265,0,0,1,.043.014l.014.007a.311.311,0,0,1-.06-.009.434.434,0,0,0-.171.007.461.461,0,0,0-.23.144.809.809,0,0,0-.175.331.938.938,0,0,0-.033.22.733.733,0,0,0,.007.119.587.587,0,0,0,.009.061l.013.062a.937.937,0,0,0,.1.243.977.977,0,0,0,.184.218,1.7,1.7,0,0,0,.552.315,3.6,3.6,0,0,0,.7.171,6.36,6.36,0,0,0,1.651.008c.294-.038.6-.087.9-.154s.622-.146.941-.238c.639-.181,1.3-.4,1.98-.625.343-.11.687-.22,1.037-.334s.7-.231,1.06-.345.72-.227,1.085-.335.736-.209,1.112-.3c.187-.047.376-.086.565-.127.094-.022.19-.037.285-.056s.19-.037.286-.052c.192-.029.383-.062.575-.083.1-.011.192-.024.289-.033l.289-.024c.049,0,.1-.009.145-.011l.145-.006.29-.011.286,0c.1,0,.19,0,.285,0l.285,0,.284.008.142,0,.142.008c.094.006.188.009.283.017a8.554,8.554,0,0,1,1.117.152l.137.03c.046.01.091.019.136.032l.269.074.263.088c.044.014.087.031.129.049l.128.051c.042.018.086.033.127.053l.124.058c.082.039.164.076.242.121s.158.084.235.13l.225.138c.038.022.074.048.109.072l.108.074.107.073c.035.025.068.051.1.076l.2.154c.033.026.067.055.1.083s.067.055.1.085l.095.087c.031.029.06.061.09.091.061.059.116.124.172.187a3.964,3.964,0,0,1,.54.817,3.694,3.694,0,0,1,.178.435A3.121,3.121,0,0,1,1721.632,1197.846Z" transform="translate(-1700.514 -1191.727)"/>
        <g id="Group_55" data-name="Group 55" transform="translate(21.082 3.626)">
          <path id="Path_111" data-name="Path 111" d="M1782.684,1204.492c.069-.058.068-.187.011-.35a1.939,1.939,0,0,0-.328-.556,6.4,6.4,0,0,0-.984-.9,3.571,3.571,0,0,0-.576-.355,1.311,1.311,0,0,0-.2-.08c-.049-.015-.078-.019-.084-.01s.011.033.043.071.08.089.136.154c.114.126.262.3.407.5.294.388.59.851.747,1.043a1.958,1.958,0,0,0,.476.434C1782.487,1204.525,1782.616,1204.55,1782.684,1204.492Z" transform="translate(-1780.526 -1202.232)"/>
        </g>
        <g id="Group_56" data-name="Group 56" transform="translate(22.161 3.253)">
          <path id="Path_112" data-name="Path 112" d="M1788.251,1201.382c0-.227-.483-.4-1.052-.414-.286-.009-.92.031-1.487-.015a7.317,7.317,0,0,1-.749-.094c-.1-.015-.181-.032-.241-.039s-.1-.006-.1.006.018.037.063.077a1.671,1.671,0,0,0,.2.15,3.82,3.82,0,0,0,.717.367,5.545,5.545,0,0,0,.886.265,4.3,4.3,0,0,0,.681.1,2.009,2.009,0,0,0,.77-.109C1788.134,1201.6,1788.252,1201.494,1788.251,1201.382Z" transform="translate(-1784.621 -1200.816)"/>
        </g>
        <g id="Group_57" data-name="Group 57" transform="translate(11.414)">
          <path id="Path_113" data-name="Path 113" d="M1753.612,1190.907l-.309-.269a10.019,10.019,0,0,0-.9-.669,10.157,10.157,0,0,0-1.472-.795,8.777,8.777,0,0,0-1.974-.59,7.664,7.664,0,0,0-2.065-.076c-.039,0-.078.005-.118.01l-.116.017-.227.034c-.074.013-.148.02-.219.037l-.21.047c-.138.032-.27.058-.4.1-.064.018-.125.039-.184.061s-.118.042-.173.064c-.223.086-.416.173-.588.244-.086.036-.165.069-.24.1s-.142.053-.2.075l-.088.031a.61.61,0,0,0-.079.032.411.411,0,0,1-.114.047.233.233,0,0,1-.076,0l-.027,0,.025.009a.243.243,0,0,0,.079.017.412.412,0,0,0,.129-.026c.047-.013.1-.019.169-.03s.139-.021.218-.039.165-.035.256-.058c.183-.044.388-.1.613-.155.056-.014.114-.027.172-.039s.119-.026.18-.035c.12-.024.252-.035.386-.051l.2-.025c.069-.009.14-.009.212-.015l.218-.013.111-.007c.037,0,.075,0,.113,0a10.086,10.086,0,0,1,1.954.149,12.329,12.329,0,0,1,1.906.49,15.176,15.176,0,0,1,1.5.617c.418.2.751.384.979.515Z" transform="translate(-1743.834 -1188.472)"/>
        </g>
        <g id="Group_58" data-name="Group 58" transform="translate(21.868 1.465)">
          <path id="Path_114" data-name="Path 114" d="M1785.246,1194.08a.6.6,0,0,0-.688.189c-.055.054-.131.154-.223.265a2.654,2.654,0,0,1-.308.324.644.644,0,0,1-.315.165c-.1.015-.181-.016-.2.006s0,.031.015.068a.376.376,0,0,0,.119.125.579.579,0,0,0,.25.09,1.024,1.024,0,0,0,.31-.01,1.909,1.909,0,0,0,.57-.207,1.66,1.66,0,0,0,.355-.249.786.786,0,0,0,.234-.441A.316.316,0,0,0,1785.246,1194.08Z" transform="translate(-1783.51 -1194.03)"/>
        </g>
      </g>
      <g id="Group_64" data-name="Group 64" transform="translate(0 0.005)">
        <path id="Path_115" data-name="Path 115" d="M1609.469,1197.866a2.72,2.72,0,0,0,.271.706,2.915,2.915,0,0,0,.389.54,3.154,3.154,0,0,0,.451.408l.122.087c.02.015.042.029.063.042l.065.041c.043.028.089.051.134.075l.067.036.069.031a2.992,2.992,0,0,0,.561.193,3.73,3.73,0,0,0,.568.091,4.453,4.453,0,0,0,1.624-.174c.085-.024.168-.054.25-.083.041-.014.082-.032.122-.047s.081-.032.12-.05l.118-.053.115-.058.057-.029.056-.032.11-.064.107-.069.053-.034.051-.037.1-.074.1-.079c.033-.026.063-.054.094-.082s.061-.055.091-.084c.057-.06.116-.116.167-.18a2.673,2.673,0,0,0,.28-.391l.056-.1.028-.052.024-.054.047-.107.039-.11.019-.055c.006-.019.01-.037.015-.056l.029-.111c.007-.037.013-.075.02-.112l.01-.055c0-.019,0-.037.005-.056l.01-.11c0-.037,0-.074,0-.11v-.055l0-.054-.008-.107-.016-.105c0-.017-.005-.035-.008-.052l-.012-.051c-.008-.034-.016-.068-.025-.1l-.031-.1c-.005-.016-.01-.032-.016-.048l-.019-.047-.038-.092-.044-.088-.022-.043-.025-.042-.05-.082c-.017-.026-.036-.052-.054-.077a1.86,1.86,0,0,0-.651-.563,1.694,1.694,0,0,0-.561-.177,1.581,1.581,0,0,0-.49.01l-.053.009-.051.013-.1.025c-.061.021-.118.04-.169.061l-.138.065-.044.026a.672.672,0,1,0,.342.03l.049-.01.089-.011.047-.006.048,0a1.523,1.523,0,0,1,.887.22,1.57,1.57,0,0,1,.425.378,1.5,1.5,0,0,1,.089.125c.014.022.029.044.042.066l.037.07c.006.012.013.023.019.035l.016.036.033.074.027.077.014.039c0,.013.007.027.011.04l.022.081.016.083.008.042c0,.014,0,.028,0,.042s.006.057.01.085l0,.087v.044l0,.044c0,.03,0,.059,0,.089l-.012.089c0,.015,0,.03-.006.045l-.01.045c-.006.03-.012.06-.019.089l-.027.089c0,.015-.008.03-.014.045l-.017.043-.034.088-.042.086-.021.043-.024.042-.049.085a2.791,2.791,0,0,1-1.318,1.048c-.035.016-.071.029-.107.042s-.072.028-.109.04c-.074.024-.148.05-.224.069a4.051,4.051,0,0,1-1.444.136,3.338,3.338,0,0,1-.49-.083,2.509,2.509,0,0,1-.469-.164l-.056-.026-.054-.029c-.036-.02-.073-.038-.107-.061l-.052-.033a.543.543,0,0,1-.052-.035l-.1-.075a2.7,2.7,0,0,1-.379-.343,2.437,2.437,0,0,1-.32-.442,2.223,2.223,0,0,1-.224-.574,2.457,2.457,0,0,1-.062-.685c0-.06.009-.121.014-.183s.018-.124.028-.186a3.111,3.111,0,0,1,.1-.377,3.291,3.291,0,0,1,.15-.377,3.49,3.49,0,0,1,.464-.719c.049-.055.1-.113.149-.165.026-.027.051-.055.078-.081l.082-.078c.027-.027.056-.051.085-.076s.057-.05.088-.074l.19-.147c.032-.024.063-.05.1-.073l.1-.07.1-.07c.033-.024.066-.047.1-.068l.208-.132c.07-.043.143-.081.215-.122s.147-.078.222-.115l.113-.055c.038-.019.077-.033.116-.05l.117-.049c.039-.016.078-.033.118-.046l.242-.085.248-.072c.042-.013.084-.022.127-.032l.127-.03a8.29,8.29,0,0,1,1.058-.16c.09-.009.182-.014.273-.021l.137-.01.138-.006.277-.012.279-.006c.093,0,.187,0,.281,0l.282,0,.279.007.14,0c.047,0,.093.005.14.008l.28.018c.094.007.187.019.28.028.188.016.374.046.561.071.094.012.186.031.28.046s.187.03.279.049c.186.037.372.072.556.115.37.08.737.177,1.1.273s.726.2,1.084.313.713.217,1.065.324.7.212,1.045.314c.685.206,1.351.416,2,.585.324.085.645.158.959.22s.624.1.925.136a6.433,6.433,0,0,0,1.691-.051,3.655,3.655,0,0,0,.721-.2,1.785,1.785,0,0,0,.575-.352,1.066,1.066,0,0,0,.192-.243,1,1,0,0,0,.1-.268l.012-.067c0-.022,0-.044.007-.066a.8.8,0,0,0,0-.129.977.977,0,0,0-.043-.234.842.842,0,0,0-.2-.343.484.484,0,0,0-.255-.142.405.405,0,0,0-.179.006.288.288,0,0,0-.043.014c-.009,0-.014.006-.014.007a.364.364,0,0,0,.06-.009.435.435,0,0,1,.171.007.465.465,0,0,1,.23.145.8.8,0,0,1,.175.33.916.916,0,0,1,.032.221.736.736,0,0,1-.007.119.581.581,0,0,1-.009.061l-.013.062a.946.946,0,0,1-.1.243,1,1,0,0,1-.184.218,1.691,1.691,0,0,1-.552.315,3.588,3.588,0,0,1-.7.171,6.349,6.349,0,0,1-1.651.008c-.294-.038-.6-.087-.9-.155s-.622-.146-.941-.238c-.639-.181-1.3-.4-1.98-.625-.343-.11-.687-.219-1.037-.334s-.7-.23-1.06-.345-.72-.226-1.085-.335-.736-.209-1.112-.3c-.187-.047-.376-.086-.565-.128-.094-.022-.19-.037-.285-.056s-.19-.037-.286-.052c-.192-.029-.383-.063-.575-.083-.1-.011-.192-.024-.289-.033l-.29-.024c-.048,0-.1-.009-.145-.011l-.145-.006-.29-.011-.286,0c-.1,0-.19,0-.285,0l-.285,0-.284.008-.142,0-.142.008c-.095.006-.189.009-.283.017a8.626,8.626,0,0,0-1.117.152l-.137.03c-.045.01-.091.019-.136.032l-.269.074-.263.088c-.044.014-.087.031-.129.048l-.128.051c-.042.018-.085.033-.126.053l-.123.058c-.082.038-.165.076-.242.12s-.158.084-.235.129l-.225.139c-.038.022-.074.047-.11.072l-.107.073-.107.073c-.035.024-.069.051-.1.077l-.2.153c-.034.026-.067.055-.1.082s-.067.055-.1.085l-.095.087c-.031.03-.06.06-.091.091-.061.06-.116.124-.172.187a3.977,3.977,0,0,0-.54.817,3.778,3.778,0,0,0-.178.435A3.12,3.12,0,0,0,1609.469,1197.866Z" transform="translate(-1604.796 -1191.747)"/>
        <g id="Group_60" data-name="Group 60" transform="translate(2.498 3.627)">
          <path id="Path_116" data-name="Path 116" d="M1601.474,1204.515c.069.058.2.032.347-.057a1.968,1.968,0,0,0,.476-.435c.157-.192.455-.653.75-1.04.146-.194.294-.369.408-.5.056-.065.1-.116.135-.155s.047-.065.042-.074-.033,0-.082.013a1.418,1.418,0,0,0-.2.081,3.65,3.65,0,0,0-.576.354,6.344,6.344,0,0,0-.987.9,1.935,1.935,0,0,0-.328.556C1601.406,1204.328,1601.4,1204.457,1601.474,1204.515Z" transform="translate(-1601.421 -1202.256)"/>
        </g>
        <g id="Group_61" data-name="Group 61" transform="translate(0 3.255)">
          <path id="Path_117" data-name="Path 117" d="M1591.942,1201.408c0,.112.117.216.311.29a2.008,2.008,0,0,0,.77.109,4.354,4.354,0,0,0,.681-.095,5.552,5.552,0,0,0,.887-.262,3.776,3.776,0,0,0,.718-.367,1.579,1.579,0,0,0,.2-.152c.045-.04.067-.068.061-.08s-.041-.01-.1,0-.14.026-.24.041a6.977,6.977,0,0,1-.75.094c-.568.044-1.2,0-1.488.01C1592.425,1201.013,1591.945,1201.181,1591.942,1201.408Z" transform="translate(-1591.942 -1200.844)"/>
        </g>
        <g id="Group_62" data-name="Group 62" transform="translate(4.599)">
          <path id="Path_118" data-name="Path 118" d="M1609.4,1190.928l.354-.2c.228-.13.561-.311.979-.515a15.274,15.274,0,0,1,1.5-.618,12.374,12.374,0,0,1,1.906-.49,10.059,10.059,0,0,1,1.954-.148c.038,0,.076,0,.113,0l.111.007.218.013c.072.005.143.005.212.015l.2.024c.134.017.266.027.386.051.061.009.121.022.179.035s.116.025.172.039c.225.054.43.111.613.155.091.023.177.042.256.058s.152.029.218.039.122.017.169.03a.414.414,0,0,0,.129.026.244.244,0,0,0,.079-.017l.025-.009-.027,0a.245.245,0,0,1-.076,0,.4.4,0,0,1-.114-.047.718.718,0,0,0-.078-.032l-.088-.031c-.062-.021-.13-.045-.2-.075s-.154-.061-.239-.1c-.172-.071-.365-.158-.588-.244-.055-.022-.113-.043-.173-.063s-.12-.043-.184-.061c-.128-.042-.26-.068-.4-.1l-.21-.047c-.071-.017-.145-.024-.219-.037l-.227-.034-.116-.017c-.039,0-.078-.007-.118-.01a7.653,7.653,0,0,0-2.065.077,8.761,8.761,0,0,0-1.975.589,9.671,9.671,0,0,0-2.372,1.464Z" transform="translate(-1609.395 -1188.492)"/>
        </g>
        <g id="Group_63" data-name="Group 63" transform="translate(2.062 1.465)">
          <path id="Path_119" data-name="Path 119" d="M1599.891,1194.1a.317.317,0,0,0-.12.325.787.787,0,0,0,.234.441,1.672,1.672,0,0,0,.354.25,1.9,1.9,0,0,0,.569.211,1.018,1.018,0,0,0,.311.01.574.574,0,0,0,.252-.09.37.37,0,0,0,.12-.128c.018-.038.022-.061.013-.071s-.1.013-.2,0a.631.631,0,0,1-.319-.166,2.558,2.558,0,0,1-.308-.327c-.091-.111-.167-.212-.222-.266A.6.6,0,0,0,1599.891,1194.1Z" transform="translate(-1599.767 -1194.05)"/>
        </g>
      </g>
    </g>
    <g id="Group_70" data-name="Group 70" transform="translate(1436.576 1017.928)">
      <g id="Group_67" data-name="Group 67" transform="translate(0 0)">
        <g id="Group_66" data-name="Group 66">
          <path id="Path_120" data-name="Path 120" d="M1572.849,1087.912v-17.874a.358.358,0,0,0-.355-.355,7.018,7.018,0,0,1-6.991-6.88.358.358,0,0,0-.354-.355H1444.576a.357.357,0,0,0-.355.355,7,7,0,0,1-7.291,7.014.357.357,0,0,0-.355.355v17.889a.357.357,0,0,0,.355.355,7.019,7.019,0,0,1,7.291,6.731.359.359,0,0,0,.355.355h120.573a.358.358,0,0,0,.354-.355,7.018,7.018,0,0,1,6.991-6.88.355.355,0,0,0,0-.709,7.74,7.74,0,0,0-7.7,7.589l.355-.355H1444.576l.355.355a7.737,7.737,0,0,0-8-7.44l.355.355v-17.889l-.355.355a7.716,7.716,0,0,0,8-7.723l-.355.354h120.573l-.355-.354a7.74,7.74,0,0,0,7.7,7.589l-.355-.355v17.874A.355.355,0,0,0,1572.849,1087.912Z" transform="translate(-1436.576 -1062.449)"/>
        </g>
      </g>
      <g id="Group_69" data-name="Group 69" transform="translate(1.495 1.422)">
        <g id="Group_68" data-name="Group 68">
          <path id="Path_121" data-name="Path 121" d="M1575.085,1090.75v-15.6a.174.174,0,0,0-.173-.173,6.707,6.707,0,0,1-6.884-6.778.174.174,0,0,0-.173-.173l-7.631-.012-19.375-.029-25.84-.039-27.027-.041-22.937-.034-13.569-.021-1.643,0a.173.173,0,0,0-.173.173,6.6,6.6,0,0,1-3.46,6.238,7.978,7.978,0,0,1-3.779,1,.174.174,0,0,0-.173.173v15.391a.174.174,0,0,0,.173.173,7.029,7.029,0,0,1,5.061,1.665,7.523,7.523,0,0,1,2.5,5.326.175.175,0,0,0,.173.173l7.651-.014,19.412-.035,25.863-.047,27-.049,22.836-.041,13.358-.024,1.508,0a.175.175,0,0,0,.173-.173,7.148,7.148,0,0,1,6.955-6.849.173.173,0,0,0,0-.346,7.5,7.5,0,0,0-7.3,7.194l.173-.173-7.65.014-19.412.035-25.863.047-27,.049-22.836.041-13.359.024-1.508,0,.173.173a7.985,7.985,0,0,0-2.6-5.571,7.248,7.248,0,0,0-5.305-1.766l.173.173V1075.43l-.173.173a8.487,8.487,0,0,0,4.162-1.165,6.919,6.919,0,0,0,3.422-6.42l-.173.173,7.631.011,19.375.029,25.84.039,27.028.041,22.937.035,13.569.021,1.643,0-.173-.173a7.057,7.057,0,0,0,7.23,7.124l-.173-.173v15.6A.173.173,0,0,0,1575.085,1090.75Z" transform="translate(-1442.248 -1067.845)"/>
        </g>
      </g>
    </g>
    <g id="Group_74" data-name="Group 74" transform="translate(1468.958 1002.001)">
      <path id="Path_122" data-name="Path 122" d="M1734.053,1014.787a4.445,4.445,0,0,0-.442-1.152,4.764,4.764,0,0,0-.635-.881,5.178,5.178,0,0,0-.737-.667l-.2-.143c-.032-.024-.067-.047-.1-.068l-.107-.066c-.07-.046-.145-.083-.218-.122l-.11-.058-.112-.051a4.9,4.9,0,0,0-.915-.314,6.094,6.094,0,0,0-.927-.149,7.26,7.26,0,0,0-2.651.283c-.139.039-.274.088-.408.135-.067.023-.133.052-.2.077s-.132.052-.2.082l-.192.087c-.063.031-.125.063-.188.095l-.093.048-.091.052-.18.1-.174.112-.086.056-.084.06-.166.121-.159.129c-.053.042-.1.087-.153.133s-.1.09-.148.137c-.093.1-.19.189-.273.293a4.407,4.407,0,0,0-.458.638l-.091.17-.045.085-.039.088-.077.175-.063.179-.031.089c-.009.03-.016.061-.025.091l-.047.181c-.012.061-.022.122-.032.182l-.015.091c0,.03-.006.061-.009.091q-.008.091-.016.181c0,.06,0,.12,0,.18v.089l.006.089.014.175.026.172c0,.029.008.057.014.085l.019.083c.014.055.026.11.04.165l.052.159c.009.026.017.052.026.079l.031.076.063.15.072.144.036.071c.013.023.027.045.041.068l.081.134c.028.043.059.084.089.126a2.783,2.783,0,0,0,.188.236,2.976,2.976,0,0,0,.874.684,2.768,2.768,0,0,0,.917.289,2.6,2.6,0,0,0,.8-.016l.087-.014.083-.021.158-.04c.1-.035.192-.065.276-.1l.225-.107.072-.043a1.1,1.1,0,1,0-.559-.049l-.08.016-.146.018-.076.01c-.026,0-.052,0-.078,0a2.43,2.43,0,0,1-.693-.054,2.467,2.467,0,0,1-.754-.3,2.562,2.562,0,0,1-.693-.617,2.433,2.433,0,0,1-.145-.2c-.022-.036-.046-.071-.068-.108l-.061-.114c-.01-.019-.021-.038-.031-.057l-.027-.06-.053-.121-.045-.126-.023-.063c-.006-.022-.012-.044-.018-.065l-.036-.131-.026-.135-.013-.068c0-.023-.005-.046-.008-.069-.005-.046-.01-.093-.016-.14l0-.142,0-.071,0-.072.007-.145.019-.145c0-.024.006-.049.01-.073l.016-.073c.011-.048.02-.1.032-.146l.043-.145c.008-.024.014-.049.022-.073l.028-.071.056-.144.068-.14.034-.071.04-.069.08-.139a4.553,4.553,0,0,1,2.151-1.711c.057-.026.116-.047.175-.069s.118-.046.178-.065c.121-.039.241-.081.366-.113a6.59,6.59,0,0,1,2.358-.222,5.392,5.392,0,0,1,.8.136,4.119,4.119,0,0,1,.764.267l.092.042.089.047c.059.032.119.062.175.1l.085.053a.893.893,0,0,1,.085.057l.17.122a4.4,4.4,0,0,1,.618.56,3.974,3.974,0,0,1,.523.722,3.631,3.631,0,0,1,.365.937,4.039,4.039,0,0,1,.1,1.118c0,.1-.015.2-.024.3s-.03.2-.045.3a4.963,4.963,0,0,1-.159.616,5.349,5.349,0,0,1-.245.616,5.7,5.7,0,0,1-.757,1.173c-.08.09-.157.184-.243.27-.043.044-.084.089-.128.132l-.135.127c-.044.043-.092.083-.139.123s-.094.081-.143.121l-.31.24c-.052.04-.1.082-.157.12l-.162.114-.163.115c-.054.038-.108.078-.166.112l-.339.215c-.115.07-.234.132-.352.2s-.24.127-.362.186l-.184.09c-.061.031-.126.054-.189.082l-.19.08c-.063.027-.127.054-.193.076l-.394.139-.405.118c-.067.022-.137.036-.206.052l-.208.049a13.43,13.43,0,0,1-1.727.261c-.147.015-.3.022-.446.034l-.224.016-.225.01-.452.019-.456.01c-.152,0-.3.005-.458.006l-.46,0-.456-.011-.228-.005c-.076,0-.152-.009-.228-.014l-.458-.03c-.153-.012-.3-.03-.458-.045-.306-.027-.61-.075-.915-.116-.153-.02-.3-.05-.457-.075s-.3-.048-.456-.08c-.3-.061-.606-.118-.907-.188-.433-.094-.864-.2-1.292-.313h.014l.129-.017c.043-.006.085-.015.127-.022.085-.014.167-.036.25-.054a3.911,3.911,0,0,0,.477-.155,4.009,4.009,0,0,0,.442-.206,3.772,3.772,0,0,0,.4-.256,3.145,3.145,0,0,0,1.073-1.348,2.729,2.729,0,0,0,.185-.739,2.915,2.915,0,0,0-.008-.67,3.167,3.167,0,0,0-.136-.6l-.05-.142a.762.762,0,0,0-.028-.071l-.03-.071c-.019-.048-.044-.094-.067-.139l-.035-.068-.039-.066a3.024,3.024,0,0,0-.351-.483,3.8,3.8,0,0,0-.415-.4,4.4,4.4,0,0,0-.939-.6,4.355,4.355,0,0,0-.5-.2c-.084-.03-.169-.052-.254-.077-.042-.012-.085-.021-.128-.032s-.085-.021-.128-.028l-.128-.024-.129-.019-.064-.009-.064-.006-.128-.012-.128-.005-.064,0h-.063l-.127,0-.126.009c-.042,0-.083.007-.125.013l-.123.017c-.081.017-.162.029-.242.052a2.684,2.684,0,0,0-.457.16l-.107.053-.053.027-.051.031-.1.061-.1.068-.047.034-.045.037-.088.075c-.028.026-.054.054-.081.081l-.04.04-.037.043-.072.086-.065.09-.032.045-.028.047-.055.094-.047.1c-.008.016-.016.032-.023.048l-.02.049c-.013.033-.026.065-.038.1l-.031.1c-.005.016-.01.032-.015.049l-.011.05-.022.1-.014.1-.007.049c0,.016,0,.032,0,.048,0,.032,0,.064-.006.1s0,.063,0,.095a1.753,1.753,0,0,0,.011.186,1.837,1.837,0,0,0,.2.655,1.715,1.715,0,0,0,.361.47,1.585,1.585,0,0,0,.409.275l.049.024.049.019.094.036c.063.018.12.035.175.047l.152.026.051,0a.677.677,0,1,0-.265-.223l-.047-.02-.08-.042-.042-.022-.041-.026a1.534,1.534,0,0,1-.6-.694,1.576,1.576,0,0,1-.131-.557,1.447,1.447,0,0,1,0-.154c0-.026,0-.052,0-.078l.01-.079c0-.013,0-.027,0-.04l.008-.04.016-.08.022-.08.011-.04c0-.013.009-.026.014-.04l.028-.079.035-.078.017-.039c.006-.013.014-.025.021-.038l.042-.076.048-.073.024-.037.027-.035.055-.071.061-.066.031-.033.034-.031.067-.062.073-.058.037-.029.039-.026.079-.053.084-.047.042-.024.044-.021.09-.042a2.81,2.81,0,0,1,1.693-.1c.038.007.075.017.113.027s.076.019.113.03c.075.023.151.045.225.073a4.076,4.076,0,0,1,1.269.724,3.339,3.339,0,0,1,.356.353,2.56,2.56,0,0,1,.291.406l.031.054.028.055c.019.037.038.074.053.112l.024.057c.008.019.016.038.023.059l.042.122a2.714,2.714,0,0,1,.114.5,2.49,2.49,0,0,1,.008.55,2.258,2.258,0,0,1-.148.6,2.484,2.484,0,0,1-.345.6c-.036.05-.078.095-.118.143s-.087.091-.13.138a3.16,3.16,0,0,1-.3.255,3.244,3.244,0,0,1-.342.224,3.523,3.523,0,0,1-.8.324c-.072.017-.144.037-.218.05-.037.007-.074.015-.111.021l-.113.016c-.038.006-.076.01-.114.013l-.116.01-.242.012c-.04,0-.081,0-.122,0h-.245c-.041,0-.082,0-.123,0l-.248-.012c-.083-.005-.165-.016-.249-.024s-.166-.021-.249-.034l-.125-.02c-.021,0-.042-.008-.062-.013l-.334-.1c-.585-.175-1.164-.354-1.738-.529s-1.146-.346-1.7-.513c-1.118-.337-2.206-.679-3.266-.955-.529-.14-1.052-.258-1.566-.359s-1.019-.17-1.511-.222a10.52,10.52,0,0,0-2.76.083,6.01,6.01,0,0,0-1.177.321,2.909,2.909,0,0,0-.938.574,1.739,1.739,0,0,0-.314.4,1.633,1.633,0,0,0-.168.438l-.02.11c-.007.036-.007.072-.011.108a1.336,1.336,0,0,0,0,.21,1.589,1.589,0,0,0,.071.382,1.373,1.373,0,0,0,.327.56.79.79,0,0,0,.416.231.67.67,0,0,0,.292-.01.45.45,0,0,0,.071-.023c.016-.006.023-.01.022-.011a.578.578,0,0,0-.1.015.7.7,0,0,1-.279-.012.757.757,0,0,1-.376-.236,1.317,1.317,0,0,1-.285-.539,1.491,1.491,0,0,1-.053-.36,1.188,1.188,0,0,1,.011-.195c0-.033.006-.067.014-.1l.021-.1a1.533,1.533,0,0,1,.167-.4,1.591,1.591,0,0,1,.3-.355,2.768,2.768,0,0,1,.9-.514,5.867,5.867,0,0,1,1.145-.279,10.366,10.366,0,0,1,2.7-.013c.48.062.974.142,1.477.252s1.016.239,1.536.388c.191.054.385.113.579.172a3.425,3.425,0,0,1,.368.2l.16.056c.032.01.064.024.095.037l.094.039c.031.013.063.025.093.039l.09.044c.06.029.121.057.178.091s.117.063.173.1l.167.1c.028.017.055.036.081.055l.08.056.08.056c.026.019.051.039.077.059l.153.117.071.059c.023.019.047.039.068.06l.066.062c.022.021.042.043.063.064.043.042.081.088.12.132a2.8,2.8,0,0,1,.208.28,2.744,2.744,0,0,1,.166.293,2.694,2.694,0,0,1,.122.3,2.523,2.523,0,0,1,.079.3c.008.05.017.1.023.149s.011.1.012.146a1.968,1.968,0,0,1-.048.549,1.774,1.774,0,0,1-.177.46,1.967,1.967,0,0,1-.255.355,2.164,2.164,0,0,1-.3.276l-.083.06a.5.5,0,0,1-.042.028l-.042.026a.954.954,0,0,1-.086.049l-.043.024-.045.021a2.026,2.026,0,0,1-.374.133,2.643,2.643,0,0,1-.392.068,3.243,3.243,0,0,1-1.156-.1c-.061-.016-.12-.036-.179-.055-.03-.01-.058-.021-.087-.031s-.058-.021-.086-.034a2.234,2.234,0,0,1-1.058-.834l-.039-.068-.02-.034-.017-.035-.034-.069-.028-.07-.014-.035c0-.011-.007-.024-.011-.036l-.021-.071c-.006-.024-.01-.048-.016-.072l-.008-.035c0-.012,0-.024-.005-.036l-.01-.071,0-.071,0-.035v-.035l0-.07.008-.069c0-.011,0-.023,0-.034l.006-.033.012-.066.017-.065.009-.032.011-.031.022-.062.026-.059.013-.03c0-.01.01-.019.015-.028l.03-.056c.01-.018.022-.036.033-.053a1.1,1.1,0,0,1,.07-.1,1.258,1.258,0,0,1,.339-.3,1.215,1.215,0,0,1,.709-.179l.038,0,.037,0,.071.008.04.008a.538.538,0,1,0,.274-.025l-.035-.021-.111-.052c-.041-.017-.087-.032-.135-.048l-.078-.019-.041-.01-.043-.007a1.259,1.259,0,0,0-.391-.006,1.354,1.354,0,0,0-.449.143,1.458,1.458,0,0,0-.427.337,1.3,1.3,0,0,0-.092.116c-.014.021-.03.04-.043.062l-.04.066-.02.033-.017.035-.036.071-.03.074-.015.037-.013.039-.025.078c-.007.027-.013.053-.019.081l-.01.041c0,.014,0,.028-.006.042l-.013.084q0,.043-.006.086l0,.043v.132l.008.089c0,.015,0,.03,0,.044l.008.045c.005.03.01.06.016.089s.015.059.023.088.007.03.012.045l.015.044.031.088.038.086.019.043.022.041.045.083a2.157,2.157,0,0,0,.226.312c.041.051.089.1.134.143.023.023.048.045.073.067s.049.045.075.065l.078.063.082.059.041.029.043.027.086.055.089.05.045.025.046.023.092.046.095.042c.031.015.064.027.1.04s.065.026.1.037c.066.023.132.047.2.065a3.45,3.45,0,0,0,.417.1,3.506,3.506,0,0,0,.884.038,3.047,3.047,0,0,0,.454-.075,2.409,2.409,0,0,0,.448-.156l.055-.025.054-.029c.036-.019.072-.038.107-.06l.052-.033c.017-.011.035-.022.051-.034l.1-.07a2.541,2.541,0,0,0,.36-.328,2.347,2.347,0,0,0,.309-.433,2.176,2.176,0,0,0,.214-.566,2.5,2.5,0,0,0-.087-1.366,3,3,0,0,0-.144-.348,3.148,3.148,0,0,0-.435-.652c-.045-.05-.089-.1-.138-.149-.024-.024-.048-.049-.073-.072l-.076-.07c-.025-.024-.052-.046-.079-.068l-.081-.066-.163-.122-.005,0,.7.227c.56.179,1.121.359,1.692.546s1.147.376,1.731.563,1.175.37,1.771.547,1.2.341,1.814.485c.3.077.614.141.922.208.154.035.31.06.465.091s.31.061.467.084c.313.047.624.1.939.135.157.018.314.04.471.054l.473.039c.079.006.157.014.236.018l.237.009.473.019.466.005c.155,0,.311,0,.466,0l.464,0,.464-.012.232-.007.231-.013c.154-.01.308-.014.462-.028a14.048,14.048,0,0,0,1.823-.249l.224-.049c.074-.017.149-.031.222-.053l.439-.121.43-.144c.072-.022.141-.051.211-.079l.208-.084c.069-.029.139-.053.207-.086l.2-.094c.134-.063.269-.124.4-.2s.259-.137.383-.211l.368-.226c.062-.036.12-.077.179-.117l.175-.12.174-.12c.058-.04.112-.083.168-.125l.331-.25c.055-.043.109-.09.164-.135s.109-.09.16-.139l.155-.142c.051-.048.1-.1.148-.148.1-.1.189-.2.281-.3a6.486,6.486,0,0,0,.882-1.334,6.105,6.105,0,0,0,.291-.71A5.1,5.1,0,0,0,1734.053,1014.787Z" transform="translate(-1662.664 -1008.696)"/>
      <g id="Group_73" data-name="Group 73" transform="translate(30.563 0)">
        <g id="Group_71" data-name="Group 71" transform="translate(6.355 6.779)">
          <path id="Path_123" data-name="Path 123" d="M1703.268,1029.578a.341.341,0,0,0,.263-.155.723.723,0,0,0,.109-.464,1.215,1.215,0,0,0-.282-.672,1.528,1.528,0,0,0-.743-.488,1.787,1.787,0,0,0-.568-.072,2.2,2.2,0,0,0-.7.136,2.537,2.537,0,0,0-.673.372,2.831,2.831,0,0,0-.527.531,3.15,3.15,0,0,0-.338.576c-.04.094-.074.184-.1.269s-.051.166-.067.241-.028.143-.038.2a1.337,1.337,0,0,0-.012.157c0,.088.007.139.028.147s.06-.025.118-.086l.228-.253c.047-.051.1-.1.155-.162s.118-.112.181-.169a3.311,3.311,0,0,1,.427-.314,2.331,2.331,0,0,1,.475-.214,1.756,1.756,0,0,1,.447-.082,1.3,1.3,0,0,1,.346.028.554.554,0,0,1,.064.016.358.358,0,0,1,.056.015l.049.014.04.014c.1.03.179.053.258.08a1.56,1.56,0,0,1,.253.1A1.248,1.248,0,0,0,1703.268,1029.578Z" transform="translate(-1699.581 -1027.728)"/>
        </g>
        <g id="Group_72" data-name="Group 72" transform="translate(0 6.779)">
          <path id="Path_124" data-name="Path 124" d="M1675.837,1029.578a.34.34,0,0,1-.263-.155.722.722,0,0,1-.108-.464,1.213,1.213,0,0,1,.282-.672,1.527,1.527,0,0,1,.743-.488,1.786,1.786,0,0,1,.568-.072,2.193,2.193,0,0,1,.7.136,2.542,2.542,0,0,1,.674.372,2.834,2.834,0,0,1,.527.531,3.141,3.141,0,0,1,.337.576c.04.094.075.184.1.269s.051.166.068.241.028.143.038.2a1.364,1.364,0,0,1,.012.157c0,.088-.007.139-.028.147s-.06-.025-.118-.086l-.228-.253c-.047-.051-.1-.1-.155-.162s-.118-.112-.181-.169a3.364,3.364,0,0,0-.427-.314,2.334,2.334,0,0,0-.475-.214,1.756,1.756,0,0,0-.448-.082,1.3,1.3,0,0,0-.345.028.544.544,0,0,0-.065.016.362.362,0,0,0-.056.015.438.438,0,0,1-.049.014l-.04.014c-.1.03-.179.053-.258.08a1.559,1.559,0,0,0-.253.1A1.248,1.248,0,0,1,1675.837,1029.578Z" transform="translate(-1675.464 -1027.728)"/>
        </g>
        <path id="Path_125" data-name="Path 125" d="M1684.614,1008.556c1.709-2.382-.785-6.192-1.027-6.549V1002l0,0,0,0v.006c-.242.358-2.736,4.167-1.027,6.549-1.069-1.2-3.724-1.071-2.961-.859,3.6,1,3.154,3.7,3.154,3.7s0,.067,0,.067a.282.282,0,0,0,.282.282h.081a.106.106,0,0,1,.106.106v.517a.111.111,0,0,1-.01.045l-.694,1.471.007.009a13.231,13.231,0,0,1,1.044,2.271.023.023,0,0,0,.042,0,13.241,13.241,0,0,1,1.044-2.271l.007-.009-.694-1.471a.1.1,0,0,1-.01-.045v-.517a.106.106,0,0,1,.106-.106h.025a.338.338,0,0,0,.338-.338v0s-.446-2.708,3.153-3.706C1688.338,1007.485,1685.683,1007.358,1684.614,1008.556Z" transform="translate(-1678.406 -1002.001)"/>
      </g>
      <path id="Path_126" data-name="Path 126" d="M1559.592,1014.787a4.44,4.44,0,0,1,.442-1.152,4.763,4.763,0,0,1,.634-.881,5.2,5.2,0,0,1,.737-.667l.2-.143c.032-.024.068-.047.1-.068l.107-.066c.07-.046.145-.083.218-.122l.11-.058.112-.051a4.907,4.907,0,0,1,.915-.314,6.1,6.1,0,0,1,.927-.149,7.258,7.258,0,0,1,2.651.283c.139.039.274.088.408.135.067.023.133.052.2.077s.132.052.2.082l.192.087c.063.031.125.063.188.095l.093.048.091.052.18.1.174.112.087.056.083.06.166.121.159.129c.053.042.1.087.153.133s.1.09.148.137c.093.1.189.189.273.293a4.38,4.38,0,0,1,.458.638l.091.17.045.085.039.088.077.175.063.179.031.089c.009.03.016.061.024.091l.047.181c.012.061.022.122.032.182l.016.091c0,.03.006.061.009.091l.016.181c0,.06,0,.12,0,.18v.089l-.006.089c0,.059-.009.117-.013.175l-.027.172c0,.029-.008.057-.014.085l-.02.083c-.013.055-.026.11-.04.165l-.051.159c-.009.026-.017.052-.026.079l-.031.076-.062.15-.072.144-.036.071c-.013.023-.027.045-.04.068l-.081.134c-.028.043-.059.084-.089.126a2.834,2.834,0,0,1-.188.236,2.973,2.973,0,0,1-.874.684,2.77,2.77,0,0,1-.916.289,2.6,2.6,0,0,1-.8-.016l-.087-.014-.083-.021-.158-.04c-.1-.035-.192-.065-.275-.1l-.226-.107-.072-.043a1.1,1.1,0,1,1,.559-.049l.08.016.146.018.076.01c.026,0,.052,0,.078,0a2.43,2.43,0,0,0,.693-.054,2.469,2.469,0,0,0,.754-.3,2.565,2.565,0,0,0,.693-.617,2.378,2.378,0,0,0,.145-.2c.022-.036.046-.071.068-.108l.061-.114c.01-.019.021-.038.031-.057l.026-.06.054-.121.045-.126.023-.063c.007-.022.012-.044.018-.065.012-.043.024-.087.036-.131l.026-.135.013-.068c0-.023.005-.046.008-.069l.016-.14c0-.047,0-.094,0-.142l0-.071,0-.072-.007-.145c-.006-.048-.012-.1-.019-.145,0-.024-.006-.049-.01-.073l-.016-.073c-.01-.048-.02-.1-.031-.146l-.044-.145c-.007-.024-.014-.049-.022-.073l-.028-.071-.056-.144-.068-.14-.034-.071-.04-.069-.08-.139a4.554,4.554,0,0,0-2.151-1.711c-.057-.026-.116-.047-.175-.069s-.117-.046-.178-.065c-.121-.039-.241-.081-.365-.113a6.59,6.59,0,0,0-2.358-.222,5.388,5.388,0,0,0-.8.136,4.118,4.118,0,0,0-.764.267l-.092.042-.089.047c-.059.032-.119.062-.175.1l-.085.053a.9.9,0,0,0-.085.057l-.17.122a4.415,4.415,0,0,0-.618.56,3.967,3.967,0,0,0-.522.722,3.627,3.627,0,0,0-.365.937,4.025,4.025,0,0,0-.1,1.118c0,.1.015.2.024.3s.03.2.045.3a4.987,4.987,0,0,0,.16.616,5.37,5.37,0,0,0,.245.616,5.66,5.66,0,0,0,.336.6,5.592,5.592,0,0,0,.421.573c.08.09.156.184.243.27.043.044.084.089.128.132l.135.127c.044.043.092.083.139.123s.094.081.143.121l.31.24c.052.04.1.082.157.12l.162.114.163.115c.054.038.108.078.166.112l.339.215c.115.07.234.132.352.2s.24.127.362.186l.184.09c.062.031.126.054.189.082l.191.08c.063.027.127.054.193.076l.394.139.405.118c.068.022.137.036.206.052l.208.049a13.431,13.431,0,0,0,1.727.261c.147.015.3.022.446.034l.224.016.225.01.452.019.456.01c.152,0,.3.005.458.006l.46,0,.456-.011.228-.005c.076,0,.152-.009.228-.014l.457-.03c.153-.012.3-.03.458-.045.306-.027.61-.075.915-.116.153-.02.3-.05.456-.075s.3-.048.456-.08c.3-.061.606-.118.907-.188.433-.094.864-.2,1.292-.313h-.014l-.129-.017c-.043-.006-.085-.015-.127-.022-.085-.014-.167-.036-.25-.054a3.918,3.918,0,0,1-.477-.155,3.986,3.986,0,0,1-.441-.206,3.733,3.733,0,0,1-.4-.256,3.143,3.143,0,0,1-1.073-1.348,2.744,2.744,0,0,1-.185-.739,2.93,2.93,0,0,1,.008-.67,3.186,3.186,0,0,1,.136-.6l.05-.142c.008-.024.018-.047.028-.071l.03-.071c.019-.048.044-.094.067-.139l.035-.068.038-.066a3.025,3.025,0,0,1,.351-.483,3.794,3.794,0,0,1,.415-.4,4.4,4.4,0,0,1,.94-.6,4.318,4.318,0,0,1,.5-.2c.084-.03.169-.052.254-.077.042-.012.085-.021.128-.032s.085-.021.128-.028l.128-.024.128-.019.064-.009.064-.006.128-.012.128-.005.063,0h.064l.126,0,.126.009c.042,0,.083.007.124.013l.123.017c.082.017.163.029.242.052a2.687,2.687,0,0,1,.458.16l.107.053.053.027.051.031.1.061.1.068.047.034c.015.012.03.025.045.037l.088.075.081.081.04.04c.013.014.025.028.037.043l.072.086.065.09.032.045.028.047.055.094.047.1c.008.016.016.032.023.048l.02.049c.013.033.026.065.038.1l.031.1c.005.016.01.032.015.049l.011.05.022.1.014.1.007.049c0,.016,0,.032,0,.048,0,.032,0,.064.006.1s0,.063,0,.095a1.691,1.691,0,0,1-.011.186,1.844,1.844,0,0,1-.2.655,1.717,1.717,0,0,1-.361.47,1.582,1.582,0,0,1-.409.275l-.049.024-.049.019-.094.036c-.062.018-.12.035-.174.047l-.152.026-.052,0a.676.676,0,1,1,.265-.223l.046-.02.08-.042.042-.022.041-.026a1.536,1.536,0,0,0,.6-.694,1.584,1.584,0,0,0,.131-.557c0-.051,0-.1,0-.154,0-.026,0-.052,0-.078s-.006-.052-.01-.079,0-.027,0-.04l-.008-.04c-.005-.026-.011-.053-.016-.08l-.022-.08-.011-.04c0-.013-.009-.026-.014-.04l-.028-.079-.035-.078-.017-.039-.02-.038-.042-.076-.048-.073-.024-.037-.027-.035-.055-.071-.061-.066-.031-.033-.034-.031-.068-.062-.073-.058c-.012-.01-.024-.02-.037-.029l-.039-.026-.079-.053-.084-.047-.042-.024-.044-.021-.09-.042a2.81,2.81,0,0,0-1.693-.1c-.038.007-.075.017-.113.027s-.076.019-.113.03c-.075.023-.15.045-.225.073a4.07,4.07,0,0,0-1.269.724,3.347,3.347,0,0,0-.356.353,2.515,2.515,0,0,0-.291.406l-.032.054-.028.055c-.019.037-.038.074-.053.112l-.024.057c-.008.019-.016.038-.023.059l-.042.122a2.714,2.714,0,0,0-.114.5,2.468,2.468,0,0,0-.008.55,2.244,2.244,0,0,0,.148.6,2.5,2.5,0,0,0,.345.6c.036.05.078.095.118.143s.087.091.131.138a3.1,3.1,0,0,0,.3.255,3.307,3.307,0,0,0,.342.224,3.529,3.529,0,0,0,.8.324c.072.017.144.037.219.05.037.007.074.015.111.021l.113.016c.038.006.076.01.114.013l.115.01.242.012c.04,0,.081,0,.122,0h.245c.041,0,.083,0,.123,0l.248-.012c.083-.005.165-.016.249-.024s.166-.021.249-.034l.125-.02c.021,0,.042-.008.062-.013l.334-.1c.585-.175,1.164-.354,1.738-.529s1.146-.346,1.7-.513c1.118-.337,2.206-.679,3.266-.955.53-.14,1.053-.258,1.566-.359s1.019-.17,1.511-.222a10.519,10.519,0,0,1,2.759.083,6.005,6.005,0,0,1,1.177.321,2.906,2.906,0,0,1,.939.574,1.739,1.739,0,0,1,.314.4,1.642,1.642,0,0,1,.168.438l.02.11c.007.036.007.072.011.108a1.321,1.321,0,0,1,0,.21,1.577,1.577,0,0,1-.071.382,1.37,1.37,0,0,1-.327.56.79.79,0,0,1-.415.231.669.669,0,0,1-.292-.01.448.448,0,0,1-.071-.023c-.016-.006-.023-.01-.022-.011a.575.575,0,0,1,.1.015.7.7,0,0,0,.279-.012.757.757,0,0,0,.376-.236,1.318,1.318,0,0,0,.285-.539,1.5,1.5,0,0,0,.053-.36,1.149,1.149,0,0,0-.011-.195c-.005-.033-.006-.067-.014-.1l-.022-.1a1.533,1.533,0,0,0-.167-.4,1.6,1.6,0,0,0-.3-.355,2.766,2.766,0,0,0-.9-.514,5.864,5.864,0,0,0-1.145-.279,10.365,10.365,0,0,0-2.695-.013c-.48.062-.974.142-1.477.252s-1.016.239-1.536.388c-.191.054-.385.113-.579.172a3.413,3.413,0,0,0-.368.2l-.16.056c-.032.01-.064.024-.095.037l-.094.039c-.031.013-.063.025-.093.039l-.09.044c-.06.029-.121.057-.178.091s-.116.063-.173.1l-.167.1c-.028.017-.055.036-.081.055l-.08.056-.079.056c-.026.019-.051.039-.077.059l-.152.117-.071.059c-.023.019-.047.039-.068.06l-.066.062c-.022.021-.042.043-.063.064-.043.042-.081.088-.12.132a2.78,2.78,0,0,0-.208.28,2.85,2.85,0,0,0-.166.293,2.6,2.6,0,0,0-.121.3,2.438,2.438,0,0,0-.08.3c-.008.05-.017.1-.023.149s-.012.1-.012.146a1.973,1.973,0,0,0,.047.549,1.779,1.779,0,0,0,.177.46,1.961,1.961,0,0,0,.255.355,2.149,2.149,0,0,0,.3.276l.083.06a.461.461,0,0,0,.042.028l.042.026c.027.019.057.033.086.049l.043.024.045.021a2.018,2.018,0,0,0,.374.133,2.643,2.643,0,0,0,.392.068,3.244,3.244,0,0,0,1.156-.1c.061-.016.12-.036.179-.055.03-.01.058-.021.087-.031s.058-.021.086-.034a2.234,2.234,0,0,0,1.058-.834l.04-.068.02-.034.017-.035.034-.069.028-.07.014-.035c0-.011.007-.024.011-.036l.022-.071c.006-.024.01-.048.016-.072l.008-.035c0-.012,0-.024,0-.036l.01-.071c0-.024,0-.047,0-.071l0-.035v-.035l0-.07-.008-.069c0-.011,0-.023,0-.034l-.006-.033-.012-.066-.017-.065-.009-.032-.011-.031-.022-.062-.026-.059-.013-.03-.015-.028-.03-.056c-.01-.018-.022-.036-.033-.053a1.153,1.153,0,0,0-.07-.1,1.256,1.256,0,0,0-.338-.3,1.216,1.216,0,0,0-.709-.179l-.039,0-.037,0-.071.008-.04.008a.538.538,0,1,1-.274-.025l.035-.021.111-.052c.041-.017.087-.032.135-.048l.078-.019.041-.01.043-.007a1.26,1.26,0,0,1,.392-.006,1.354,1.354,0,0,1,.449.143,1.461,1.461,0,0,1,.427.337,1.4,1.4,0,0,1,.092.116c.014.021.029.04.043.062l.04.066.02.033.017.035.035.071.03.074.015.037c0,.013.008.026.013.039l.025.078c.007.027.013.053.019.081l.009.041c0,.014,0,.028.007.042l.013.084.006.086,0,.043v.132l-.008.089c0,.015,0,.03,0,.044l-.008.045c-.005.03-.01.06-.016.089l-.023.088c0,.015-.008.03-.012.045l-.015.044-.031.088-.038.086-.019.043-.022.041-.045.083a2.167,2.167,0,0,1-.226.312c-.041.051-.089.1-.134.143-.023.023-.048.045-.073.067s-.049.045-.075.065l-.078.063-.081.059-.041.029-.042.027-.086.055-.089.05-.045.025-.045.023-.092.046-.094.042c-.031.015-.064.027-.1.04s-.065.026-.1.037c-.066.023-.133.047-.2.065a3.45,3.45,0,0,1-.417.1,3.5,3.5,0,0,1-.883.038,3.053,3.053,0,0,1-.454-.075,2.409,2.409,0,0,1-.448-.156l-.055-.025-.054-.029c-.036-.019-.072-.038-.107-.06l-.052-.033c-.018-.011-.035-.022-.051-.034l-.1-.07a2.547,2.547,0,0,1-.36-.328,2.353,2.353,0,0,1-.309-.433,2.176,2.176,0,0,1-.215-.566,2.5,2.5,0,0,1,.088-1.366,3.069,3.069,0,0,1,.144-.348,3.158,3.158,0,0,1,.194-.335,3.113,3.113,0,0,1,.24-.317c.045-.05.089-.1.138-.149.024-.024.048-.049.073-.072l.076-.07c.025-.024.052-.046.079-.068l.081-.066.163-.122.005,0-.7.227c-.56.179-1.121.359-1.692.546s-1.147.376-1.731.563-1.175.37-1.771.547-1.2.341-1.814.485c-.3.077-.614.141-.922.208-.154.035-.31.06-.465.091s-.31.061-.466.084c-.313.047-.625.1-.939.135-.157.018-.314.04-.471.054l-.473.039c-.079.006-.157.014-.236.018l-.237.009-.473.019-.466.005c-.155,0-.31,0-.466,0l-.465,0-.464-.012-.232-.007-.231-.013c-.154-.01-.308-.014-.461-.028a14.047,14.047,0,0,1-1.823-.249l-.223-.049c-.074-.017-.149-.031-.222-.053l-.439-.121-.43-.144c-.072-.022-.141-.051-.211-.079l-.208-.084c-.069-.029-.139-.053-.207-.086l-.2-.094c-.134-.063-.269-.124-.4-.2s-.258-.137-.383-.211l-.368-.226c-.062-.036-.12-.077-.179-.117l-.175-.12-.174-.12c-.058-.04-.112-.083-.168-.125l-.331-.25c-.055-.043-.109-.09-.164-.135s-.109-.09-.16-.139l-.155-.142c-.051-.048-.1-.1-.148-.148-.1-.1-.189-.2-.281-.3a6.493,6.493,0,0,1-.882-1.334,6.127,6.127,0,0,1-.291-.71A5.093,5.093,0,0,1,1559.592,1014.787Z" transform="translate(-1559.471 -1008.696)"/>
    </g>
    <g id="Group_75" data-name="Group 75" transform="translate(1566.683 1019.451)">
      <path id="Path_127" data-name="Path 127" d="M1934.486,1072.2a1.068,1.068,0,0,0-.052-.656,1.349,1.349,0,0,0-.506-.631,1.452,1.452,0,0,0-.251-.136,5.14,5.14,0,0,0,1.473-2.425l0,0h0v0l0,0a5.015,5.015,0,0,0-2.7,1.107,1.51,1.51,0,0,0-.115-.442,1.351,1.351,0,0,0-.526-.615,1.068,1.068,0,0,0-.635-.173.835.835,0,0,0-.515.219l-.048.047-.023.024-.019.025q-.038.051-.072.1c-.018.034-.035.069-.052.1-.008.018-.016.033-.024.052l-.021.06a.822.822,0,0,0-.005.451.759.759,0,0,0,.193.337.5.5,0,0,0,.175.113.342.342,0,0,0,.058.016.283.283,0,0,0,.063.006.293.293,0,0,0,.124-.028.287.287,0,0,0,.131-.13.338.338,0,0,0,.031-.109c.008-.122-.031-.177-.071-.186s-.09.039-.151.09a.191.191,0,0,1-.031.02.159.159,0,0,1,.011-.026c.009-.015,0-.011.006-.015a.036.036,0,0,0,0-.008l-.008-.023a.479.479,0,0,1-.026-.154.363.363,0,0,1,.038-.164l.01-.017c0-.006.01-.015.015-.022l.03-.046c.012-.012.023-.024.033-.036l.008-.009.009-.006.017-.013a.274.274,0,0,1,.155-.057.54.54,0,0,1,.291.072.77.77,0,0,1,.183.131.778.778,0,0,1,.156.2,1.248,1.248,0,0,1,.144.6,1.79,1.79,0,0,1-.128.672,1.385,1.385,0,0,1-.362.532.866.866,0,0,1-.24.153.912.912,0,0,1-.124.044,1.046,1.046,0,0,1-.122.022,1.1,1.1,0,0,1-.39-.036c-.093-.026-.147-.044-.151-.035s.038.046.125.1a1,1,0,0,0,.417.131,1.167,1.167,0,0,0,.149,0,1.055,1.055,0,0,0,.16-.027.825.825,0,0,0,.134-.042.751.751,0,0,0-.053.1,1.037,1.037,0,0,0-.056.152,1.127,1.127,0,0,0-.027.146,1.007,1.007,0,0,0,.049.433c.035.1.064.144.071.142s0-.06,0-.156a1.1,1.1,0,0,1,.039-.388,1,1,0,0,1,.044-.115.919.919,0,0,1,.261-.319,1.221,1.221,0,0,1,.323-.18,3.118,3.118,0,0,1,.91-.068l.033-.01h0a1.246,1.246,0,0,1,.558.252.824.824,0,0,1,.263.394.538.538,0,0,1,.016.3.279.279,0,0,1-.084.141l-.017.014-.008.008-.011.006a.361.361,0,0,0-.042.026l-.051.021-.024.011-.019.007a.366.366,0,0,1-.168.007.486.486,0,0,1-.147-.055l-.021-.012-.008,0s0,0-.015,0l-.027.005a.2.2,0,0,1,.025-.027c.062-.05.118-.088.117-.131s-.048-.089-.17-.1a.339.339,0,0,0-.112.01.283.283,0,0,0-.2.221.26.26,0,0,0-.006.063.314.314,0,0,0,0,.06.493.493,0,0,0,.079.193.751.751,0,0,0,.3.253.821.821,0,0,0,.444.079l.063-.009c.02,0,.037-.009.056-.014l.111-.031c.038-.016.076-.034.114-.052l.029-.014.028-.018.055-.039A.836.836,0,0,0,1934.486,1072.2Zm-1.6-2c-.19-.846,1.224-1.032,1.224-1.032C1933.581,1070.457,1932.882,1070.2,1932.882,1070.2Z" transform="translate(-1930.361 -1068.229)"/>
    </g>
    <g id="Group_76" data-name="Group 76" transform="translate(1566.625 1045.122)">
      <path id="Path_128" data-name="Path 128" d="M1930.994,1170.518a1.106,1.106,0,0,0,.656-.19,1.4,1.4,0,0,0,.536-.646,1.522,1.522,0,0,0,.085-.284,5.326,5.326,0,0,0,2.774.988l0,0v0h0l0,0a5.206,5.206,0,0,0-1.693-2.514,1.57,1.57,0,0,0,.425-.21,1.344,1.344,0,0,0,.319-.307,1.357,1.357,0,0,0,.195-.357,1.11,1.11,0,0,0,.042-.682.871.871,0,0,0-.332-.477l-.058-.039-.029-.019-.03-.014c-.04-.019-.08-.036-.119-.052s-.078-.021-.116-.031c-.02,0-.037-.01-.058-.013l-.065-.009a.854.854,0,0,0-.46.089.786.786,0,0,0-.3.267.516.516,0,0,0-.078.2.31.31,0,0,0,0,.062.269.269,0,0,0,.007.065.293.293,0,0,0,.214.226.37.37,0,0,0,.117.009c.126-.018.174-.069.174-.111s-.059-.083-.124-.134a.221.221,0,0,1-.026-.028l.029.005c.017.006.012,0,.016,0l.008,0,.022-.012a.5.5,0,0,1,.151-.059.376.376,0,0,1,.175,0l.02.007.026.011.053.021a.388.388,0,0,0,.044.026l.011.006.009.008.017.015a.282.282,0,0,1,.09.146.555.555,0,0,1-.012.311.789.789,0,0,1-.095.214.8.8,0,0,1-.172.2,1.292,1.292,0,0,1-.576.271,1.861,1.861,0,0,1-.71.011,1.437,1.437,0,0,1-.617-.257.894.894,0,0,1-.206-.212.884.884,0,0,1-.071-.116,1.089,1.089,0,0,1-.048-.12,1.14,1.14,0,0,1-.046-.4c.007-.1.014-.159,0-.161s-.038.048-.074.148a1.044,1.044,0,0,0-.046.451,1.135,1.135,0,0,0,.031.152,1.077,1.077,0,0,0,.061.157.97.97,0,0,0,.071.127.722.722,0,0,0-.114-.033,1.076,1.076,0,0,0-.166-.025,1.144,1.144,0,0,0-.154,0,1.05,1.05,0,0,0-.429.141c-.09.056-.133.1-.129.1s.062-.009.158-.037a1.153,1.153,0,0,1,.4-.042,1.045,1.045,0,0,1,.126.021.937.937,0,0,1,.129.043.915.915,0,0,1,.25.155,1.277,1.277,0,0,1,.251.291,3.237,3.237,0,0,1,.26.91c.005.011.012.021.018.032v0a1.294,1.294,0,0,1-.138.62.8.8,0,0,1-.158.212.791.791,0,0,1-.187.139.559.559,0,0,1-.3.079.287.287,0,0,1-.162-.056l-.018-.014-.009-.007-.008-.01c-.011-.013-.023-.025-.035-.037s-.021-.032-.032-.047l-.016-.023a.147.147,0,0,0-.011-.018.376.376,0,0,1-.042-.17.491.491,0,0,1,.024-.16l.008-.024a.031.031,0,0,0,0-.008s0,0-.007-.015a.019.019,0,1,1,.021-.007c.063.052.114.1.158.092s.08-.068.07-.194a.367.367,0,0,0-.034-.112.3.3,0,0,0-.333-.152.329.329,0,0,0-.06.017.514.514,0,0,0-.179.12.78.78,0,0,0-.195.353.851.851,0,0,0,.013.468l.022.062c.008.02.017.035.026.054.018.035.036.071.055.107s.05.07.076.1l.02.026.024.025.051.049A.871.871,0,0,0,1930.994,1170.518Zm1.7-2.05c.82-.371,1.306,1.027,1.306,1.027C1932.58,1169.232,1932.693,1168.468,1932.693,1168.468Z" transform="translate(-1930.142 -1165.657)"/>
    </g>
    <g id="Group_77" data-name="Group 77" transform="translate(1438.301 1019.239)">
      <path id="Path_129" data-name="Path 129" d="M1444.1,1071.864l.056.038.028.019.029.014c.038.018.076.036.114.052s.074.022.111.032c.019,0,.036.01.056.013l.062.009a.819.819,0,0,0,.444-.079.751.751,0,0,0,.3-.253.491.491,0,0,0,.078-.193.32.32,0,0,0,0-.06.286.286,0,0,0-.209-.284.348.348,0,0,0-.113-.01c-.121.015-.168.064-.169.1s.056.082.117.131a.209.209,0,0,1,.025.027l-.027-.006c-.016-.006-.012,0-.015,0l-.008,0-.021.012a.485.485,0,0,1-.146.055.36.36,0,0,1-.168-.007l-.019-.007-.024-.011-.051-.021-.042-.026-.011-.006-.008-.008-.017-.014a.275.275,0,0,1-.085-.141.538.538,0,0,1,.016-.3.77.77,0,0,1,.095-.2.779.779,0,0,1,.169-.191,1.244,1.244,0,0,1,.558-.252h0l.034.01a3.122,3.122,0,0,1,.91.067,1.215,1.215,0,0,1,.323.18.865.865,0,0,1,.195.206.888.888,0,0,1,.066.113,1.059,1.059,0,0,1,.044.115,1.1,1.1,0,0,1,.039.388c-.008.1-.014.153,0,.156s.036-.046.071-.142a1.014,1.014,0,0,0,.049-.433,1.172,1.172,0,0,0-.027-.146,1.053,1.053,0,0,0-.056-.152.708.708,0,0,0-.053-.1.9.9,0,0,0,.133.042,1.027,1.027,0,0,0,.161.027,1.123,1.123,0,0,0,.149,0,1,1,0,0,0,.417-.131c.087-.053.129-.091.125-.1s-.059.009-.151.036a1.1,1.1,0,0,1-.389.036,1.043,1.043,0,0,1-.122-.021.9.9,0,0,1-.124-.044.878.878,0,0,1-.24-.153,1.382,1.382,0,0,1-.363-.532,1.8,1.8,0,0,1-.128-.672,1.247,1.247,0,0,1,.144-.6.828.828,0,0,1,.339-.332.535.535,0,0,1,.291-.072.276.276,0,0,1,.155.057l.017.013.009.006.008.01a.429.429,0,0,0,.033.036c.01.016.019.031.03.046l.015.022.01.017a.36.36,0,0,1,.038.164.473.473,0,0,1-.026.154c0,.01-.006.017-.007.023a.024.024,0,0,0,0,.008s0,0,.006.014a.2.2,0,0,1,.011.026.172.172,0,0,1-.031-.019c-.06-.051-.108-.1-.151-.091s-.078.064-.07.186a.346.346,0,0,0,.031.109.283.283,0,0,0,.255.158.271.271,0,0,0,.063-.006.332.332,0,0,0,.058-.016.5.5,0,0,0,.175-.113.753.753,0,0,0,.193-.337.82.82,0,0,0-.005-.451l-.021-.06c-.007-.019-.016-.035-.024-.052-.016-.034-.033-.069-.052-.1s-.047-.068-.072-.1l-.019-.026-.023-.024-.048-.047a.837.837,0,0,0-.515-.219,1.068,1.068,0,0,0-.635.173,1.352,1.352,0,0,0-.527.615,1.533,1.533,0,0,0-.115.442,5.014,5.014,0,0,0-2.7-1.107l0,0v0h0l0,0a5.129,5.129,0,0,0,1.473,2.425,1.462,1.462,0,0,0-.252.136,1.349,1.349,0,0,0-.505.631,1.066,1.066,0,0,0-.051.656A.837.837,0,0,0,1444.1,1071.864Zm.068-3.5s1.414.186,1.224,1.032C1445.395,1069.4,1444.7,1069.652,1444.171,1068.364Z" transform="translate(-1443.124 -1067.424)"/>
    </g>
    <g id="Group_78" data-name="Group 78" transform="translate(1438.243 1044.911)">
      <path id="Path_130" data-name="Path 130" d="M1447.5,1169.494l.051-.049.024-.024.02-.026c.027-.035.052-.07.077-.105s.038-.071.055-.106c.009-.018.017-.034.026-.054l.022-.061a.852.852,0,0,0,.013-.468.781.781,0,0,0-.195-.353.513.513,0,0,0-.179-.12.332.332,0,0,0-.06-.017.29.29,0,0,0-.066-.007.293.293,0,0,0-.267.159.364.364,0,0,0-.033.112c-.01.126.029.185.07.194s.095-.039.158-.091a.233.233,0,0,1,.033-.02.173.173,0,0,1-.011.027c-.01.016-.006.011-.007.015a.034.034,0,0,0,0,.008c0,.006,0,.014.007.024a.5.5,0,0,1,.025.16.377.377,0,0,1-.042.17l-.011.018c0,.006-.011.015-.016.022s-.021.031-.031.047a.457.457,0,0,0-.035.037l-.008.01-.009.006-.018.014a.286.286,0,0,1-.162.056.56.56,0,0,1-.3-.079.862.862,0,0,1-.346-.351,1.293,1.293,0,0,1-.138-.62v0l.017-.032a3.239,3.239,0,0,1,.26-.911,1.257,1.257,0,0,1,.251-.291.939.939,0,0,1,.379-.2,1.046,1.046,0,0,1,.126-.021,1.15,1.15,0,0,1,.4.042c.1.028.152.046.158.036s-.04-.046-.129-.1a1.052,1.052,0,0,0-.429-.141,1.124,1.124,0,0,0-.154,0,1.106,1.106,0,0,0-.166.025.794.794,0,0,0-.115.033.915.915,0,0,0,.071-.127,1.035,1.035,0,0,0,.061-.157,1.114,1.114,0,0,0,.031-.152,1.042,1.042,0,0,0-.046-.451c-.036-.1-.066-.151-.074-.148s0,.061,0,.161a1.143,1.143,0,0,1-.046.4,1.124,1.124,0,0,1-.048.119.962.962,0,0,1-.071.117.908.908,0,0,1-.206.212,1.435,1.435,0,0,1-.617.257,1.856,1.856,0,0,1-.71-.011,1.293,1.293,0,0,1-.576-.272.86.86,0,0,1-.266-.415.556.556,0,0,1-.012-.311.285.285,0,0,1,.09-.146l.017-.014.008-.008.011-.006a.425.425,0,0,0,.044-.026l.053-.021.026-.011.019-.007a.375.375,0,0,1,.175,0,.5.5,0,0,1,.151.059l.022.012.008,0s0,0,.016,0l.029-.006a.222.222,0,0,1-.026.028c-.065.051-.125.089-.124.134s.049.093.174.111a.351.351,0,0,0,.117-.008.293.293,0,0,0,.214-.226.288.288,0,0,0,.007-.065.314.314,0,0,0,0-.062.509.509,0,0,0-.078-.2.777.777,0,0,0-.3-.267.857.857,0,0,0-.46-.09l-.065.009c-.021,0-.038.009-.058.013l-.116.031c-.039.016-.079.033-.119.052l-.03.014-.029.019-.058.039a.869.869,0,0,0-.331.477,1.11,1.11,0,0,0,.042.682,1.4,1.4,0,0,0,.514.664,1.579,1.579,0,0,0,.425.21,5.207,5.207,0,0,0-1.693,2.514l0,0h0v0l0,0a5.33,5.33,0,0,0,2.774-.988,1.51,1.51,0,0,0,.085.284,1.4,1.4,0,0,0,.536.647,1.107,1.107,0,0,0,.656.19A.868.868,0,0,0,1447.5,1169.494Zm-3.543-.8s.486-1.4,1.306-1.027C1445.26,1167.664,1445.373,1168.428,1443.954,1168.69Z" transform="translate(-1442.904 -1164.852)"/>
    </g>
  </g>
</svg>
