<svg xmlns="http://www.w3.org/2000/svg" xmlns:xlink="http://www.w3.org/1999/xlink" width="581.71" height="152.966" viewBox="0 0 581.71 152.966">
  <defs>
    <linearGradient id="linear-gradient" y1="0.5" x2="1" y2="0.5" gradientUnits="objectBoundingBox">
      <stop offset="0" stop-color="#fff16c"/>
      <stop offset="1" stop-color="#c7a40f"/>
    </linearGradient>
    <linearGradient id="linear-gradient-2" x1="0" y1="0.5" x2="1" y2="0.5" xlink:href="#linear-gradient"/>
    <linearGradient id="linear-gradient-3" x1="0" y1="0.498" x2="1" y2="0.498" xlink:href="#linear-gradient"/>
    <linearGradient id="linear-gradient-4" x1="0" y1="0.5" x2="1" y2="0.5" xlink:href="#linear-gradient"/>
    <linearGradient id="linear-gradient-5" x1="0" y1="0.5" x2="1" y2="0.5" xlink:href="#linear-gradient"/>
    <linearGradient id="linear-gradient-6" x1="0" y1="0.5" x2="1.001" y2="0.5" xlink:href="#linear-gradient"/>
    <linearGradient id="linear-gradient-7" x1="0.001" y1="0.5" x2="0.995" y2="0.5" xlink:href="#linear-gradient"/>
    <linearGradient id="linear-gradient-8" x1="-0.005" y1="0.5" x2="0.995" y2="0.5" xlink:href="#linear-gradient"/>
    <linearGradient id="linear-gradient-9" x1="0" y1="0.501" x2="1" y2="0.501" xlink:href="#linear-gradient"/>
    <linearGradient id="linear-gradient-11" x1="0" y1="0.5" x2="0.999" y2="0.5" xlink:href="#linear-gradient"/>
    <linearGradient id="linear-gradient-12" x1="-0.001" y1="0.5" x2="1" y2="0.5" xlink:href="#linear-gradient"/>
    <linearGradient id="linear-gradient-13" x1="0" y1="0.5" x2="0.999" y2="0.5" xlink:href="#linear-gradient"/>
    <linearGradient id="linear-gradient-14" x1="0.003" y1="0.5" x2="1.002" y2="0.5" xlink:href="#linear-gradient"/>
    <linearGradient id="linear-gradient-15" x1="0" y1="0.501" x2="1" y2="0.501" xlink:href="#linear-gradient"/>
  </defs>
  <g id="Group_14" data-name="Group 14" transform="translate(-1.3 -0.004)">
    <g id="Group_9" data-name="Group 9">
      <path id="Path_23" data-name="Path 23" d="M550.72,740c-24.93,31.42,0,35.91,0,35.91C576.15,769.42,550.72,740,550.72,740Zm-1.08,27.51a1.2,1.2,0,1,1,.564,1.13A1.2,1.2,0,0,1,549.64,767.51Zm1.16-3.36c-7.49-14.33,0-16.38,0-16.38,7.64,2.96,0,16.38,0,16.38Z" transform="translate(-257.62 -622.94)" fill="url(#linear-gradient)"/>
      <path id="Path_24" data-name="Path 24" d="M554.13,737.67a3.3,3.3,0,0,0-3.3-3.3h0a3.3,3.3,0,0,0-3.3,3.3h0a3.3,3.3,0,0,0,3.3,3.3h0a3.3,3.3,0,0,0,3.3-3.3Z" transform="translate(-257.62 -622.94)" fill="url(#linear-gradient-2)"/>
      <path id="Path_25" data-name="Path 25" d="M559.58,725s-8.7,11.32-8.75,11.23c0,.09-8.74-11.23-8.74-11.23,2.85-1.33,8.73-11.29,8.74-11.27C550.93,713.53,556.72,723.63,559.58,725Z" transform="translate(-257.62 -622.94)" fill="url(#linear-gradient-3)"/>
    </g>
    <g id="Group_11" data-name="Group 11">
      <g id="Group_10" data-name="Group 10">
        <path id="Path_26" data-name="Path 26" d="M440.69,685.4l2.84.05c1.82,0,4.46,0,7.72-.07,6.53-.14,15.49-.78,25.32-.92,2.46-.08,4.86,0,7.17,0a63.1,63.1,0,0,1,6.61.4,107.846,107.846,0,0,1,11.16,1.79c1.58.33,3,.7,4.24,1s2.31.64,3.18.91l2.68.91-2.52-1.32c-.82-.4-1.85-.83-3-1.35s-2.6-1-4.16-1.53a76.3,76.3,0,0,0-11.21-2.79,55.528,55.528,0,0,0-6.83-.75c-2.36-.08-4.81-.2-7.31-.12A208.816,208.816,0,0,0,451.14,684Z" transform="translate(-257.62 -622.94)" fill="url(#linear-gradient-4)"/>
        <path id="Path_27" data-name="Path 27" d="M362.08,635.17a22.21,22.21,0,0,1,3.63-4.95,24,24,0,0,1,4.2-3.39,25.757,25.757,0,0,1,4.41-2.24l1.14-.42a5.779,5.779,0,0,1,.59-.19l.6-.18c.4-.13.8-.21,1.21-.3l.6-.14.61-.1a24.337,24.337,0,0,1,4.8-.3,30.779,30.779,0,0,1,4.64.49,36.479,36.479,0,0,1,12.36,4.84c.61.37,1.19.78,1.78,1.18.29.2.57.42.85.63s.57.43.83.65l.81.67c.27.23.52.47.78.71l.38.35.37.36.73.74.69.76.34.39.32.4c.22.26.43.53.64.79s.4.55.59.83a9.422,9.422,0,0,1,.56.84c.18.28.36.56.53.85.32.59.66,1.15.93,1.76a22,22,0,0,1,1.36,3.67l.21.93.11.47.07.47c.05.32.09.63.14.94a9.807,9.807,0,0,1,.07,1v1.86c0,.31-.05.62-.08.92v.46a3.111,3.111,0,0,1-.08.44,5.355,5.355,0,0,1-.16.89c-.05.29-.15.58-.23.87l-.11.43-.15.41c-.1.28-.2.55-.29.83l-.36.79c-.06.13-.11.26-.18.39l-.2.37c-.14.25-.27.5-.41.74l-.45.69c-.08.12-.15.24-.23.35l-.25.32-.5.64-.53.6-.27.29-.28.27-.57.54c-.19.17-.39.32-.59.48a11.4,11.4,0,0,1-1.21.89,15,15,0,0,1-5.09,2.14,13.88,13.88,0,0,1-4.77.18,13,13,0,0,1-3.82-1.12l-.4-.19-.37-.2-.7-.4c-.43-.3-.84-.57-1.19-.84l-.95-.81-.29-.3a5.45,5.45,0,1,1,2.75.5l.36.18.68.28.35.14c.12.05.25.08.37.12a12,12,0,0,0,3.4.65,12.491,12.491,0,0,0,4-.47,12.858,12.858,0,0,0,4.13-2.05c.32-.26.66-.5,1-.79a5.013,5.013,0,0,0,.47-.43c.15-.15.29-.31.44-.47a2.394,2.394,0,0,0,.22-.23l.21-.25.41-.51.38-.55.2-.27c.06-.1.11-.2.17-.29l.34-.59c.1-.2.2-.41.31-.61l.15-.31a3.043,3.043,0,0,1,.13-.32l.25-.65.21-.68.11-.34.07-.35c.06-.23.11-.47.16-.7s.07-.48.1-.72,0-.24.05-.36v-2.62l-.08-.76a5.194,5.194,0,0,0-.14-.77l-.07-.38-.11-.38c-.06-.26-.13-.52-.2-.77a22.56,22.56,0,0,0-8.08-11c-.24-.2-.49-.38-.75-.56s-.5-.38-.76-.55c-.53-.34-1.05-.7-1.61-1a30.988,30.988,0,0,0-3.43-1.8,31.881,31.881,0,0,0-7.59-2.35,25.837,25.837,0,0,0-4-.4,20,20,0,0,0-4,.28l-.5.08-.48.11a9.832,9.832,0,0,0-1,.25l-.48.14-.48.16-1,.37a22.127,22.127,0,0,0-3.7,1.87,20.13,20.13,0,0,0-3.45,2.78,18.262,18.262,0,0,0-3,4,20,20,0,0,0-2,5.23c-.13.48-.19,1-.28,1.47s-.12,1-.18,1.52a25.246,25.246,0,0,0,1.15,9.76,27.671,27.671,0,0,0,1.27,3.3c.27.54.51,1.09.82,1.62.14.26.28.54.44.8l.48.78c.15.27.33.52.5.78s.35.51.53.77l1.18,1.56c.2.26.39.53.59.78l.63.76.63.76c.21.26.42.52.65.76.45.49.89,1,1.35,1.47s.95,1,1.42,1.42,1,.93,1.5,1.37l.76.68c.26.22.54.42.8.64l.81.63c.27.21.54.42.83.61l1.71,1.19,1.79,1.09c.3.2.62.35.93.53l.93.5a65.581,65.581,0,0,0,8,3.52c.68.27,1.39.5,2.09.75l1.06.37,1.06.34,2.15.68,2.18.65q1.08.33,2.19.63l2.2.61,2.2.55,1.11.27c.36.09.74.16,1.11.24l2.23.45c.75.15,1.51.26,2.26.39,1.5.27,3,.44,4.54.64.76.1,1.53.16,2.29.24s1.53.17,2.29.21c1.54.11,3.07.23,4.61.29,3.07.16,6.14.19,9.21.21s6.12,0,9.15-.13,6.05-.17,9-.26,5.95-.16,8.85-.22c5.81-.15,11.48-.37,16.93-.31,2.72,0,5.39.15,8,.34s5.12.51,7.54.91a52.3,52.3,0,0,1,13.14,4,29.794,29.794,0,0,1,5.22,3.08,14.56,14.56,0,0,1,3.76,4,8.639,8.639,0,0,1,1,2.32,8.149,8.149,0,0,1,.24,2.32,2.125,2.125,0,0,1-.05.56,5.351,5.351,0,0,0-.09.53,6.9,6.9,0,0,1-.25,1,8.246,8.246,0,0,1-.84,1.74,6.9,6.9,0,0,1-2.3,2.25,4,4,0,0,1-2.3.57,3.391,3.391,0,0,1-1.39-.43,3.167,3.167,0,0,1-.31-.21L513,711a3.166,3.166,0,0,1,.45.2,3.5,3.5,0,0,0,3.46-.33,6.691,6.691,0,0,0,2.08-2.22,7.861,7.861,0,0,0,.73-1.66,6.63,6.63,0,0,0,.2-1,1.374,1.374,0,0,1,.06-.49v-.52a7.521,7.521,0,0,0-.29-2.12,8,8,0,0,0-1-2.1,13.76,13.76,0,0,0-3.65-3.65,29.137,29.137,0,0,0-5.13-2.84A51.382,51.382,0,0,0,497,690.71c-2.39-.33-4.86-.6-7.42-.73s-5.19-.18-7.88-.15c-5.39,0-11,.39-16.85.66-2.92.12-5.86.25-8.84.4s-6,.3-9,.43-6.12.24-9.22.3-6.21.07-9.34,0c-1.57,0-3.13-.12-4.7-.21-.79,0-1.57-.11-2.35-.17s-1.57-.11-2.35-.21c-1.56-.18-3.13-.32-4.69-.58-.77-.12-1.55-.22-2.33-.36l-2.32-.43-1.16-.22-1.15-.27-2.29-.53-2.24-.58c-.75-.2-1.5-.39-2.24-.61l-2.23-.62-2.21-.67-1.1-.33-1.09-.37c-.73-.24-1.46-.47-2.18-.73a69.581,69.581,0,0,1-8.42-3.59l-1-.52c-.34-.18-.67-.35-1-.55l-1.95-1.16-1.87-1.25c-.31-.2-.61-.43-.91-.66l-.89-.67c-.29-.23-.6-.44-.88-.68l-.84-.72c-.56-.48-1.12-1-1.64-1.47s-1.06-1-1.56-1.51l-1.47-1.57c-.25-.25-.47-.53-.7-.8s-.46-.53-.68-.8l-.68-.81c-.23-.26-.43-.54-.65-.81l-1.26-1.64c-.2-.28-.4-.58-.61-.86a10.273,10.273,0,0,1-.58-.88l-.56-.88c-.18-.3-.34-.61-.51-.91-.36-.59-.64-1.22-.95-1.83a29.845,29.845,0,0,1-1.49-3.75,33.28,33.28,0,0,1-1-3.8,31.341,31.341,0,0,1-.46-3.79,25.33,25.33,0,0,1,2.82-13.65Z" transform="translate(-257.62 -622.94)" fill="url(#linear-gradient-5)"/>
        <path id="Path_28" data-name="Path 28" d="M475.82,667.22a1.26,1.26,0,0,0-1,.42,3,3,0,0,0-.72,1.38,6.09,6.09,0,0,0,.95,4.63,10.391,10.391,0,0,0,2.81,2.78,19.453,19.453,0,0,0,4.28,2.19,29.939,29.939,0,0,0,3.84,1.15c1,.22,1.7.31,1.78.17s-.4-.63-1.17-1.33l-2.9-2.56a26.779,26.779,0,0,1-2.85-2.95,17.34,17.34,0,0,1-1.5-2.2c-.57-.91-1.14-1.65-1.67-2.36A2.88,2.88,0,0,0,475.82,667.22Z" transform="translate(-257.62 -622.94)" fill="url(#linear-gradient-6)"/>
        <path id="Path_29" data-name="Path 29" d="M490.3,668.51c-.54-.19-1.24.15-1.77,1.06a5.1,5.1,0,0,0-.26,3.93,8.509,8.509,0,0,0,1.64,2.85,16.161,16.161,0,0,0,3,2.71c2.1,1.5,4,2.47,4.21,2.3s-1.11-2-2.41-4a21.9,21.9,0,0,1-1.63-3,13.751,13.751,0,0,1-.72-2.1c-.26-.85-.55-1.58-.82-2.26A2.36,2.36,0,0,0,490.3,668.51Z" transform="translate(-257.62 -622.94)" fill="url(#linear-gradient-7)"/>
        <path id="Path_30" data-name="Path 30" d="M457.27,665.5a1.41,1.41,0,0,0-1,.54,3.408,3.408,0,0,0-.42.66,2.85,2.85,0,0,0-.27.91,6.74,6.74,0,0,0,1.41,5,11.56,11.56,0,0,0,3.32,2.84,21.489,21.489,0,0,0,4.9,2.08,31.768,31.768,0,0,0,4.32,1c1.15.17,1.9.21,2,.05s-.49-.66-1.39-1.37l-3.4-2.6a29.3,29.3,0,0,1-3.37-3,18.586,18.586,0,0,1-1.83-2.31c-.71-1-1.39-1.74-2-2.48A3.17,3.17,0,0,0,457.27,665.5Z" transform="translate(-257.62 -622.94)" fill="url(#linear-gradient-8)"/>
      </g>
      <path id="Path_31" data-name="Path 31" d="M567.14,665.74a31.639,31.639,0,0,0-3.25-8.11,37.41,37.41,0,0,0-2.26-3.54c-.41-.56-.85-1.09-1.27-1.62a20,20,0,0,0-1.34-1.54,36.436,36.436,0,0,0-5.88-5.22l-1.57-1.08-1.63-1-.81-.47-.83-.4-1.66-.8-1.69-.66-.84-.32-.86-.25-1.69-.5-1.71-.35-.84-.18-.86-.09-1.68-.19c-.56,0-1.11-.05-1.65-.08H533.2a35.077,35.077,0,0,0-6.17.72,26.869,26.869,0,0,0-5.55,1.78A16.671,16.671,0,0,0,517,645a11.09,11.09,0,0,0-2.77,4.24l-.38,1.14c-.09.37-.17.75-.23,1.11a16.68,16.68,0,0,0-.23,2.17,11.9,11.9,0,0,0,1.79,7.17,5.78,5.78,0,0,0,4.64,2.62,9,9,0,0,0,1.91-.16,4.089,4.089,0,0,0,1.88.47,4,4,0,1,0-2.19-.66,8.267,8.267,0,0,1-1.57,0,5.589,5.589,0,0,1-2.16-.73,5.731,5.731,0,0,1-1.86-2,11,11,0,0,1-1.13-6.66,10.7,10.7,0,0,1,3.62-7.32,14.65,14.65,0,0,1,4.11-2.39,25.235,25.235,0,0,1,5.12-1.28,32.117,32.117,0,0,1,5.69-.3l1.48.08a10.473,10.473,0,0,1,1.48.16l1.49.26.74.13.74.2,1.5.4,1.47.53.75.27.73.33,1.46.67,1.43.79.72.4.7.46,1.39.92,1.35,1a32.518,32.518,0,0,1,4.94,4.88,13.68,13.68,0,0,1,1.1,1.41c.34.48.71,1,1,1.46a32.567,32.567,0,0,1,1.79,3.16,26.661,26.661,0,0,1,2.42,6.95,23.411,23.411,0,0,1,.37,7.47,24.57,24.57,0,0,1-6.76,13.88,52,52,0,0,1-14,10.38,89.239,89.239,0,0,1-8.44,3.92c-.73.29-1.47.59-2.21.85l-2.24.77c-.74.25-1.48.53-2.24.76l-2.31.64a96.721,96.721,0,0,1-19.38,3.16c-13.42.88-27.52-.52-41.85-3-3.59-.63-7.13-1.3-10.7-2l-10.64-2.11-10.51-2-10.37-1.94c-13.74-2.5-27.12-4.54-40-5.78l-4.79-.47-4.75-.32c-3.14-.19-6.24-.44-9.29-.53-6.1-.24-12-.3-17.78-.19a197.491,197.491,0,0,0-31.85,3A111.658,111.658,0,0,0,286.86,701a72.131,72.131,0,0,0-9.6,5.09c-1.43.84-2.71,1.82-4,2.67-.61.46-1.19.93-1.76,1.37s-1.13.87-1.63,1.34a53.825,53.825,0,0,0-5.19,5.06c-.69.8-1.34,1.51-1.89,2.2l-1.45,1.91a17.694,17.694,0,0,0-1.07,1.55l-.75,1.14-.6.93.68-.87.83-1.08c.33-.42.71-.92,1.19-1.44s1-1.13,1.59-1.78,1.29-1.29,2-2a56.992,56.992,0,0,1,5.45-4.58c.52-.42,1.11-.78,1.69-1.18s1.18-.81,1.8-1.21c1.29-.74,2.58-1.61,4-2.33a73.285,73.285,0,0,1,9.62-4.32,113.32,113.32,0,0,1,25-5.89c1.16-.15,2.34-.29,3.52-.42a77.87,77.87,0,0,1,17.46,2.43,125.722,125.722,0,0,1,16,5.18c5.65,2.2,11.57,4.88,17.78,7.84s12.7,6.22,19.65,9.39c1.75.78,3.57,1.5,5.37,2.26l2.74,1.14,1.37.56,1.42.49c1.88.66,3.79,1.31,5.7,2l1.44.5c.48.16,1,.28,1.47.42l3,.82,3,.82,1.48.4c.49.12,1,.22,1.49.33l5.92,1.23,1.46.31,1.48.21,2.94.43,2.92.41,1.44.21,1.46.11L439,735l1.42.1h1.41l2.81.05h5.52l5.39-.25c.88-.06,1.77-.06,2.64-.16l2.59-.27,5.08-.56c1.66-.23,3.29-.53,4.89-.8l2.38-.4c.79-.14,1.57-.25,2.33-.44l4.51-1c1.47-.35,2.93-.63,4.32-1.06l4.1-1.18,2-.57,1-.29.95-.32,7.14-2.48,6.25-2.52c2-.76,3.72-1.62,5.35-2.37l4.45-2.07c5.24-2.7,8.09-4.24,8.09-4.24l-8.59,3-4.65,1.47c-1.7.53-3.52,1.16-5.53,1.67l-6.39,1.77-7.22,1.69a170.9,170.9,0,0,1-35.89,4.06h-5.14c-.86,0-1.73-.05-2.61-.1l-2.63-.16-2.66-.16-1.34-.08-1.34-.15-5.42-.62-1.37-.15-1.36-.23-2.75-.46-2.77-.46-1.39-.23-1.39-.31-5.58-1.24c-.47-.11-.94-.2-1.41-.32l-1.39-.39-2.81-.77-2.8-.78c-.47-.13-.94-.24-1.4-.39l-1.37-.46-5.44-1.81-1.35-.44-1.32-.52-2.63-1c-1.74-.69-3.48-1.32-5.19-2-6.87-2.88-13.53-5.86-20-8.5s-12.75-5-18.77-6.79A122.083,122.083,0,0,0,338.4,696c1.85,0,3.72,0,5.62.06q8.43.21,17.43.89c3,.2,6,.56,9.08.85l4.63.46,4.68.61c12.56,1.61,25.68,3.93,39.27,6.64l20.74,4.23L450.49,712c3.58.73,7.24,1.43,10.92,2.07,14.72,2.54,29.51,3.91,43.87,2.73a101.216,101.216,0,0,0,20.9-3.85l2.5-.76c.82-.27,1.63-.6,2.44-.9l2.43-.9c.8-.31,1.58-.65,2.36-1a91.4,91.4,0,0,0,9-4.51,57.848,57.848,0,0,0,15.43-12.32,33.843,33.843,0,0,0,5.28-8.26,28.172,28.172,0,0,0,2.38-9.4A28.911,28.911,0,0,0,567.14,665.74Z" transform="translate(-257.62 -622.94)" fill="url(#linear-gradient-9)"/>
    </g>
    <g id="Group_13" data-name="Group 13">
      <g id="Group_12" data-name="Group 12">
        <path id="Path_32" data-name="Path 32" d="M658.86,685.4l-2.83.05c-1.82,0-4.46,0-7.72-.07-6.53-.14-15.5-.78-25.32-.92-2.46-.08-4.86,0-7.18,0a62.738,62.738,0,0,0-6.6.4,107.863,107.863,0,0,0-11.16,1.79c-1.58.33-3,.7-4.25,1s-2.3.64-3.17.91l-2.68.91,2.51-1.32c.83-.4,1.86-.83,3.06-1.35s2.6-1,4.15-1.53a76.989,76.989,0,0,1,11.21-2.79,55.919,55.919,0,0,1,6.84-.75c2.36-.08,4.8-.2,7.31-.12A208.8,208.8,0,0,1,648.42,684Z" transform="translate(-257.62 -622.94)" fill="url(#linear-gradient-4)"/>
        <path id="Path_33" data-name="Path 33" d="M737.48,635.17a22.528,22.528,0,0,0-3.63-4.95,24.4,24.4,0,0,0-4.2-3.39,26.128,26.128,0,0,0-4.41-2.24l-1.15-.42a4.912,4.912,0,0,0-.58-.19l-.6-.18c-.4-.13-.81-.21-1.21-.3l-.6-.14-.61-.1a24.337,24.337,0,0,0-4.8-.3,30.91,30.91,0,0,0-4.65.49,35.374,35.374,0,0,0-8.53,2.77,33.32,33.32,0,0,0-3.82,2.07c-.61.37-1.2.78-1.78,1.18-.29.2-.57.42-.85.63s-.57.43-.84.65l-.81.67-.77.71-.39.35-.36.36-.73.74-.69.76-.34.39-.33.4-.63.79c-.2.28-.4.55-.59.83a7.65,7.65,0,0,0-.56.84c-.18.28-.37.56-.54.85-.31.59-.66,1.15-.92,1.76a22,22,0,0,0-1.36,3.67c-.07.31-.14.62-.22.93l-.1.47-.07.47a7.337,7.337,0,0,1-.14.94c-.04.31,0,.63-.07,1v1.86l.09.92v.46a.843.843,0,0,0,.08.44c.05.3.11.6.16.89s.15.58.23.87l.11.43.15.41.29.83c.12.26.24.52.35.79l.18.39.21.37.4.74.46.69c.08.12.15.24.23.35l.25.32.49.64.54.6.27.29.28.27.56.54.59.48a13.871,13.871,0,0,0,1.21.89,15,15,0,0,0,5.1,2.14,13.88,13.88,0,0,0,4.77.18,12.939,12.939,0,0,0,3.81-1.12l.4-.19.38-.2.7-.4c.43-.3.84-.57,1.19-.84l.94-.81a3.98,3.98,0,0,0,.29-.3,5.45,5.45,0,1,0-2.74.5l-.37.18-.67.28-.35.14c-.12.05-.25.08-.37.12a12.079,12.079,0,0,1-3.4.65,12.432,12.432,0,0,1-4-.47,12.76,12.76,0,0,1-4.13-2.05c-.33-.26-.66-.5-1-.79l-.46-.43c-.15-.15-.3-.31-.44-.47l-.23-.23-.2-.25-.42-.51-.38-.55-.19-.27c-.06-.1-.11-.2-.17-.29s-.23-.39-.35-.59l-.3-.61-.15-.31c0-.11-.09-.22-.13-.32l-.26-.65-.2-.68-.11-.34-.08-.35-.15-.7a5.939,5.939,0,0,0-.1-.72,1.358,1.358,0,0,1,0-.36v-2.62l.08-.76c.05-.26.09-.51.14-.77l.07-.38.1-.38.21-.77a22.56,22.56,0,0,1,8.08-11c.23-.2.49-.38.74-.56s.51-.38.77-.55c.53-.34,1.05-.7,1.61-1a30.977,30.977,0,0,1,3.43-1.8,31.879,31.879,0,0,1,7.59-2.35,25.717,25.717,0,0,1,4-.4,20,20,0,0,1,4,.28l.5.08.48.11a9.832,9.832,0,0,1,1,.25l.48.14.48.16,1,.37a22.514,22.514,0,0,1,3.7,1.87,20.135,20.135,0,0,1,3.45,2.78,18.266,18.266,0,0,1,3,4,20,20,0,0,1,1.95,5.23c.13.48.19,1,.28,1.47s.12,1,.18,1.52a23.866,23.866,0,0,1,0,3.17,24.794,24.794,0,0,1-.37,3.27,28.706,28.706,0,0,1-.82,3.32,29.5,29.5,0,0,1-1.27,3.3c-.27.54-.51,1.09-.82,1.62-.15.26-.28.54-.44.8l-.48.78c-.16.27-.33.52-.51.78s-.34.51-.53.77l-1.17,1.56c-.2.26-.39.53-.6.78l-.62.76-.63.76c-.21.26-.42.52-.65.76L726,669.28c-.46.49-.95,1-1.42,1.42s-1,.93-1.5,1.37l-.77.68c-.25.22-.53.42-.8.64l-.81.63c-.26.21-.54.42-.82.61l-1.72,1.19-1.79,1.09c-.29.2-.61.35-.92.53l-.93.5a65.573,65.573,0,0,1-7.95,3.52c-.69.27-1.39.5-2.09.75l-1.06.37-1.07.34-2.14.68-2.18.65q-1.08.33-2.19.63l-2.2.61-2.21.55-1.1.27-1.11.24L687,687c-.74.15-1.5.26-2.25.39-1.5.27-3,.44-4.54.64-.76.1-1.53.16-2.29.24s-1.53.17-2.3.21c-1.53.11-3.06.23-4.6.29-3.07.16-6.15.19-9.21.21s-6.12,0-9.16-.13-6-.17-9-.26-6-.16-8.85-.22c-5.81-.15-11.48-.37-16.93-.31-2.72,0-5.39.15-8,.34s-5.12.51-7.55.91a52.353,52.353,0,0,0-13.13,4,29.881,29.881,0,0,0-5.23,3.08,14.521,14.521,0,0,0-3.75,4,8.644,8.644,0,0,0-1,2.32A8.151,8.151,0,0,0,579,705c0,.19,0,.37,0,.56a4.882,4.882,0,0,0,.09.53,5.847,5.847,0,0,0,.25,1,8.252,8.252,0,0,0,.84,1.74,6.81,6.81,0,0,0,2.3,2.25,3.93,3.93,0,0,0,2.3.57,3.44,3.44,0,0,0,1.39-.43,3.186,3.186,0,0,0,.31-.21l.09-.08a2.664,2.664,0,0,0-.45.2,3.721,3.721,0,0,1-1.35.31,3.779,3.779,0,0,1-2.12-.64,6.569,6.569,0,0,1-2.07-2.22,7.384,7.384,0,0,1-.73-1.66,5.5,5.5,0,0,1-.2-1,4.093,4.093,0,0,1-.06-.49v-.52a7.879,7.879,0,0,1,.28-2.12,8,8,0,0,1,1-2.1,13.859,13.859,0,0,1,3.64-3.65,29.5,29.5,0,0,1,5.13-2.84,51.459,51.459,0,0,1,12.92-3.59c2.39-.33,4.86-.6,7.42-.73s5.19-.18,7.88-.15c5.39,0,11,.39,16.85.66,2.92.12,5.85.25,8.84.4s6,.3,9,.43,6.12.24,9.22.3,6.21.07,9.34,0c1.57,0,3.13-.12,4.7-.21.78,0,1.57-.11,2.35-.17s1.57-.11,2.35-.21c1.56-.18,3.13-.32,4.68-.58.78-.12,1.56-.22,2.34-.36l2.32-.43,1.15-.22,1.15-.27,2.3-.53,2.24-.58c.75-.2,1.5-.39,2.24-.61l2.22-.62,2.21-.67,1.11-.33,1.09-.37c.73-.24,1.46-.47,2.18-.73a69.6,69.6,0,0,0,8.42-3.59l1-.52c.33-.18.67-.35,1-.55l2-1.16,1.88-1.25c.31-.2.61-.43.9-.66l.89-.67c.3-.23.6-.44.88-.68l.84-.72c.57-.48,1.13-1,1.65-1.47s1.06-1,1.56-1.51l1.47-1.57c.25-.25.47-.53.7-.8s.46-.53.68-.8l.68-.81c.23-.26.43-.54.64-.81l1.26-1.64c.21-.28.41-.58.61-.86s.41-.58.59-.88l.56-.88c.18-.3.34-.61.51-.91.35-.59.64-1.22,1-1.83a30.392,30.392,0,0,0,3-11.34,25.42,25.42,0,0,0-2.98-13.55Z" transform="translate(-257.62 -622.94)" fill="url(#linear-gradient-11)"/>
        <path id="Path_34" data-name="Path 34" d="M623.73,667.22a1.24,1.24,0,0,1,1,.42,2.781,2.781,0,0,1,.72,1.38,6,6,0,0,1-.94,4.63,10.392,10.392,0,0,1-2.81,2.78,19.518,19.518,0,0,1-4.29,2.19,29,29,0,0,1-3.84,1.15c-1,.22-1.69.31-1.77.17s.4-.63,1.17-1.33l2.9-2.56a26.789,26.789,0,0,0,2.85-2.95,17.342,17.342,0,0,0,1.5-2.2c.57-.91,1.14-1.65,1.67-2.36a2.86,2.86,0,0,1,1.84-1.32Z" transform="translate(-257.62 -622.94)" fill="url(#linear-gradient-12)"/>
        <path id="Path_35" data-name="Path 35" d="M609.26,668.51c.54-.19,1.24.15,1.76,1.06a5.09,5.09,0,0,1,.27,3.93,8.388,8.388,0,0,1-1.65,2.85,16.1,16.1,0,0,1-2.95,2.71c-2.1,1.5-4,2.47-4.21,2.3s1.1-2,2.4-4a23.176,23.176,0,0,0,1.64-3,14.562,14.562,0,0,0,.72-2.1c.25-.85.54-1.58.81-2.26A2.38,2.38,0,0,1,609.26,668.51Z" transform="translate(-257.62 -622.94)" fill="url(#linear-gradient-13)"/>
        <path id="Path_36" data-name="Path 36" d="M642.29,665.5a1.43,1.43,0,0,1,1.05.54,3,3,0,0,1,.41.66,2.419,2.419,0,0,1,.27.91,6.69,6.69,0,0,1-1.41,5,11.419,11.419,0,0,1-3.32,2.84,21.41,21.41,0,0,1-4.89,2.08,32.205,32.205,0,0,1-4.33,1c-1.14.17-1.89.21-2,.05s.48-.66,1.39-1.37l3.4-2.6a30.158,30.158,0,0,0,3.37-3,18.585,18.585,0,0,0,1.83-2.31c.7-1,1.38-1.74,2-2.48A3.13,3.13,0,0,1,642.29,665.5Z" transform="translate(-257.62 -622.94)" fill="url(#linear-gradient-14)"/>
      </g>
      <path id="Path_37" data-name="Path 37" d="M532.42,665.74a31.642,31.642,0,0,1,3.25-8.11,37.421,37.421,0,0,1,2.26-3.54c.41-.56.85-1.09,1.27-1.62a16.424,16.424,0,0,1,1.34-1.54,36.427,36.427,0,0,1,5.88-5.22l1.57-1.08,1.63-1,.8-.47.84-.4,1.66-.8,1.69-.66c.28-.1.55-.22.84-.32l.85-.25,1.7-.5,1.71-.35.84-.18.85-.09,1.69-.19c.55,0,1.1-.05,1.65-.08h1.62a35.077,35.077,0,0,1,6.17.72,26.594,26.594,0,0,1,5.54,1.78,16.568,16.568,0,0,1,4.54,3.07,11.2,11.2,0,0,1,2.77,4.24c.13.39.25.77.38,1.14a6.45,6.45,0,0,1,.23,1.11,16.669,16.669,0,0,1,.23,2.17,12,12,0,0,1-1.79,7.17,6.251,6.251,0,0,1-2.25,2,6.12,6.12,0,0,1-2.39.61,9,9,0,0,1-1.91-.16,4.1,4.1,0,0,1-1.89.47,4,4,0,1,1,2.2-.66,8.267,8.267,0,0,0,1.57,0,5.5,5.5,0,0,0,2.15-.73,5.66,5.66,0,0,0,1.87-2,11,11,0,0,0,1.13-6.66,10.7,10.7,0,0,0-3.62-7.32,14.571,14.571,0,0,0-4.12-2.39,25,25,0,0,0-5.11-1.28,32.18,32.18,0,0,0-5.69-.3l-1.48.08a10.776,10.776,0,0,0-1.49.16l-1.48.26-.74.13-.74.2-1.5.4-1.48.53-.74.27c-.25.1-.49.22-.73.33l-1.47.67-1.43.79-.72.4-.69.46-1.4.92-1.34,1a32.579,32.579,0,0,0-5,4.88,15.1,15.1,0,0,0-1.09,1.41c-.35.48-.71,1-1,1.46a34.9,34.9,0,0,0-1.8,3.16,27,27,0,0,0-2.41,6.95,23.71,23.71,0,0,0-.38,7.47A24.651,24.651,0,0,0,544,688.27a52.079,52.079,0,0,0,14,10.38,89.432,89.432,0,0,0,8.45,3.92c.73.29,1.47.59,2.21.85l2.23.77c.75.25,1.49.53,2.25.76l2.31.64a96.734,96.734,0,0,0,19.37,3.16c13.43.88,27.53-.52,41.86-3,3.59-.63,7.13-1.3,10.69-2l10.64-2.11,10.51-2L679,697.65c13.74-2.5,27.12-4.54,40-5.78l4.79-.47,4.74-.32c3.14-.19,6.24-.44,9.29-.53q9.16-.36,17.79-.19a197.491,197.491,0,0,1,31.85,3A111.654,111.654,0,0,1,812.7,701a71.356,71.356,0,0,1,9.59,5.09c1.44.84,2.71,1.82,4,2.67.61.46,1.19.93,1.76,1.37s1.13.87,1.63,1.34a53.831,53.831,0,0,1,5.19,5.06c.68.8,1.34,1.51,1.89,2.2l1.45,1.91a17.7,17.7,0,0,1,1.07,1.55c.3.45.55.84.74,1.14l.61.93-.68-.87-.84-1.08c-.33-.42-.7-.92-1.19-1.44l-1.58-1.78c-.59-.64-1.3-1.29-2-2a56.008,56.008,0,0,0-5.46-4.58c-.52-.42-1.1-.78-1.68-1.18s-1.18-.81-1.8-1.21c-1.29-.74-2.58-1.61-4-2.33a73.137,73.137,0,0,0-9.61-4.32,113.41,113.41,0,0,0-25-5.89c-1.15-.15-2.33-.29-3.52-.42a77.868,77.868,0,0,0-17.45,2.43,125.222,125.222,0,0,0-16,5.18c-5.65,2.2-11.57,4.88-17.78,7.84s-12.7,6.22-19.65,9.39c-1.75.78-3.57,1.5-5.38,2.26l-2.73,1.14-1.38.56-1.41.49-5.7,2-1.44.5c-.49.16-1,.28-1.47.42l-3,.82-3,.82-1.48.4c-.49.12-1,.22-1.49.33L678,732.88l-1.47.31-1.47.21-2.94.43-2.92.41-1.45.21-1.45.11-5.74.46-1.42.1h-1.41l-2.81.05H649.4L644,735c-.89-.06-1.77-.06-2.64-.16l-2.59-.27-5.08-.56c-1.66-.23-3.29-.53-4.89-.8l-2.38-.4c-.79-.14-1.57-.25-2.34-.44l-4.51-1c-1.47-.35-2.92-.63-4.31-1.06l-4.11-1.18-2-.57-1-.29-1-.32L600,725.47l-6.24-2.52c-2-.76-3.72-1.62-5.35-2.37l-4.45-2.07c-5.24-2.7-8.1-4.24-8.1-4.24l8.6,3,4.65,1.47c1.7.53,3.52,1.16,5.53,1.67l6.39,1.77,7.21,1.69a171.088,171.088,0,0,0,35.9,4.06h5.14c.86,0,1.73-.05,2.6-.1l2.64-.16,2.66-.16,1.34-.08,1.34-.15,5.42-.62,1.36-.15,1.37-.23,2.75-.46,2.77-.46,1.39-.23,1.38-.31,5.59-1.24c.47-.11.94-.2,1.41-.32l1.39-.39,2.81-.77,2.8-.78c.47-.13.94-.24,1.4-.39l1.37-.46,5.44-1.81,1.35-.44,1.32-.52,2.62-1c1.75-.69,3.48-1.32,5.2-2,6.87-2.88,13.53-5.86,20-8.5s12.75-5,18.76-6.79a122.254,122.254,0,0,1,13.4-3.41c-1.85,0-3.72,0-5.62.06q-8.44.21-17.43.89c-3,.2-6,.56-9.09.85l-4.62.46-4.68.61c-12.56,1.61-25.68,3.93-39.27,6.64l-20.75,4.23L649.06,712c-3.57.73-7.23,1.43-10.91,2.07-14.72,2.54-29.51,3.91-43.87,2.73a101.091,101.091,0,0,1-20.9-3.85l-2.5-.76c-.82-.27-1.63-.6-2.44-.9l-2.43-.9c-.8-.31-1.58-.65-2.36-1a91.55,91.55,0,0,1-9-4.51,58,58,0,0,1-15.42-12.32,33.841,33.841,0,0,1-5.28-8.26,27.93,27.93,0,0,1-2.36-9.36A28.909,28.909,0,0,1,532.42,665.74Z" transform="translate(-257.62 -622.94)" fill="url(#linear-gradient-15)"/>
    </g>
  </g>
</svg>
